<svg xmlns="http://www.w3.org/2000/svg" xmlns:xlink="http://www.w3.org/1999/xlink" version="1.1"><metadata>Created by FontForge 20170731 at Mon Sep 28 16:32:50 2015 By Aleksey,,, Copyright (c) 2015 by S-Core Co., Ltd.. All rights reserved.</metadata><defs><font id="CoreSansGS-45Regular" horiz-adv-x="786"><font-face x-height="936" ascent="1600" bbox="-822 -588 3194 2235" cap-height="1400" descent="-400" font-family="Core Sans GS 45 Regular" font-stretch="normal" font-weight="400" panose-1="2 11 5 3 3 3 2 2 2 2" underline-position="-462" underline-thickness="48" unicode-range="U+001D-FB06" units-per-em="2000"/><glyph d="M212 936v162q0 95 24 168.5t68 123.5t107 76t141 26q32 0 75 -7t82 -21.5t66 -37.5t27 -54q0 -30 -21 -51t-51 -21q-15 0 -26 5t-22 11q-30 18 -59.5 25t-58.5 7q-88 0 -135 -65.5t-47 -184.5v-162h452v200q0 92 21 164t62 121.5t101 75t138 25.5q35 0 79.5 -11 t83.5 -30.5t66 -46.5t27 -60q0 -30 -22 -52t-52 -22q-15 0 -29.5 6t-26.5 20q-20 21 -49 34.5t-67 13.5q-86 0 -124 -63t-38 -181v-194h224q32 0 55 -23t23 -55q0 -33 -23 -55.5t-55 -22.5h-224v-716q0 -35 -24.5 -59.5t-59.5 -24.5q-36 0 -61 24.5t-25 59.5v716h-452v-716 q0 -35 -24.5 -59.5t-59.5 -24.5q-36 0 -61 24.5t-25 59.5v716h-98q-33 0 -55.5 22.5t-22.5 55.5q0 32 22.5 55t55.5 23h98z" glyph-name="uniFB00" horiz-adv-x="1312" unicode="ff"/><glyph d="M836 780h-454v-716q0 -35 -24.5 -59.5t-59.5 -24.5q-36 0 -61 24.5t-25 59.5v716h-100q-32 0 -55 22.5t-23 55.5q0 32 23 55t55 23h100v180q0 95 30 170.5t82.5 128t123.5 80t154 27.5q46 0 91 -9t85.5 -27t74 -43.5t55.5 -58.5q16 -22 16 -46q0 -30 -22 -52t-52 -22 q-18 0 -33.5 8t-26.5 22q-30 39 -78 61.5t-104 22.5q-52 0 -93.5 -18.5t-71 -53t-45.5 -83t-16 -109.5v-178h546q32 0 55 -23.5t23 -56.5v-792q0 -35 -24.5 -59.5t-59.5 -24.5q-36 0 -61 24.5t-25 59.5v716z" glyph-name="uniFB01" horiz-adv-x="1162" unicode="fi"/><glyph d="M382 936h224q32 0 55 -23t23 -55q0 -33 -23 -55.5t-55 -22.5h-224v-716q0 -35 -24.5 -59.5t-59.5 -24.5q-36 0 -61 24.5t-25 59.5v716h-100q-32 0 -55 22.5t-23 55.5q0 32 23 55t55 23h100v206q0 93 29 164t79.5 119t118.5 72.5t145 24.5q78 0 143.5 -26.5t104.5 -65.5 q3 39 28.5 62.5t57.5 23.5q35 0 59.5 -23.5t24.5 -58.5v-1370q0 -35 -24.5 -59.5t-59.5 -24.5q-36 0 -61 24.5t-25 59.5v1220q-33 44 -87 69t-119 25q-52 0 -96.5 -16t-77.5 -48t-51.5 -80.5t-18.5 -113.5v-184z" glyph-name="uniFB02" horiz-adv-x="1160" unicode="fl"/><glyph d="M1458 780h-454v-716q0 -35 -24.5 -59.5t-59.5 -24.5q-36 0 -61 24.5t-25 59.5v716h-452v-716q0 -35 -24.5 -59.5t-59.5 -24.5q-36 0 -61 24.5t-25 59.5v716h-98q-33 0 -55.5 22.5t-22.5 55.5q0 32 22.5 55t55.5 23h98v162q0 95 24 168.5t68 123.5t107 76t141 26 q54 0 108 -13t104 -43q17 -9 27.5 -26t10.5 -38q0 -30 -21 -51t-51 -21q-15 0 -26 5t-22 11q-32 18 -60 25t-58 7q-88 0 -135 -64.5t-47 -185.5v-162h452v180q0 95 30 170.5t82.5 128t123.5 80t154 27.5q46 0 90.5 -9.5t84.5 -27.5t73.5 -44t57.5 -59q16 -22 16 -44 q0 -30 -22 -52t-52 -22q-18 0 -33.5 8t-26.5 22q-30 39 -78 61.5t-104 22.5q-52 0 -93.5 -18.5t-71 -53t-45.5 -83t-16 -109.5v-178h546q32 0 55 -23.5t23 -56.5v-792q0 -35 -24.5 -59.5t-59.5 -24.5q-36 0 -61 24.5t-25 59.5v716z" glyph-name="uniFB03" horiz-adv-x="1786" unicode="ffi"/><glyph d="M1004 936h224q32 0 55 -23t23 -55q0 -33 -23 -55.5t-55 -22.5h-224v-716q0 -35 -24.5 -59.5t-59.5 -24.5q-36 0 -61 24.5t-25 59.5v716h-452v-716q0 -35 -24.5 -59.5t-59.5 -24.5q-36 0 -61 24.5t-25 59.5v716h-98q-33 0 -55.5 22.5t-22.5 55.5q0 32 22.5 55t55.5 23h98 v162q0 95 24 168.5t68 123.5t107 76t141 26q13 0 37 -2.5t52 -8t56.5 -14.5t51.5 -22t38 -31.5t15 -41.5q0 -30 -21 -51t-51 -21q-15 0 -26 5t-22 11q-32 18 -60 25t-58 7q-88 0 -135 -64.5t-47 -185.5v-162h452v206q0 93 29 164t79.5 119t118.5 72.5t145 24.5 q78 0 143.5 -26.5t104.5 -65.5q3 39 28.5 62.5t57.5 23.5q35 0 59.5 -23.5t24.5 -58.5v-1370q0 -35 -24.5 -59.5t-59.5 -24.5q-36 0 -61 24.5t-25 59.5v1220q-33 44 -87 69t-119 25q-52 0 -96.5 -16t-77.5 -48t-51.5 -80.5t-18.5 -113.5v-184z" glyph-name="uniFB04" horiz-adv-x="1782" unicode="ffl"/><glyph d="M10 1400h1000v-1400h-1000v1400zM408 220q0 -41 26.5 -68.5t67.5 -27.5t68.5 27.5t27.5 68.5t-27.5 68.5t-68.5 27.5t-67.5 -27.5t-26.5 -68.5zM212 1104q0 -26 18.5 -45t45.5 -19q14 0 26.5 4.5t21.5 15.5t27 25.5t42 27t53.5 21t61.5 8.5q47 0 83 -11.5t60 -31 t36.5 -44.5t12.5 -53q0 -35 -15 -64t-43 -54.5t-68 -50t-90 -49.5q-85 -44 -121.5 -94.5t-36.5 -109.5q0 -86 52.5 -137t147.5 -51q41 0 69.5 10.5t52.5 25.5q12 8 19 21.5t7 28.5q0 26 -18 44t-44 18q-19 0 -32 -8q-11 -6 -24 -11t-30 -5q-29 0 -47.5 14.5t-18.5 43.5 q0 32 30.5 58t83.5 52q63 30 112 61.5t82 69t50.5 82.5t17.5 103t-24 107t-67.5 85t-103.5 56t-131 20q-86 0 -155 -32.5t-125 -85.5q-18 -18 -18 -46z" glyph-name=".notdef" horiz-adv-x="1020"/><glyph glyph-name=".null" horiz-adv-x="0"/><glyph glyph-name=".null" horiz-adv-x="0"/><glyph glyph-name="nonmarkingreturn" horiz-adv-x="474"/><glyph glyph-name="space" horiz-adv-x="600"/><glyph d="M188 92q0 25 9 46t25.5 36.5t38 24.5t47.5 9q25 0 46.5 -9t37.5 -24.5t25 -36.5t9 -46t-9 -46t-25 -36.5t-37.5 -24.5t-46.5 -9q-26 0 -47.5 9t-38 24.5t-25.5 36.5t-9 46zM216 1326q0 39 26.5 65.5t65.5 26.5q19 0 35.5 -7t29 -19.5t20 -29.5t7.5 -36v-898 q0 -38 -27 -65t-65 -27q-20 0 -36.5 7.5t-29 20t-19.5 29t-7 35.5v898z" glyph-name="exclam" horiz-adv-x="616" unicode="!"/><glyph d="M300 822q-27 0 -45.5 17.5t-20.5 44.5l-24 428q-2 22 4 41t18 33.5t29.5 23t38.5 8.5q44 0 67 -31t21 -75l-22 -428q-2 -27 -20.5 -44.5t-45.5 -17.5zM700 822q-27 0 -45.5 17.5t-20.5 44.5l-22 428q-2 44 22 75t66 31q44 0 67 -31t23 -75l-24 -428q-2 -27 -20.5 -44.5 t-45.5 -17.5z" glyph-name="quotedbl" horiz-adv-x="1002" unicode="&quot;"/><glyph d="M96 974q0 42 31 58t73 16h126v262q0 22 3.5 42t12.5 35.5t24 25t38 9.5t38.5 -9.5t24.5 -25t13 -35.5t4 -42v-262h372v262q0 22 4 42.5t13 36t24.5 24.5t38.5 9q22 0 37 -9.5t24 -25t13 -35.5t4 -42v-262h126q20 0 39 -3.5t33.5 -12t23 -22.5t8.5 -36q0 -21 -8.5 -35 t-23 -22t-33.5 -11.5t-39 -3.5h-126v-406h126q20 0 39 -3t33.5 -11t23 -22t8.5 -36t-8.5 -36t-23 -22t-33.5 -11t-39 -3h-126v-264q0 -22 -3.5 -42t-12.5 -35t-24 -24t-38 -9t-38.5 8.5t-24.5 23.5t-13 35t-4 43v264h-372v-264q0 -22 -4 -42t-13 -35t-24.5 -24t-38.5 -9 t-38 9t-24 24t-12.5 35t-3.5 42v264h-126q-21 0 -40 3.5t-33 11.5t-22.5 22t-8.5 35t8.5 35t22.5 22t33 11.5t40 3.5h126v406h-126q-21 0 -40 3.5t-33 12t-22.5 22.5t-8.5 34zM484 496h372v406h-372v-406z" glyph-name="numbersign" horiz-adv-x="1346" unicode="#"/><glyph d="M600 846q187 -77 273.5 -189.5t86.5 -272.5q0 -73 -22.5 -139.5t-66.5 -120.5t-109 -90.5t-150 -49.5v-106q0 -32 -22 -53t-54 -21t-53 21t-21 53v102q-56 6 -109.5 25t-100.5 49t-87 69t-69 85q-6 11 -10 22.5t-4 25.5q0 16 6.5 31t17.5 27t26 19t32 7q21 0 40 -10.5 t30 -27.5q25 -37 58.5 -65t71.5 -47.5t78.5 -29.5t81.5 -10q55 0 101 19.5t79.5 52.5t52.5 76t19 90q0 50 -13.5 92.5t-46 80.5t-87.5 73t-137 70q-78 33 -138 71.5t-100.5 86.5t-61 106t-20.5 130q0 56 18 107t51.5 92t81.5 70t107 43v98q0 32 21 54t53 22t54 -22t22 -54 v-88q72 -9 132.5 -44.5t107.5 -89.5q11 -14 19.5 -29.5t8.5 -32.5q0 -32 -24 -55t-56 -23q-18 0 -35 9t-29 23q-33 38 -75.5 55t-90.5 17q-85 0 -133.5 -44.5t-48.5 -115.5q0 -41 12 -73.5t40.5 -61t75.5 -55t116 -54.5z" glyph-name="dollar" horiz-adv-x="1062" unicode="$"/><glyph d="M794 1096q0 -68 -26.5 -127.5t-71.5 -103.5t-105 -69.5t-127 -25.5q-68 0 -128 25.5t-105.5 69.5t-72 103.5t-26.5 127.5q0 69 26.5 129t72 104t105.5 69.5t128 25.5q67 0 127 -25.5t105 -69.5t71.5 -104t26.5 -129zM284 1096q0 -37 14 -69.5t38 -57t57 -39t71 -14.5 q37 0 69.5 14.5t56.5 39t38 57t14 69.5t-14 70.5t-38 58t-56.5 39t-69.5 14.5q-38 0 -71 -14.5t-57 -39t-38 -58t-14 -70.5zM1720 302q0 -69 -26.5 -128.5t-72 -103.5t-106 -69t-127.5 -25t-127 25t-105 69t-71.5 103.5t-26.5 128.5t26.5 128.5t71.5 103.5t105 69t127 25 t127.5 -25t106 -69t72 -103.5t26.5 -128.5zM1210 302q0 -37 13.5 -70t37.5 -58t56.5 -39.5t70.5 -14.5t71 14.5t57 39.5t38 58t14 70t-14 69.5t-38 57t-57 39t-71 14.5t-70.5 -14.5t-56.5 -39t-37.5 -57t-13.5 -69.5zM1336 1396q9 12 24 19t32 7q30 0 50 -20t20 -50 q0 -15 -5 -27t-13 -21l-928 -1300q-9 -12 -24 -20t-32 -8q-30 0 -50 20t-20 50q0 15 5 27t13 21z" glyph-name="percent" horiz-adv-x="1852" unicode="%"/><glyph d="M522 -20q-98 0 -176.5 27.5t-133.5 76t-84.5 115.5t-29.5 147q0 57 15.5 110t50 105t89.5 104.5t133 108.5q-71 92 -111.5 173.5t-40.5 162.5q0 68 24 125t67.5 97.5t104 63t134.5 22.5q64 0 122.5 -22.5t103.5 -63.5t71.5 -99t26.5 -129q0 -57 -17.5 -104t-50.5 -89 t-82 -83t-112 -86l314 -400q36 30 67.5 63.5t64.5 68.5q9 9 24.5 13.5t29.5 4.5q36 0 61 -24.5t25 -59.5q0 -21 -16 -46t-40 -51.5t-53.5 -53t-56.5 -49.5l100 -126q11 -12 17.5 -27.5t6.5 -32.5q0 -18 -7.5 -34t-19.5 -28t-28.5 -19t-34.5 -7q-24 0 -44 14t-34 32l-100 126 q-86 -57 -181.5 -91.5t-198.5 -34.5zM282 348q0 -44 16 -80.5t45 -63t70.5 -41.5t92.5 -15q72 0 144.5 24.5t143.5 71.5l-306 398q-62 -47 -101.5 -85.5t-63 -73t-32.5 -67t-9 -68.5zM704 1104q0 32 -11 59t-30 46.5t-44.5 30t-54.5 10.5q-72 0 -110 -40.5t-38 -109.5 q0 -50 31 -109.5t79 -122.5q45 30 78.5 57t55.5 54.5t33 57.5t11 67z" glyph-name="ampersand" horiz-adv-x="1284" unicode="&amp;"/><glyph d="M300 822q-27 0 -45.5 17.5t-20.5 44.5l-24 428q-2 22 4 41t18 33.5t29.5 23t38.5 8.5q44 0 67 -31t21 -75l-22 -428q-2 -27 -20.5 -44.5t-45.5 -17.5z" glyph-name="quotesingle" horiz-adv-x="602" unicode="'"/><glyph d="M208 618q0 213 57 426.5t175 417.5q9 17 27 26.5t39 9.5q32 0 54 -21.5t22 -54.5q0 -21 -8 -34q-98 -187 -144 -377.5t-46 -392.5q0 -200 45.5 -389t144.5 -379q3 -6 5.5 -14.5t2.5 -19.5q0 -33 -22 -54.5t-54 -21.5q-21 0 -38 9.5t-28 26.5q-119 204 -175.5 417.5 t-56.5 424.5z" glyph-name="parenleft" horiz-adv-x="732" unicode="("/><glyph d="M522 618q0 -211 -56.5 -424.5t-175.5 -417.5q-11 -17 -28 -26.5t-38 -9.5q-32 0 -54 21.5t-22 54.5q0 11 2.5 19.5t5.5 14.5q99 190 144.5 379t45.5 389q0 202 -46 392.5t-144 377.5q-8 13 -8 34q0 33 22 54.5t54 21.5q21 0 39 -9.5t27 -26.5q118 -204 175 -417.5 t57 -426.5z" glyph-name="parenright" horiz-adv-x="732" unicode=")"/><glyph d="M324 826l174 -76l-20 214v74q0 19 5.5 37.5t16 33t26.5 23t36 8.5t36 -9t26.5 -23.5t16 -32.5t5.5 -37v-74l-20 -214l196 86l68 22q21 4 44 3t42.5 -9.5t32.5 -25.5t13 -44q0 -36 -24 -54.5t-56 -29.5l-68 -22l-202 -46l136 -152l46 -60q9 -11 17.5 -30.5t8.5 -39.5 q0 -32 -22.5 -57t-61.5 -25q-23 0 -42.5 15t-33.5 35l-44 62l-114 184l-112 -184l-44 -62q-15 -20 -34.5 -35t-43.5 -15q-39 0 -61.5 25t-22.5 57q0 20 8 37.5t20 32.5l44 60l138 152l-204 46l-76 24q-32 9 -52 29t-20 53q0 20 8 35t21.5 25t30.5 15t34 5q18 0 37.5 -5 t36.5 -11z" glyph-name="asterisk" horiz-adv-x="1126" unicode="*"/><glyph d="M532 590h-338q-30 0 -51 21t-21 53q0 30 21 52t53 22h336v350q0 17 7 33.5t19 29t28 20t34 7.5t34 -7t28 -19t19 -28.5t7 -35.5v-350h338q30 0 52 -22t22 -52q0 -32 -22 -53t-52 -21h-338v-352q0 -17 -7 -33t-19 -28t-28 -19.5t-34 -7.5q-38 0 -63 25t-25 63v352z" glyph-name="plus" horiz-adv-x="1240" unicode="+"/><glyph d="M126 -246q0 9 2 17.5t4 16.5l100 364q11 38 34 60t58 22q41 0 65.5 -27t24.5 -65q0 -11 -2.5 -22.5t-7.5 -25.5l-142 -354q-9 -24 -25 -39t-43 -15q-29 0 -48.5 19t-19.5 49z" glyph-name="comma" horiz-adv-x="600" unicode=","/><glyph d="M634 742q33 0 55.5 -22.5t22.5 -55.5t-21.5 -55.5t-54.5 -22.5h-462q-33 0 -54.5 22.5t-21.5 55.5t22.5 55.5t55.5 22.5h458z" glyph-name="hyphen" horiz-adv-x="812" unicode="-"/><glyph d="M180 94q0 25 9.5 46.5t26 38t38 26t46.5 9.5t46.5 -9.5t37.5 -26t25 -38t9 -46.5t-9 -46.5t-25 -37.5t-37.5 -25t-46.5 -9t-46.5 9t-38 25t-26 37.5t-9.5 46.5z" glyph-name="period" horiz-adv-x="600" unicode="."/><glyph d="M822 1442q11 23 28.5 35.5t43.5 12.5q32 0 55 -22.5t23 -55.5q0 -9 -2.5 -18.5t-5.5 -17.5l-766 -1538q-11 -23 -29.5 -35.5t-42.5 -12.5q-32 0 -55 22.5t-23 55.5q0 9 2.5 18.5t5.5 17.5z" glyph-name="slash" horiz-adv-x="1030" unicode="/"/><glyph d="M134 700q0 151 28 282.5t86 228t146 152t208 55.5q118 0 206 -55.5t145.5 -152t86 -228t28.5 -282.5q0 -152 -28.5 -283.5t-86 -228.5t-145.5 -152.5t-206 -55.5q-120 0 -208 55.5t-146 152.5t-86 228.5t-28 283.5zM318 700q0 -123 16 -224.5t50.5 -174.5t88 -113 t129.5 -40q75 0 128.5 40t87.5 113t50 174.5t16 224.5q0 122 -16 223.5t-50 174t-87.5 112.5t-128.5 40q-76 0 -129.5 -40t-88 -112.5t-50.5 -174t-16 -223.5z" glyph-name="zero" horiz-adv-x="1202" unicode="0"/><glyph d="M230 1100q0 23 10.5 41t27.5 29l414 240q6 3 12.5 6.5t15.5 3.5q18 0 30 -13t12 -31v-1304q0 -38 -27 -65t-65 -27t-65 27t-27 65v1086l-216 -124q-21 -12 -44 -12q-33 0 -55.5 22.5t-22.5 55.5z" glyph-name="one" horiz-adv-x="1202" unicode="1"/><glyph d="M158 1150q0 28 16 50q33 52 75.5 92.5t92 69t104.5 43.5t112 15q97 0 175 -29.5t133.5 -82t85.5 -125t30 -157.5q0 -55 -13.5 -108t-37.5 -105t-57.5 -102t-73.5 -99l-360 -444h496q35 0 59.5 -24.5t24.5 -59.5t-24.5 -59.5t-59.5 -24.5h-752q-17 0 -27.5 10.5 t-10.5 27.5q0 9 4 17.5t10 16.5l482 620q75 97 115.5 175.5t40.5 156.5q0 52 -18 94t-50 72t-77 46t-99 16q-71 0 -132 -35t-108 -107q-12 -18 -31 -29t-43 -11q-33 0 -57.5 23.5t-24.5 56.5z" glyph-name="two" horiz-adv-x="1202" unicode="2"/><glyph d="M98 244q0 35 24.5 59.5t59.5 24.5q24 0 41.5 -11t32.5 -31q22 -29 50 -54.5t60.5 -44t69.5 -29t78 -10.5q65 0 121 18.5t96.5 54t63.5 87t23 116.5q0 64 -22.5 118t-67 94.5t-111.5 65t-155 30.5h-4q-17 0 -29.5 11t-12.5 31q0 8 3.5 15t8.5 15l274 428h-448 q-35 0 -59.5 24.5t-24.5 59.5t24.5 59.5t59.5 24.5h688q17 0 27.5 -9.5t10.5 -24.5q0 -8 -3.5 -15t-8.5 -15l-326 -494q85 -22 152 -61t113.5 -93t70.5 -122.5t24 -147.5q0 -80 -29.5 -158.5t-88 -140.5t-147.5 -100.5t-207 -38.5q-58 0 -114.5 13.5t-109 39.5t-99 64 t-83.5 87q-9 14 -17.5 28t-8.5 32z" glyph-name="three" horiz-adv-x="1202" unicode="3"/><glyph d="M40 312q0 8 3.5 15.5t14.5 22.5l750 1032q9 12 23 25t31 13q21 0 34.5 -14.5t13.5 -37.5v-924h94q35 0 59.5 -24.5t24.5 -59.5t-24.5 -59.5t-59.5 -24.5h-94v-200q0 -42 -25.5 -69t-66.5 -27t-66.5 27t-25.5 69v200h-650q-15 0 -25.5 10.5t-10.5 25.5zM726 442v608 l-442 -608h442z" glyph-name="four" horiz-adv-x="1202" unicode="4"/><glyph d="M342 1300q8 51 31.5 75.5t76.5 24.5h468q35 0 59.5 -24.5t24.5 -59.5t-24.5 -59.5t-59.5 -24.5h-408q-14 -92 -28 -179.5t-28 -178.5q27 8 54.5 11t57.5 3q93 0 178 -31.5t150 -89.5t103.5 -140.5t38.5 -184.5q0 -97 -31 -181t-91 -146.5t-149 -98.5t-205 -36 q-62 0 -121 14t-112 41t-98.5 66t-80.5 89q-8 11 -13 23t-5 27q0 35 24.5 59.5t59.5 24.5q43 0 68 -34q51 -69 120 -105.5t146 -36.5q79 0 136.5 24t95 64.5t55 93t17.5 108.5q0 68 -24.5 124t-69 96t-107.5 62t-139 22q-53 0 -106.5 -14.5t-97.5 -37.5q-9 -6 -22 -6 q-15 0 -25 10.5t-7 25.5z" glyph-name="five" horiz-adv-x="1202" unicode="5"/><glyph d="M1084 438q0 -101 -39.5 -185.5t-105.5 -145t-152.5 -94t-180.5 -33.5q-96 0 -183.5 33.5t-153.5 94t-105.5 145t-39.5 185.5q0 77 33 156.5t83 157.5l392 620q14 21 32 34.5t44 13.5q35 0 59.5 -23.5t24.5 -58.5q0 -15 -5 -27.5t-13 -26.5l-266 -422q21 12 47 18t53 6 q85 0 170.5 -30.5t153 -88t110 -140.5t42.5 -189zM308 438q0 -65 22.5 -118t62 -91.5t93.5 -59.5t116 -21t116 21t94 59.5t63 91.5t23 118q0 64 -23 118t-63 93t-94 61t-116 22t-116 -22t-93.5 -61t-62 -93t-22.5 -118z" glyph-name="six" horiz-adv-x="1202" unicode="6"/><glyph d="M142 1316q0 35 24.5 59.5t59.5 24.5h786q15 0 26.5 -11.5t11.5 -26.5q0 -6 -2 -13t-4 -13l-548 -1294q-12 -29 -34 -45.5t-52 -16.5q-18 0 -34 7t-28 19t-19 28t-7 34q0 19 6 34l480 1130h-582q-35 0 -59.5 24.5t-24.5 59.5z" glyph-name="seven" horiz-adv-x="1202" unicode="7"/><glyph d="M600 -20q-100 0 -186.5 34t-150.5 94t-100.5 140.5t-36.5 173.5q0 66 19.5 124t54.5 106t83.5 85t106.5 61q-35 20 -66 48t-53.5 62.5t-35.5 74.5t-13 85q0 74 28.5 138.5t79 112t119.5 74.5t151 27t151.5 -27t120.5 -74.5t79.5 -112t28.5 -138.5q0 -45 -13.5 -85 t-36 -74.5t-53.5 -62.5t-65 -48q57 -24 105 -61.5t83 -85.5t54.5 -106t19.5 -123q0 -93 -36.5 -173.5t-100 -140.5t-150.5 -94t-187 -34zM600 710q-62 0 -115 -21t-92 -58.5t-61 -89.5t-22 -113q0 -59 22 -110t61 -88.5t92 -59.5t115 -22t115 22t92 59.5t61 88.5t22 110 q0 61 -22 113t-61 89.5t-92 58.5t-115 21zM600 864q44 0 81 16t64 43t42 63.5t15 77.5t-15 77t-42 62.5t-64 41.5t-81 15t-81 -15t-63.5 -41.5t-41 -62.5t-14.5 -77t14.5 -77.5t41 -63.5t63.5 -43t81 -16z" glyph-name="eight" horiz-adv-x="1202" unicode="8"/><glyph d="M118 964q0 100 39.5 184t106 144.5t153 94t181.5 33.5t182.5 -33.5t154 -94t106 -144.5t39.5 -184q0 -80 -34 -158t-84 -158l-392 -620q-14 -21 -32 -34.5t-44 -13.5q-35 0 -58.5 23.5t-23.5 58.5q0 15 4.5 27.5t13.5 26.5l264 422q-42 -24 -98 -24q-86 0 -171.5 30.5 t-153.5 88.5t-110.5 141.5t-42.5 189.5zM896 964q0 64 -23 117t-63 91t-94 59t-116 21t-116 -21t-94 -59t-63 -91t-23 -117q0 -65 23 -119t63 -93.5t94 -61.5t116 -22t116 22t94 61.5t63 93.5t23 119z" glyph-name="nine" horiz-adv-x="1202" unicode="9"/><glyph d="M180 94q0 25 9.5 46.5t26 38t38 26t46.5 9.5t46.5 -9.5t37.5 -26t25 -38t9 -46.5t-9 -46.5t-25 -37.5t-37.5 -25t-46.5 -9t-46.5 9t-38 25t-26 37.5t-9.5 46.5zM180 944q0 25 9.5 46.5t26 38t38 26t46.5 9.5t46.5 -9.5t37.5 -26t25 -38t9 -46.5t-9 -46.5t-25 -37.5 t-37.5 -25t-46.5 -9t-46.5 9t-38 25t-26 37.5t-9.5 46.5z" glyph-name="colon" horiz-adv-x="600" unicode=":"/><glyph d="M180 944q0 25 9.5 46.5t26 38t38 26t46.5 9.5t46.5 -9.5t37.5 -26t25 -38t9 -46.5t-9 -46.5t-25 -37.5t-37.5 -25t-46.5 -9t-46.5 9t-38 25t-26 37.5t-9.5 46.5zM126 -246q0 9 2 17.5t4 16.5l96 354q4 17 13 33.5t21.5 29.5t28 21t33.5 8q41 0 65.5 -28t24.5 -66 q0 -11 -2.5 -22.5t-7.5 -23.5l-138 -344q-9 -24 -27 -44t-45 -20q-29 0 -48.5 19t-19.5 49z" glyph-name="semicolon" horiz-adv-x="600" unicode=";"/><glyph d="M130 664q0 17 22 28l830 482q9 5 17.5 7.5t20.5 2.5q33 0 55.5 -22.5t22.5 -55.5q0 -27 -14.5 -45.5t-35.5 -30.5l-640 -366l640 -368q21 -12 35.5 -30t14.5 -44q0 -35 -22.5 -57.5t-55.5 -22.5q-17 0 -31.5 7t-28.5 15l-808 470q-22 11 -22 30z" glyph-name="less" horiz-adv-x="1240" unicode="&lt;"/><glyph d="M1036 972q32 0 53 -22t21 -54t-20 -52t-52 -20h-838q-32 0 -52 20t-20 52t21 54t53 22h834zM1036 504q32 0 53 -22t21 -54t-20 -53t-52 -21h-838q-32 0 -52 21t-20 53t21 54t53 22h834z" glyph-name="equal" horiz-adv-x="1240" unicode="="/><glyph d="M1110 664q0 -19 -22 -30l-808 -470q-14 -8 -28.5 -15t-31.5 -7q-33 0 -55.5 22.5t-22.5 57.5q0 26 14.5 44t35.5 30l640 368l-640 366q-21 12 -35.5 30.5t-14.5 45.5q0 33 22.5 55.5t55.5 22.5q12 0 20.5 -2.5t17.5 -7.5l830 -482q22 -11 22 -28z" glyph-name="greater" horiz-adv-x="1240" unicode="&gt;"/><glyph d="M92 1202q0 18 8 35t22 29q72 71 165.5 112.5t194.5 41.5q91 0 166.5 -24t130 -67.5t85 -103t30.5 -129.5q0 -122 -84.5 -216.5t-241.5 -165.5q-74 -33 -114 -69t-40 -83q0 -44 28.5 -67t69.5 -23q17 0 34 6t32 14q8 3 18.5 7.5t21.5 4.5q29 0 48.5 -19.5t19.5 -48.5 q0 -35 -26 -54q-35 -27 -78 -40.5t-90 -13.5q-55 0 -101.5 16.5t-80.5 46t-53 69t-19 86.5q0 39 13.5 78t40.5 75t67 67.5t93 55.5q131 60 198.5 124.5t67.5 147.5q0 80 -63 126t-175 46q-34 0 -68.5 -8t-67.5 -22.5t-62.5 -35.5t-53.5 -46q-12 -14 -26 -22t-32 -8 q-32 0 -55 23t-23 55zM350 94q0 25 9 46.5t25 38t37.5 26t46.5 9.5t46.5 -9.5t38 -26t26 -38t9.5 -46.5t-9.5 -46.5t-26 -37.5t-38 -25t-46.5 -9t-46.5 9t-37.5 25t-25 37.5t-9 46.5z" glyph-name="question" horiz-adv-x="986" unicode="?"/><glyph d="M1222 874q0 32 21 54t53 22t54 -22t22 -54v-480q0 -39 9.5 -66.5t26 -45.5t38 -26t46.5 -8q106 0 167 90t61 256q0 99 -25.5 191.5t-73 173.5t-115 148.5t-152 115.5t-184 74.5t-210.5 26.5q-103 0 -198.5 -28t-178.5 -78.5t-150.5 -121.5t-115.5 -157t-74.5 -184.5 t-26.5 -204.5q0 -103 26.5 -200.5t75 -184t117.5 -158t154.5 -123.5t185.5 -81t211 -29q59 0 119 8t117.5 23t111 36t100.5 47q8 5 15.5 8.5t18.5 3.5q21 0 35.5 -13.5t14.5 -34.5q0 -17 -9 -27.5t-23 -18.5q-118 -66 -243.5 -98t-256.5 -32q-125 0 -239.5 33t-212.5 92 t-177.5 141t-135.5 179t-86.5 206t-30.5 223q0 115 30 224.5t85 206.5t132.5 178.5t172.5 140t205 91.5t231 33q126 0 239.5 -31.5t210.5 -87.5t175 -134t133 -170t84.5 -195.5t29.5 -211.5q0 -97 -24.5 -180.5t-72.5 -145t-117.5 -97t-159.5 -35.5q-85 0 -145 42.5 t-83 119.5q-25 -39 -59.5 -69.5t-75 -51.5t-86 -32t-91.5 -11q-83 0 -156 32t-127.5 87.5t-86.5 130t-32 160.5t31.5 160t86 128t127 85t155.5 31q95 0 174 -38.5t132 -107.5v72zM664 544q0 -56 21.5 -106t59 -87.5t88 -59t107.5 -21.5t107 21.5t87.5 59t59.5 87.5t22 106 q0 57 -22 107t-59.5 87.5t-87.5 59.5t-107 22t-107.5 -22t-88 -59.5t-59 -87.5t-21.5 -107z" glyph-name="at" horiz-adv-x="1940" unicode="@"/><glyph d="M640 1420q18 0 31 -11.5t19 -26.5l528 -1274q5 -11 7.5 -20t2.5 -20q0 -19 -7 -35t-18.5 -28t-27 -18.5t-31.5 -6.5q-29 0 -50 16t-32 42l-122 304h-602l-120 -304q-11 -26 -32 -42t-50 -16q-17 0 -32.5 6.5t-27.5 18.5t-19 27.5t-7 33.5q0 12 3.5 21.5t8.5 20.5 l528 1274q6 17 19 27.5t31 10.5zM400 494h478q-12 29 -30.5 76.5t-41.5 104t-47 117.5t-47 117.5t-42 104t-30 76.5z" glyph-name="A" horiz-adv-x="1280" unicode="A"/><glyph d="M166 1320q0 32 22.5 56t55.5 24h234q108 0 190 -27.5t137 -74t83 -108t28 -128.5q0 -116 -56 -196t-162 -116q79 -18 136.5 -54t95 -84t55 -106t17.5 -120q0 -82 -31 -152.5t-90 -122.5t-145 -81.5t-196 -29.5h-294q-35 0 -57.5 22.5t-22.5 57.5v1240zM350 158h168 q72 0 128 19t94 52.5t58 80t20 102.5q0 55 -20.5 101t-59.5 79.5t-96 52.5t-130 19h-162v-506zM350 824h134q61 0 108 16t78.5 44t47.5 66t16 82q0 43 -15 81t-46.5 66.5t-79.5 44.5t-113 16h-130v-416z" glyph-name="B" horiz-adv-x="1082" unicode="B"/><glyph d="M102 700q0 154 58.5 285.5t159 228t234 151.5t284.5 55q140 0 264 -47.5t222 -130.5q14 -12 21 -30t7 -36t-7 -34.5t-19 -28.5t-28 -19.5t-34 -7.5q-33 0 -58 22q-75 66 -168.5 102t-199.5 36q-114 0 -214.5 -41t-175.5 -113.5t-118.5 -173t-43.5 -218.5 q0 -119 43.5 -219.5t118.5 -173t175.5 -113t214.5 -40.5q106 0 200 36t168 102q25 22 58 22q18 0 34 -7.5t28 -19.5t19 -28.5t7 -34.5t-7.5 -36t-22.5 -30q-98 -85 -221 -131.5t-263 -46.5q-151 0 -284.5 54.5t-234 151t-159 228t-58.5 286.5z" glyph-name="C" horiz-adv-x="1438" unicode="C"/><glyph d="M350 174h194q117 0 216 36.5t171 105t112.5 165.5t40.5 219q0 121 -40.5 218.5t-112.5 166t-171 105t-216 36.5h-194v-1052zM246 0q-35 0 -57.5 22.5t-22.5 57.5v1240q0 32 22.5 56t55.5 24h300q100 0 193 -22.5t173.5 -65t146.5 -103.5t113 -139t72.5 -171t25.5 -199 q0 -159 -56.5 -288.5t-154.5 -221t-230 -141t-283 -49.5h-298z" glyph-name="D" horiz-adv-x="1372" unicode="D"/><glyph d="M166 1312q0 18 7 34t19 28t28 19t34 7h524q18 0 34 -7t28 -19t19 -28t7 -34q0 -36 -26 -61t-62 -25h-428v-364h380q35 0 59.5 -24.5t24.5 -59.5t-24.5 -59.5t-59.5 -24.5h-380v-520h448q17 0 32.5 -7t27.5 -19t19 -28t7 -34t-7 -33.5t-19 -27.5t-27.5 -18.5t-32.5 -6.5 h-544q-36 0 -62 25t-26 61v1226z" glyph-name="E" horiz-adv-x="972" unicode="E"/><glyph d="M166 1310q0 39 25 64.5t61 25.5h522q38 0 63 -25.5t25 -64.5q0 -35 -25 -59.5t-63 -24.5h-424v-380h366q38 0 63 -25t25 -63q0 -36 -25 -61t-63 -25h-366v-600q0 -38 -27 -65t-65 -27q-20 0 -36.5 7.5t-29 20t-19.5 29t-7 35.5v1238z" glyph-name="F" horiz-adv-x="902" unicode="F"/><glyph d="M838 1246q-114 0 -214.5 -41t-175.5 -113.5t-118.5 -173t-43.5 -218.5q0 -119 43.5 -219.5t118.5 -173t175.5 -113t214.5 -40.5q97 0 176.5 31t138 86.5t96 130.5t51.5 164h-300q-18 0 -34 7t-28 19t-19 27.5t-7 32.5q0 18 7 34t19 28t28 19t34 7h408q36 0 61 -26t25 -62 v-8q0 -140 -48.5 -261t-135.5 -210.5t-207.5 -141t-264.5 -51.5q-151 0 -284.5 54.5t-234 151t-159 228t-58.5 286.5q0 154 58.5 285.5t159 228t234 151.5t284.5 55q85 0 163 -17.5t148 -50t131.5 -79.5t113.5 -105q12 -14 19 -29t7 -33q0 -19 -7 -35.5t-19 -28.5t-28 -19 t-34 -7q-23 0 -40.5 9.5t-29.5 24.5q-75 92 -185.5 144t-238.5 52z" glyph-name="G" horiz-adv-x="1586" unicode="G"/><glyph d="M1138 72q0 -38 -27 -65t-65 -27q-20 0 -36.5 7.5t-29 20t-19.5 29t-7 35.5v608h-604v-608q0 -38 -27 -65t-65 -27q-20 0 -36.5 7.5t-29 20t-19.5 29t-7 35.5v1256q0 19 7 35.5t19.5 29t29 20t36.5 7.5q38 0 65 -27t27 -65v-474h604v474q0 19 7 35.5t19.5 29t29 20 t36.5 7.5q38 0 65 -27t27 -65v-1256z" glyph-name="H" horiz-adv-x="1304" unicode="H"/><glyph d="M370 72q0 -19 -7 -35.5t-19.5 -29t-29.5 -20t-36 -7.5q-38 0 -65 27t-27 65v1256q0 38 27 65t65 27q19 0 36 -7.5t29.5 -20t19.5 -29t7 -35.5v-1256z" glyph-name="I" horiz-adv-x="558" unicode="I"/><glyph d="M6 172q0 36 25 62t61 26q18 0 34.5 -6t27.5 -20q29 -35 70.5 -57.5t89.5 -22.5q100 0 149 71t49 205v898q0 38 27 65t65 27t65 -27t27 -65v-906q0 -114 -28 -197.5t-78 -137.5t-119.5 -80.5t-152.5 -26.5q-80 0 -151.5 33.5t-124.5 84.5q-17 17 -26.5 34t-9.5 40z" glyph-name="J" horiz-adv-x="864" unicode="J"/><glyph d="M344 714l554 672q12 15 30.5 24.5t39.5 9.5q38 0 65 -27t27 -65q0 -18 -7.5 -33t-18.5 -29l-464 -552l542 -576q26 -29 26 -66q0 -19 -7.5 -35.5t-21 -29t-31 -20t-36.5 -7.5q-41 0 -70 32l-628 702v-642q0 -19 -7 -35.5t-19.5 -29t-29.5 -20t-36 -7.5q-38 0 -65 27 t-27 65v1256q0 38 27 65t65 27q19 0 36 -7.5t29.5 -20t19.5 -29t7 -35.5v-614z" glyph-name="K" horiz-adv-x="1164" unicode="K"/><glyph d="M166 1328q0 19 7 35.5t19.5 29t29 20t36.5 7.5q38 0 65 -27t27 -65v-1154h468q36 0 61 -26t25 -62t-25 -61t-61 -25h-560q-39 0 -65.5 26.5t-26.5 65.5v1236z" glyph-name="L" horiz-adv-x="930" unicode="L"/><glyph d="M916 -14q-17 0 -28.5 10.5t-17.5 25.5l-376 1026l-250 -994q-8 -32 -33.5 -53t-58.5 -21q-19 0 -35.5 7.5t-28.5 20.5t-19 29.5t-7 34.5q0 8 1 16t3 16l366 1280q5 17 16 26.5t28 9.5q31 0 44 -32l396 -1038l398 1038q13 32 44 32q17 0 28 -9.5t16 -26.5l364 -1280l4 -16 t2 -16q0 -18 -7 -34.5t-19.5 -29.5t-29.5 -20.5t-36 -7.5q-33 0 -57.5 21t-32.5 53l-250 994l-378 -1026q-6 -15 -17.5 -25.5t-28.5 -10.5z" glyph-name="M" horiz-adv-x="1834" unicode="M"/><glyph d="M1120 360v968q0 38 27 65t65 27t65 -27t27 -65v-1306q0 -20 -14 -33t-34 -13q-12 0 -21 5.5t-17 14.5l-868 1042v-966q0 -38 -27 -65t-65 -27q-20 0 -36.5 7.5t-29 20t-19.5 29t-7 35.5v1304q0 20 13 33t33 13q14 0 23 -5t17 -13z" glyph-name="N" horiz-adv-x="1470" unicode="N"/><glyph d="M286 700q0 -119 43.5 -219.5t118.5 -173t175.5 -113t214.5 -40.5q113 0 213 40.5t175 113t118.5 173t43.5 219.5q0 118 -43.5 218.5t-118.5 173t-175 113.5t-213 41q-114 0 -214.5 -41t-175.5 -113.5t-118.5 -173t-43.5 -218.5zM102 700q0 154 58.5 285.5t159 228 t234 151.5t284.5 55q100 0 193.5 -25t175 -70.5t148.5 -110.5t115.5 -145t75 -173.5t26.5 -195.5q0 -155 -58.5 -286.5t-158.5 -228t-233.5 -151t-283.5 -54.5q-151 0 -284.5 54.5t-234 151t-159 228t-58.5 286.5z" glyph-name="O" horiz-adv-x="1676" unicode="O"/><glyph d="M166 1314q0 36 24.5 61t59.5 25h242q112 0 200.5 -33.5t150 -91.5t93.5 -135.5t32 -165.5t-32 -165.5t-93.5 -135.5t-150 -91.5t-200.5 -33.5h-142v-476q0 -38 -27 -65t-65 -27q-20 0 -36.5 7.5t-29 20t-19.5 29t-7 35.5v1242zM350 716h136q66 0 121 18t94 51t61 81 t22 108t-22 108t-61 81t-94 51t-121 18h-136v-516z" glyph-name="P" horiz-adv-x="1034" unicode="P"/><glyph d="M102 700q0 154 58.5 285.5t159 228t234 151.5t284.5 55q100 0 193.5 -25t175 -70.5t148.5 -110.5t115.5 -145t75 -173.5t26.5 -195.5q0 -137 -45.5 -255.5t-126.5 -212.5l134 -138q24 -24 24 -56q0 -33 -24.5 -56.5t-57.5 -23.5q-23 0 -38.5 10t-29.5 24l-128 130 q-94 -68 -206 -105t-236 -37q-151 0 -284.5 54.5t-234 151t-159 228t-58.5 286.5zM286 700q0 -119 43.5 -219.5t118.5 -173t175.5 -113t214.5 -40.5q89 0 168.5 25.5t147.5 70.5l-184 190q-12 12 -19 27t-7 33q0 35 23.5 58.5t56.5 23.5q20 0 36 -8t34 -26l180 -186 q54 68 84 153t30 185q0 118 -43.5 218.5t-118.5 173t-175 113.5t-213 41q-114 0 -214.5 -41t-175.5 -113.5t-118.5 -173t-43.5 -218.5z" glyph-name="Q" horiz-adv-x="1676" unicode="Q"/><glyph d="M398 718q0 17 11.5 29.5t28.5 12.5q84 1 145 20.5t101 52t59 75.5t19 92q0 54 -20.5 97t-59 73t-93.5 46t-123 16h-116v-1160q0 -38 -27 -65t-65 -27q-20 0 -36.5 7.5t-29 20t-19.5 29t-7 35.5v1242q0 36 24.5 61t59.5 25h230q104 0 190 -30t147.5 -84t95 -127.5 t33.5 -160.5q0 -54 -15.5 -110.5t-52 -106.5t-97 -90t-149.5 -61l402 -514q20 -23 20 -52q0 -35 -24.5 -59.5t-59.5 -24.5q-21 0 -39 9.5t-29 26.5l-494 676q-10 13 -10 26z" glyph-name="R" horiz-adv-x="1096" unicode="R"/><glyph d="M600 846q94 -38 162 -84.5t112 -103.5t65 -124.5t21 -147.5q0 -81 -28 -154.5t-83.5 -129.5t-137.5 -89t-189 -33q-65 0 -126.5 16.5t-116.5 46.5t-101.5 73.5t-81.5 97.5q-6 9 -10 20.5t-4 25.5q0 16 6.5 31t18 26.5t26 18t31.5 6.5q21 0 39.5 -9.5t30.5 -26.5 q53 -75 130 -113.5t160 -38.5q55 0 101 19t79.5 51.5t52.5 75.5t19 90q0 50 -13.5 92t-46.5 79.5t-87.5 72.5t-136.5 70q-78 33 -138 71.5t-100.5 85.5t-61 104.5t-20.5 128.5q0 67 25.5 126.5t72 104t111.5 70t145 25.5q188 0 294 -136q9 -12 17.5 -28.5t8.5 -31.5 q0 -16 -6.5 -30t-18 -24.5t-26.5 -17t-31 -6.5q-18 0 -34 8t-28 22q-33 36 -74.5 53t-89.5 17q-85 0 -133.5 -43.5t-48.5 -114.5q0 -41 12 -73t40.5 -60.5t75.5 -54.5t116 -54z" glyph-name="S" horiz-adv-x="1062" unicode="S"/><glyph d="M130 1226q-36 0 -61 25t-25 61t25 62t61 26h694q18 0 34 -7t28 -19t19 -28t7 -34q0 -36 -26 -61t-62 -25h-254v-1154q0 -38 -27 -65t-65 -27q-20 0 -36.5 7.5t-29 20t-19.5 29t-7 35.5v1154h-256z" glyph-name="T" horiz-adv-x="956" unicode="T"/><glyph d="M648 154q66 0 121 22t94 65t61 106.5t22 146.5v834q0 38 27 65t65 27t65 -27t27 -65v-836q0 -122 -39.5 -217.5t-105.5 -161t-153.5 -99.5t-183.5 -34q-97 0 -184.5 34t-153.5 99.5t-105 161t-39 217.5v836q0 19 7 35.5t19.5 29t29 20t36.5 7.5q38 0 65 -27t27 -65v-834 q0 -83 22 -146.5t61 -106.5t94 -65t121 -22z" glyph-name="U" horiz-adv-x="1296" unicode="U"/><glyph d="M640 -22q-18 0 -30 10.5t-18 25.5l-530 1278q-5 11 -8.5 20.5t-3.5 21.5q0 18 7 33.5t19 27.5t27.5 18.5t32.5 6.5q29 0 50 -16.5t32 -43.5l422 -1050l422 1052q11 26 32 42t50 16q16 0 31.5 -6.5t27 -18.5t18.5 -27.5t7 -33.5q0 -12 -2.5 -21.5t-7.5 -20.5l-530 -1278 q-6 -15 -18 -25.5t-30 -10.5z" glyph-name="V" horiz-adv-x="1280" unicode="V"/><glyph d="M988 1050l-360 -1046q-5 -12 -17 -21t-29 -9q-15 0 -27 8t-17 22l-476 1298q-6 15 -6 32q0 18 7 34t19 28t28 19t34 7q30 0 52.5 -19.5t33.5 -46.5l348 -1018l364 1048q6 17 17 26.5t29 9.5t28 -9.5t16 -26.5l364 -1048l350 1018q9 27 31.5 46.5t54.5 19.5q36 0 61 -26 t25 -62q0 -9 -0.5 -16.5t-3.5 -15.5l-476 -1298q-5 -14 -17.5 -22t-26.5 -8q-18 0 -29.5 9t-16.5 21z" glyph-name="W" horiz-adv-x="1976" unicode="W"/><glyph d="M1140 1328q0 -18 -6.5 -33.5t-17.5 -30.5l-386 -530l438 -604q9 -12 15.5 -27.5t6.5 -32.5q0 -38 -27 -64t-65 -26q-47 0 -82 44l-400 554l-400 -552q-14 -20 -34 -33t-46 -13q-20 0 -36.5 7.5t-29 20t-19.5 29t-7 35.5q0 32 22 60l436 602l-384 528q-11 15 -17.5 30.5 t-6.5 35.5q0 38 26 65t64 27q26 0 46 -14t34 -32l352 -486l352 486q15 20 34.5 33t45.5 13q39 0 65.5 -26.5t26.5 -65.5z" glyph-name="X" horiz-adv-x="1234" unicode="X"/><glyph d="M594 -20q-20 0 -36.5 7.5t-29 20t-19.5 29t-7 35.5v492l-452 716q-6 9 -9 21.5t-3 24.5q0 19 7.5 36.5t20 30t29.5 20t37 7.5q29 0 50 -18t36 -42l376 -620l376 620q15 24 35.5 42t50.5 18q19 0 36 -7.5t30 -20t20.5 -30t7.5 -36.5q0 -12 -3 -24.5t-9 -21.5l-452 -716 v-492q0 -38 -27 -65t-65 -27z" glyph-name="Y" horiz-adv-x="1202" unicode="Y"/><glyph d="M314 174h588q36 0 61 -26t25 -62t-25 -61t-61 -25h-832q-15 0 -25.5 10.5t-10.5 25.5q0 6 2 11.5t4 10.5l624 1168h-482q-36 0 -62 25t-26 61q0 18 7 34t19 28t28 19t34 7h722q15 0 25.5 -11.5t10.5 -26.5q0 -11 -6 -20z" glyph-name="Z" horiz-adv-x="1022" unicode="Z"/><glyph d="M250 1430q0 29 19.5 49.5t48.5 20.5h272q29 0 48.5 -20.5t19.5 -49.5t-19.5 -48.5t-48.5 -19.5h-172v-1484h172q29 0 48.5 -20.5t19.5 -49.5t-19.5 -48.5t-48.5 -19.5h-272q-29 0 -48.5 19.5t-19.5 48.5v1622z" glyph-name="bracketleft" horiz-adv-x="702" unicode="["/><glyph d="M58 1376q-8 19 -8 36q0 33 22 55.5t54 22.5q20 0 39.5 -9.5t30.5 -32.5l764 -1544q5 -11 7.5 -19t2.5 -17q0 -33 -22.5 -55.5t-55.5 -22.5q-20 0 -39.5 10.5t-30.5 31.5z" glyph-name="backslash" horiz-adv-x="1032" unicode="\"/><glyph d="M452 -192q0 -29 -20 -48.5t-50 -19.5h-270q-29 0 -48.5 19.5t-19.5 48.5t19.5 49.5t48.5 20.5h172v1484h-172q-29 0 -48.5 19.5t-19.5 48.5t19.5 49.5t48.5 20.5h270q30 0 50 -20.5t20 -49.5v-1622z" glyph-name="bracketright" horiz-adv-x="702" unicode="]"/><glyph d="M354 774q-12 -15 -28.5 -25.5t-37.5 -10.5q-35 0 -58.5 23.5t-23.5 58.5q0 28 18 52l378 514q6 8 13.5 14t16.5 6q11 0 18.5 -6t13.5 -14l380 -516q16 -22 16 -50q0 -35 -23.5 -58.5t-58.5 -23.5q-20 0 -37.5 8.5t-28.5 25.5l-278 382z" glyph-name="asciicircum" horiz-adv-x="1268" unicode="^"/><glyph d="M962 -204q24 0 40 -16t16 -40t-16 -40t-40 -16h-926q-24 0 -40 16t-16 40t16 40t40 16h926z" glyph-name="underscore" horiz-adv-x="1000" unicode="_"/><glyph d="M212 1418q0 27 18.5 46.5t45.5 19.5q25 0 48 -20l244 -234q12 -11 19 -23t7 -29q0 -27 -18.5 -45.5t-45.5 -18.5q-14 0 -25.5 5t-20.5 13l-252 238q-11 9 -15.5 21.5t-4.5 26.5z" glyph-name="grave" horiz-adv-x="808" unicode="`"/><glyph d="M950 870q0 35 24.5 59.5t59.5 24.5t59.5 -24.5t24.5 -59.5v-806q0 -35 -24.5 -59.5t-59.5 -24.5t-59.5 24.5t-24.5 59.5v104q-62 -94 -158.5 -141t-217.5 -47q-100 0 -188 37t-154 102t-104 154.5t-38 194.5q0 104 38 193t104 154t154 102t188 37q121 0 218.5 -47 t157.5 -141v104zM944 468q0 72 -27 134t-73.5 107t-109 71t-132.5 26q-71 0 -134 -26t-109.5 -71t-73.5 -107t-27 -134q0 -73 27 -135t73.5 -107.5t109.5 -71.5t134 -26q70 0 132.5 26t109 71.5t73.5 107.5t27 135z" glyph-name="a" horiz-adv-x="1274" unicode="a"/><glyph d="M156 1434q0 35 24.5 59.5t59.5 24.5t59.5 -24.5t24.5 -59.5v-668q60 94 157 141t219 47q100 0 188 -37t154 -102t104 -154t38 -193q0 -105 -38 -194.5t-104 -154.5t-154 -102t-188 -37q-122 0 -219 47t-157 141v-104q0 -35 -24.5 -59.5t-59.5 -24.5t-59.5 24.5 t-24.5 59.5v1370zM328 468q0 -73 27.5 -135t74 -107.5t109 -71.5t133.5 -26q70 0 133 26t109.5 71.5t74 107.5t27.5 135q0 72 -27.5 134t-74 107t-109.5 71t-133 26q-71 0 -133.5 -26t-109 -71t-74 -107t-27.5 -134z" glyph-name="b" horiz-adv-x="1274" unicode="b"/><glyph d="M90 468q0 104 39.5 193t108.5 154t161.5 102t198.5 37q89 0 170 -27.5t144 -78.5q15 -12 24.5 -28t9.5 -36q0 -32 -23 -54t-55 -22q-17 0 -30.5 5.5t-25.5 14.5q-94 70 -214 70q-71 0 -133 -24.5t-107.5 -68.5t-71.5 -104.5t-26 -132.5t26 -133t71.5 -105t107.5 -69 t133 -25q62 0 117 19t99 51q11 8 24 14t30 6q32 0 55 -22t23 -54q0 -20 -9.5 -36t-24.5 -28q-65 -50 -145 -78t-169 -28q-106 0 -198.5 37t-161.5 102t-108.5 154.5t-39.5 194.5z" glyph-name="c" horiz-adv-x="1004" unicode="c"/><glyph d="M1118 64q0 -35 -24.5 -59.5t-59.5 -24.5t-59.5 24.5t-24.5 59.5v104q-62 -94 -158.5 -141t-217.5 -47q-100 0 -188 37t-154 102t-104 154.5t-38 194.5q0 104 38 193t104 154t154 102t188 37q121 0 218.5 -47t157.5 -141v668q0 35 24.5 59.5t59.5 24.5t59.5 -24.5 t24.5 -59.5v-1370zM944 468q0 72 -27 134t-73.5 107t-109 71t-132.5 26q-71 0 -134 -26t-109.5 -71t-73.5 -107t-27 -134q0 -73 27 -135t73.5 -107.5t109.5 -71.5t134 -26q70 0 132.5 26t109 71.5t73.5 107.5t27 135z" glyph-name="d" horiz-adv-x="1274" unicode="d"/><glyph d="M600 -20q-106 0 -199 37t-162 102t-109 154.5t-40 194.5q0 103 39 192t106 154.5t156.5 102.5t190.5 37q99 0 186 -35t153 -97t106.5 -146.5t46.5 -183.5q2 -23 -14 -43.5t-48 -20.5h-750q10 -68 40 -122t75 -91.5t102.5 -58t122.5 -20.5q44 0 83 10t72.5 28t61.5 42 t51 52q12 15 27.5 23.5t36.5 8.5q35 0 57.5 -23.5t22.5 -58.5q0 -17 -5.5 -29.5t-14.5 -24.5q-75 -88 -173.5 -136t-220.5 -48zM902 554q-11 59 -39 104.5t-70 76.5t-95 47t-114 16q-53 0 -103 -17t-92 -48.5t-73 -76.5t-44 -102h630z" glyph-name="e" horiz-adv-x="1162" unicode="e"/><glyph d="M664 1322q-33 23 -66.5 35.5t-69.5 12.5q-39 0 -66.5 -17.5t-45.5 -49t-26 -75.5t-8 -96v-196h218q16 0 31 -6.5t27 -17.5t19 -25t7 -29q0 -35 -23 -56.5t-61 -21.5h-218v-716q0 -16 -6.5 -31t-18 -27t-27 -19t-32.5 -7t-32.5 7t-27.5 19t-19 27t-7 31v716h-96 q-36 0 -59 23t-23 55q0 35 23.5 56.5t58.5 21.5h96v204q0 91 21 162t62 120t101.5 74.5t139.5 25.5q38 0 82.5 -10.5t82.5 -30t63.5 -46.5t25.5 -61q0 -30 -22 -52t-52 -22q-14 0 -24.5 5t-27.5 17z" glyph-name="f" horiz-adv-x="690" unicode="f"/><glyph d="M166 -322q0 33 23 56.5t53 23.5q24 0 41 -12t31 -32q44 -60 114.5 -95t155.5 -35q79 0 146.5 22.5t116 72.5t76 130t27.5 195v164q-62 -94 -158.5 -141t-217.5 -47q-100 0 -188 37t-154 102t-104 154.5t-38 194.5q0 104 38 193t104 154t154 102t188 37q121 0 218.5 -47 t157.5 -141v104q0 35 24.5 59.5t59.5 24.5t59.5 -24.5t24.5 -59.5v-846q0 -167 -41.5 -280t-113.5 -181.5t-169.5 -97.5t-209.5 -29q-55 0 -108 10.5t-103 32.5t-95.5 56.5t-85.5 82.5q-11 14 -18.5 28.5t-7.5 31.5zM944 468q0 72 -27 134t-73.5 107t-109 71t-132.5 26 q-71 0 -134 -26t-109.5 -71t-73.5 -107t-27 -134q0 -73 27 -135t73.5 -107.5t109.5 -71.5t134 -26q70 0 132.5 26t109 71.5t73.5 107.5t27 135z" glyph-name="g" horiz-adv-x="1274" unicode="g"/><glyph d="M324 814q103 140 278 140q68 0 130 -24.5t109 -71t75 -113t28 -149.5v-532q0 -35 -24.5 -59.5t-59.5 -24.5t-59.5 24.5t-24.5 59.5v496q0 52 -16.5 97t-46.5 78t-71.5 52t-91.5 19t-91.5 -18.5t-71.5 -51.5t-46.5 -77.5t-16.5 -96.5v-498q0 -35 -24.5 -59.5t-59.5 -24.5 t-59.5 24.5t-24.5 59.5v1368q0 35 24.5 59.5t59.5 24.5t59.5 -24.5t24.5 -59.5v-618v0z" glyph-name="h" horiz-adv-x="1090" unicode="h"/><glyph d="M366 1314q0 -25 -9 -46t-24.5 -36.5t-36.5 -24.5t-44 -9q-24 0 -45 9t-37 24.5t-25 36.5t-9 46q0 24 9 45t25 36t37 24t45 9q23 0 44 -9t36.5 -24t24.5 -36t9 -45zM166 870q0 35 25 59.5t61 24.5q35 0 59.5 -24.5t24.5 -59.5v-806q0 -35 -24.5 -59.5t-59.5 -24.5 q-36 0 -61 24.5t-25 59.5v806z" glyph-name="i" horiz-adv-x="504" unicode="i"/><glyph d="M-246 -412q0 33 23 54.5t53 21.5q35 0 56 -24q26 -27 60 -41.5t70 -14.5q90 0 128 65t38 179v1042q0 35 24.5 59.5t59.5 24.5t59.5 -24.5t24.5 -59.5v-1046q0 -187 -83.5 -287.5t-244.5 -100.5q-69 0 -133.5 26.5t-112.5 73.5q-11 11 -16.5 24.5t-5.5 27.5zM380 1314 q0 -25 -9 -46t-24.5 -36.5t-36.5 -24.5t-44 -9q-24 0 -45 9t-36 24.5t-24 36.5t-9 46q0 24 9 45t24 36t36 24t45 9q23 0 44 -9t36.5 -24t24.5 -36t9 -45z" glyph-name="j" horiz-adv-x="510" unicode="j"/><glyph d="M322 506l454 428q12 11 26 17.5t32 6.5q32 0 55 -22.5t23 -55.5q0 -20 -9 -35t-21 -27l-356 -318l414 -382q26 -26 26 -58q0 -33 -24.5 -56.5t-57.5 -23.5q-34 0 -58 24l-504 502v-442q0 -35 -24.5 -59.5t-59.5 -24.5t-59.5 24.5t-24.5 59.5v1368q0 35 24.5 59.5 t59.5 24.5t59.5 -24.5t24.5 -59.5v-926z" glyph-name="k" horiz-adv-x="1000" unicode="k"/><glyph d="M164 1432q0 35 24.5 59.5t59.5 24.5t60.5 -24.5t25.5 -59.5v-1368q0 -35 -25.5 -59.5t-60.5 -24.5t-59.5 24.5t-24.5 59.5v1368z" glyph-name="l" horiz-adv-x="498" unicode="l"/><glyph d="M776 558q0 53 -17 98.5t-47 78.5t-71.5 52t-90.5 19q-50 0 -91.5 -18t-71.5 -50.5t-46.5 -77t-16.5 -96.5v-500q0 -35 -24.5 -59.5t-59.5 -24.5t-59.5 24.5t-24.5 59.5v806q0 35 24.5 59.5t59.5 24.5t59.5 -24.5t24.5 -59.5v-48q51 68 120.5 100t157.5 32q94 0 173 -46 t123 -132q56 85 136.5 131.5t187.5 46.5q70 0 132.5 -25t109 -71.5t73.5 -113.5t27 -152v-528q0 -35 -24.5 -59.5t-59.5 -24.5t-59.5 24.5t-24.5 59.5v494q0 53 -17 98.5t-47 78.5t-71.5 52t-90.5 19q-50 0 -91.5 -19t-71.5 -52t-46.5 -78.5t-16.5 -98.5v-494 q0 -35 -24.5 -59.5t-59.5 -24.5t-59.5 24.5t-24.5 59.5v494z" glyph-name="m" horiz-adv-x="1710" unicode="m"/><glyph d="M324 822q50 68 120 100t158 32q68 0 130 -24.5t109 -71t75 -113t28 -149.5v-532q0 -35 -24.5 -59.5t-59.5 -24.5t-59.5 24.5t-24.5 59.5v494q0 53 -17 98.5t-47 78.5t-71.5 52t-90.5 19q-50 0 -91.5 -18t-71.5 -50t-46.5 -76t-16.5 -96v-502q0 -35 -24.5 -59.5 t-59.5 -24.5t-59.5 24.5t-24.5 59.5v806q0 35 24.5 59.5t59.5 24.5t59.5 -24.5t24.5 -59.5v-48z" glyph-name="n" horiz-adv-x="1090" unicode="n"/><glyph d="M260 468q0 -72 26 -133t71.5 -105t107.5 -69t133 -25t133 25t108 69t72.5 105t26.5 133t-26.5 132.5t-72.5 104.5t-108 68.5t-133 24.5t-133 -24.5t-107.5 -68.5t-71.5 -104.5t-26 -132.5zM90 468q0 104 39.5 193t108.5 154t161.5 102t198.5 37t198.5 -37t161.5 -102 t108.5 -154t39.5 -193q0 -105 -39.5 -194.5t-108.5 -154.5t-161.5 -102t-198.5 -37t-198.5 37t-161.5 102t-108.5 154.5t-39.5 194.5z" glyph-name="o" horiz-adv-x="1196" unicode="o"/><glyph d="M156 870q0 35 24.5 59.5t59.5 24.5t59.5 -24.5t24.5 -59.5v-104q60 94 157 141t219 47q100 0 188 -37t154 -102t104 -154t38 -193q0 -105 -38 -194.5t-104 -154.5t-154 -102t-188 -37q-122 0 -219 48t-157 140v-650q0 -35 -24.5 -59.5t-59.5 -24.5t-59.5 24.5t-24.5 59.5 v1352zM328 468q0 -73 27.5 -135t74 -107.5t109 -71.5t133.5 -26q70 0 133 26t109.5 71.5t74 107.5t27.5 135q0 72 -27.5 134t-74 107t-109.5 71t-133 26q-71 0 -133.5 -26t-109 -71t-74 -107t-27.5 -134z" glyph-name="p" horiz-adv-x="1274" unicode="p"/><glyph d="M1118 -482q0 -35 -24.5 -59.5t-59.5 -24.5t-59.5 24.5t-24.5 59.5v650q-60 -92 -157.5 -140t-218.5 -48q-100 0 -188 37t-154 102t-104 154.5t-38 194.5q0 104 38 193t104 154t154 102t188 37q121 0 217.5 -47t158.5 -141v104q0 35 24.5 59.5t59.5 24.5t59.5 -24.5 t24.5 -59.5v-1352zM944 468q0 72 -27 134t-73.5 107t-109 71t-132.5 26q-71 0 -134 -26t-109.5 -71t-73.5 -107t-27 -134q0 -73 27 -135t73.5 -107.5t109.5 -71.5t134 -26q70 0 132.5 26t109 71.5t73.5 107.5t27 135z" glyph-name="q" horiz-adv-x="1274" unicode="q"/><glyph d="M240 -20q-35 0 -59.5 24.5t-24.5 59.5v806q0 35 24.5 59.5t59.5 24.5t59.5 -24.5t24.5 -59.5v-60q48 72 114 108t144 36q27 0 54.5 -3.5t49.5 -13t36 -26.5t14 -43q0 -32 -23 -54t-55 -22q-29 0 -54 8t-54 8q-49 0 -90.5 -20.5t-71.5 -56t-47 -82.5t-17 -99v-486 q0 -35 -24.5 -59.5t-59.5 -24.5z" glyph-name="r" horiz-adv-x="764" unicode="r"/><glyph d="M386 -20q-88 0 -164.5 44t-129.5 116q-9 12 -15.5 23.5t-6.5 28.5q0 30 21 51t51 21q20 0 35.5 -8t26.5 -22q35 -47 78.5 -75.5t93.5 -28.5q37 0 67 11t50.5 30t31.5 44.5t11 54.5q0 33 -10 58.5t-32 46.5t-57 40.5t-85 40.5q-53 22 -96.5 48t-74 57.5t-47 69t-16.5 81.5 q0 53 20.5 97.5t56.5 76.5t84.5 50t104.5 18q68 0 127 -28t101 -76q8 -9 12 -21.5t4 -24.5q0 -27 -20 -46.5t-50 -19.5q-17 0 -28 5.5t-22 16.5q-21 21 -48.5 34.5t-59.5 13.5q-51 0 -81.5 -25.5t-30.5 -66.5q0 -26 9.5 -46t30.5 -37.5t53 -33.5t77 -35q132 -54 189 -126.5 t57 -163.5q0 -61 -20.5 -114.5t-60.5 -93.5t-99.5 -63t-137.5 -23z" glyph-name="s" unicode="s"/><glyph d="M564 936q32 0 55 -23t23 -55q0 -33 -23 -55.5t-55 -22.5h-182v-716q0 -35 -24.5 -59.5t-59.5 -24.5q-36 0 -61 24.5t-25 59.5v716h-100q-32 0 -55 22.5t-23 55.5q0 32 23 55t55 23h100v198q0 35 25 59.5t61 24.5q35 0 59.5 -24.5t24.5 -59.5v-198h182z" glyph-name="t" horiz-adv-x="666" unicode="t"/><glyph d="M768 114q-50 -68 -120 -101t-158 -33q-68 0 -130 24.5t-109 71t-75 113t-28 149.5v532q0 35 24.5 59.5t59.5 24.5t59.5 -24.5t24.5 -59.5v-494q0 -53 16.5 -98t46.5 -78.5t71.5 -52.5t91.5 -19q49 0 90.5 18t71.5 50t47 76t17 96v502q0 35 24.5 59.5t59.5 24.5 t59.5 -24.5t24.5 -59.5v-806q0 -35 -24.5 -59.5t-59.5 -24.5t-59.5 24.5t-24.5 59.5v50z" glyph-name="u" horiz-adv-x="1092" unicode="u"/><glyph d="M482 -22q-31 0 -44 32l-372 840q-3 8 -3.5 15t-0.5 15q0 35 22.5 57.5t55.5 22.5q29 0 47.5 -14t26.5 -32l268 -654l270 654q9 21 29.5 33.5t44.5 12.5q33 0 55.5 -22.5t22.5 -57.5q0 -15 -6 -30l-372 -842q-12 -30 -44 -30z" glyph-name="v" horiz-adv-x="966" unicode="v"/><glyph d="M502 8q-6 -15 -17.5 -24.5t-26.5 -9.5q-17 0 -27.5 9t-16.5 21l-364 846q-6 12 -6 32q0 33 22.5 55.5t55.5 22.5q24 0 45 -12.5t29 -33.5l262 -650l266 662q6 15 17.5 24.5t26.5 9.5q17 0 28.5 -9.5t17.5 -24.5l266 -662l260 650q9 21 29.5 33.5t44.5 12.5 q33 0 55.5 -22.5t22.5 -55.5q0 -20 -6 -32l-362 -846q-6 -12 -17.5 -21t-26.5 -9q-17 0 -28.5 9.5t-17.5 24.5l-266 670z" glyph-name="w" horiz-adv-x="1538" unicode="w"/><glyph d="M206 16q-12 -15 -30 -25.5t-38 -10.5q-33 0 -55.5 22.5t-22.5 55.5q0 28 14 48l284 380l-254 346q-16 22 -16 50q0 32 21.5 55t56.5 23q41 0 62 -30l236 -324l238 324q11 14 26.5 22t35.5 8q35 0 56.5 -23t21.5 -55q0 -28 -16 -50l-254 -346l284 -382q14 -17 14 -46 q0 -33 -22.5 -55.5t-55.5 -22.5q-21 0 -38.5 10.5t-29.5 27.5l-260 346z" glyph-name="x" horiz-adv-x="930" unicode="x"/><glyph d="M70 876q0 36 22.5 60t57.5 24q58 0 82 -58l258 -690l272 686q11 26 30 44t48 18q36 0 61 -24t25 -60q0 -13 -6 -28l-550 -1380q-9 -24 -31 -40t-51 -16q-36 0 -59 23.5t-23 58.5q0 11 1.5 20.5t6.5 17.5l192 482l-328 824q-3 9 -5.5 19t-2.5 19z" glyph-name="y" horiz-adv-x="996" unicode="y"/><glyph d="M54 30q0 10 6 22l418 728h-302q-32 0 -55 22.5t-23 55.5q0 32 23 55t55 23h530q14 0 24 -10t10 -24q0 -6 -1.5 -9.5t-4.5 -8.5l-428 -728h406q33 0 55.5 -23t22.5 -55q0 -33 -22.5 -55.5t-55.5 -22.5h-626q-15 0 -23.5 8t-8.5 22z" glyph-name="z" horiz-adv-x="830" unicode="z"/><glyph d="M146 620q0 18 22 24q92 32 134 98t42 172v260q0 72 20.5 132t58 103t91.5 67t122 24h38q29 0 49.5 -21t20.5 -51q0 -29 -20.5 -49.5t-49.5 -20.5q-44 0 -74.5 -15.5t-50 -43t-28.5 -66.5t-9 -85v-196q0 -53 -8.5 -100.5t-29 -89.5t-54.5 -78t-86 -64q52 -29 86 -65.5 t54.5 -78.5t29 -89.5t8.5 -98.5v-198q0 -47 9.5 -85.5t29 -66t50 -43t73.5 -15.5q29 0 49.5 -20.5t20.5 -49.5t-20.5 -49.5t-49.5 -20.5h-38q-68 0 -122 24t-91.5 67t-58 102.5t-20.5 130.5v260q0 106 -42 172t-134 98q-22 6 -22 26z" glyph-name="braceleft" horiz-adv-x="792" unicode="{"/><glyph d="M224 1480q0 32 21 54t53 22t54 -22t22 -54v-1824q0 -32 -22 -54t-54 -22t-53 22t-21 54v1824z" glyph-name="bar" horiz-adv-x="598" unicode="|"/><glyph d="M646 620q0 -20 -22 -26q-92 -32 -134 -98t-42 -172v-260q0 -71 -20.5 -130.5t-58 -102.5t-92 -67t-121.5 -24h-38q-29 0 -49.5 20.5t-20.5 49.5t20.5 49.5t49.5 20.5q43 0 73.5 15.5t50 43t29 66t9.5 85.5v198q0 51 8.5 98.5t29 89.5t54.5 78.5t86 65.5q-52 28 -86 64 t-54.5 78t-29 89.5t-8.5 100.5v196q0 46 -9 85t-28.5 66.5t-50.5 43t-74 15.5q-29 0 -49.5 20.5t-20.5 49.5q0 30 20.5 51t49.5 21h38q67 0 121.5 -24t92 -67t58 -103t20.5 -132v-260q0 -106 42 -172t134 -98q22 -6 22 -24z" glyph-name="braceright" horiz-adv-x="792" unicode="}"/><glyph d="M616 566q-27 23 -52.5 43.5t-50.5 35.5t-50 24t-51 9q-35 0 -59.5 -14.5t-40.5 -37t-25.5 -49t-14.5 -51.5q-6 -30 -30 -48t-50 -18q-14 0 -28 5t-25.5 15t-18 24.5t-4.5 33.5q7 63 30.5 117t60.5 94t85.5 62.5t107.5 22.5q54 0 116 -20t128 -76q53 -45 95.5 -68.5 t86.5 -23.5q35 0 59.5 14.5t40.5 37t25.5 49t14.5 51.5q6 30 30 48t50 18q13 0 27.5 -5t26 -15t18 -24.5t4.5 -33.5q-8 -63 -31 -117t-60 -94t-86 -62.5t-107 -22.5q-62 0 -119.5 18.5t-102.5 57.5z" glyph-name="asciitilde" horiz-adv-x="1240" unicode="~"/><glyph glyph-name="uni00A0" horiz-adv-x="600"/><glyph d="M428 836q0 -25 -9 -46t-25.5 -36.5t-38.5 -24.5t-47 -9t-46.5 9t-37.5 24.5t-25 36.5t-9 46t9 46t25 36.5t37.5 24.5t46.5 9t47 -9t38.5 -24.5t25.5 -36.5t9 -46zM400 -398q0 -39 -26.5 -65.5t-65.5 -26.5q-19 0 -35.5 7t-29 19.5t-20 29t-7.5 36.5v898q0 38 27 65t65 27 q19 0 36 -7.5t29.5 -20t19.5 -29t7 -35.5v-898z" glyph-name="exclamdown" horiz-adv-x="616" unicode="¡"/><glyph d="M90 468q0 94 33 176.5t90.5 146.5t136 106t170.5 55v114q0 26 18.5 45t45.5 19t46.5 -19t19.5 -45v-110q72 -8 137.5 -31.5t122.5 -68.5q17 -14 26.5 -29.5t9.5 -36.5q0 -33 -22 -55.5t-54 -22.5q-20 0 -36.5 9t-33.5 21q-39 30 -92.5 46t-107.5 16q-71 0 -133 -26 t-108 -71t-72.5 -106.5t-26.5 -132.5q0 -72 26.5 -133.5t72.5 -106.5t108 -70.5t133 -25.5q54 0 108 15.5t92 44.5q17 12 31.5 21t34.5 9q33 0 56.5 -22.5t23.5 -55.5q0 -21 -10 -36.5t-28 -29.5q-59 -44 -123.5 -68t-138.5 -32v-120q0 -27 -19 -46.5t-45 -19.5 q-27 0 -46.5 19.5t-19.5 46.5v124q-90 13 -168 55.5t-135 107t-90 147t-33 176.5z" glyph-name="cent" horiz-adv-x="1004" unicode="¢"/><glyph d="M150 30q0 14 10 24q77 88 120.5 199.5t43.5 232.5v132h-146q-23 0 -39.5 16.5t-16.5 39.5q0 24 16.5 40t39.5 16h146v308q0 81 24 151.5t71 122.5t116 82t159 30q111 0 190.5 -40t141.5 -122q8 -11 11 -24.5t3 -25.5q0 -30 -22 -53t-54 -23q-20 0 -35 10t-27 24 q-35 39 -82 62.5t-110 23.5q-51 0 -89 -18.5t-63 -50t-37.5 -75t-12.5 -92.5v-290h292q24 0 40 -16t16 -40q0 -23 -16 -39.5t-40 -16.5h-292v-102q0 -56 -5.5 -102t-16 -87.5t-26.5 -80t-38 -78.5h594q35 0 59.5 -24.5t24.5 -59.5t-24.5 -59.5t-59.5 -24.5h-836q-12 0 -21 9 t-9 21z" glyph-name="sterling" horiz-adv-x="1186" unicode="£"/><glyph d="M272 664q0 66 18.5 126.5t53.5 111.5l-124 124q-15 15 -28.5 33.5t-13.5 42.5q0 36 25 59t61 23q20 0 37 -10t31 -24l128 -130q51 38 114 59t134 21t134 -21t116 -59l126 130q14 14 31 24t37 10q39 0 62.5 -24.5t23.5 -59.5q0 -24 -13.5 -41.5t-28.5 -32.5l-124 -124 q35 -51 53.5 -111.5t18.5 -126.5q0 -68 -18.5 -128.5t-53.5 -111.5l124 -124q15 -15 28.5 -33.5t13.5 -44.5q0 -33 -23.5 -56.5t-58.5 -23.5q-23 0 -40 9.5t-32 24.5l-126 130q-53 -38 -116 -59t-134 -21t-134 21t-114 59l-128 -130q-14 -15 -31.5 -24.5t-40.5 -9.5 q-35 0 -58.5 23.5t-23.5 58.5q0 24 13.5 42.5t28.5 33.5l124 124q-35 51 -53.5 112.5t-18.5 127.5zM428 664q0 -62 21 -115t58.5 -91.5t88.5 -60t112 -21.5t112 21.5t88.5 60t58.5 91.5t21 115q0 61 -21 113.5t-58.5 91t-88.5 60t-112 21.5t-112 -21.5t-88.5 -60t-58.5 -91 t-21 -113.5z" glyph-name="currency" horiz-adv-x="1418" unicode="¤"/><glyph d="M170 560q-21 0 -35.5 13.5t-14.5 34.5q0 23 14.5 36.5t35.5 13.5h874q21 0 35.5 -13.5t14.5 -36.5q0 -21 -14.5 -34.5t-35.5 -13.5h-874zM1044 436q21 0 35.5 -13.5t14.5 -36.5q0 -21 -14.5 -34.5t-35.5 -13.5h-874q-21 0 -35.5 13.5t-14.5 34.5q0 23 14.5 36.5 t35.5 13.5h874zM610 -20q-20 0 -36.5 7.5t-29 20t-19.5 29t-7 35.5v492l-452 716q-6 9 -9 21.5t-3 24.5q0 19 7.5 36.5t20 30t29.5 20t37 7.5q29 0 50 -18t36 -42l376 -620l376 620q15 24 35.5 42t50.5 18q19 0 36 -7.5t30 -20t20.5 -30t7.5 -36.5q0 -12 -3 -24.5t-9 -21.5 l-452 -716v-492q0 -38 -27 -65t-65 -27z" glyph-name="yen" horiz-adv-x="1214" unicode="¥"/><glyph d="M224 1324q0 32 21 53t53 21t54 -21t22 -53v-538q0 -32 -22 -54t-54 -22t-53 22t-21 54v538zM224 388q0 32 21 53t53 21t54 -21t22 -53v-538q0 -32 -22 -53t-54 -21t-53 21t-21 53v538z" glyph-name="brokenbar" horiz-adv-x="598" unicode="¦"/><glyph d="M262 -40q0 29 19.5 48.5t48.5 19.5q15 0 29 -7t25 -19q24 -29 57.5 -44.5t74.5 -15.5q29 0 54.5 8.5t44.5 25t30 39t11 51.5q0 64 -52 110.5t-148 91.5q-133 62 -204.5 150t-71.5 210q0 50 17 95t48 81.5t75 62.5t98 39q-91 51 -139.5 114.5t-48.5 149.5q0 54 20.5 100.5 t58 80.5t90 53.5t117.5 19.5q77 0 140 -34t104 -84q14 -17 14 -42q0 -29 -19.5 -48.5t-48.5 -19.5q-18 0 -30.5 7.5t-23.5 18.5q-27 29 -57.5 43.5t-66.5 14.5q-59 0 -95.5 -32.5t-36.5 -83.5q0 -57 49.5 -101.5t146.5 -88.5q134 -60 205 -150t71 -212q0 -54 -16 -100.5 t-46 -82.5t-73.5 -61.5t-98.5 -37.5q95 -53 141.5 -117t46.5 -149q0 -55 -21.5 -102.5t-60.5 -83t-93 -56t-119 -20.5q-72 0 -136.5 29t-109.5 79q-9 11 -14.5 23t-5.5 27zM338 620q0 -41 14.5 -75.5t40 -59t59.5 -38t72 -13.5t72 13.5t59.5 38t40 59t14.5 75.5 q0 42 -14.5 76.5t-40 59.5t-59.5 38.5t-72 13.5t-72 -13.5t-59.5 -38.5t-40 -59.5t-14.5 -76.5z" glyph-name="section" horiz-adv-x="1042" unicode="§"/><glyph d="M214 1198q-21 0 -39.5 7.5t-32.5 21t-22 32t-8 39.5q0 20 8 38t22 31.5t32.5 21t39.5 7.5q20 0 38.5 -7.5t32 -21t21.5 -31.5t8 -38q0 -21 -8 -39.5t-21.5 -32t-32 -21t-38.5 -7.5zM594 1198q-21 0 -39.5 7.5t-32 21t-21 32t-7.5 39.5q0 20 7.5 38t21 31.5t32 21 t39.5 7.5t39.5 -7.5t32.5 -21t22 -31.5t8 -38q0 -21 -8 -39.5t-22 -32t-32.5 -21t-39.5 -7.5z" glyph-name="dieresis" horiz-adv-x="808" unicode="¨"/><glyph d="M110 700q0 100 26 192.5t73 173t113 146.5t146 113t172 73t192 26q99 0 191.5 -26t172.5 -73t146 -113t113 -146.5t73 -173t26 -192.5t-26 -192.5t-73 -173t-113 -146.5t-146 -113t-172.5 -73t-191.5 -26q-100 0 -192 26t-172 73t-146 113t-113 146.5t-73 173t-26 192.5z M204 700q0 -88 22.5 -169.5t63.5 -152t99 -128.5t127.5 -99.5t149.5 -64t166 -22.5q130 0 244 50t199.5 136t135 202t49.5 248t-49.5 248t-135 202t-199.5 136t-244 50t-244 -50t-199.5 -136t-135 -202t-49.5 -248zM466 704q0 80 31.5 150.5t85.5 123t125.5 82.5t151.5 30 q63 0 120.5 -18.5t105.5 -51.5q28 -19 28 -54q0 -26 -18.5 -44t-45.5 -18q-14 0 -24.5 5t-21.5 11q-32 21 -67 33.5t-73 12.5q-53 0 -99.5 -20t-81 -55.5t-54 -83.5t-19.5 -103q0 -56 19.5 -104.5t54 -84t81 -55.5t99.5 -20q38 0 74 12.5t66 33.5q11 8 21.5 13t24.5 5 q27 0 45.5 -19t18.5 -45q0 -33 -28 -52q-50 -36 -105.5 -53t-120.5 -17q-80 0 -151.5 30t-125.5 82t-85.5 122.5t-31.5 151.5z" glyph-name="copyright" horiz-adv-x="1666" unicode="©"/><glyph d="M800 770q0 -29 -20.5 -49.5t-49.5 -20.5q-30 0 -51 20.5t-21 49.5v48q-42 -54 -108.5 -86t-143.5 -32q-73 0 -136.5 28t-111 76t-75 113.5t-27.5 140.5q0 74 27.5 139t75 113t111 76t136.5 28q77 0 143.5 -32t108.5 -86v48q0 29 21 49.5t51 20.5q29 0 49.5 -20.5 t20.5 -49.5v-574zM654 1058q0 46 -18 87.5t-49.5 72t-73 48.5t-87.5 18q-47 0 -88 -18t-72.5 -48.5t-49.5 -72t-18 -87.5q0 -47 18 -88.5t49.5 -72.5t72.5 -49t88 -18q46 0 87.5 18t73 49t49.5 72.5t18 88.5z" glyph-name="ordfeminine" horiz-adv-x="892" unicode="ª"/><glyph d="M596 400q12 -9 20 -23t8 -31q0 -27 -18.5 -46.5t-45.5 -19.5q-17 0 -29 8.5t-23 17.5l-396 296q-5 3 -9.5 8t-4.5 14q0 8 4.5 12.5t9.5 7.5l406 306q9 6 18.5 11t23.5 5q27 0 45.5 -19.5t18.5 -46.5q0 -21 -12.5 -35.5t-27.5 -26.5l-294 -214zM1028 400q12 -9 20 -23 t8 -31q0 -27 -18.5 -46.5t-45.5 -19.5q-17 0 -29 8.5t-23 17.5l-396 296q-5 3 -9.5 8t-4.5 14q0 8 4.5 12.5t9.5 7.5l406 306q9 6 19.5 11t22.5 5q27 0 45.5 -19.5t18.5 -46.5q0 -21 -11.5 -35.5t-28.5 -26.5l-294 -214z" glyph-name="guillemotleft" horiz-adv-x="1170" unicode="«"/><glyph d="M934 732h-766q-32 0 -53 21t-21 53q0 30 21 52t53 22h864q32 0 54 -22t22 -54v-410q0 -36 -26 -61t-62 -25t-61 25t-25 61v338z" glyph-name="logicalnot" horiz-adv-x="1240" unicode="¬"/><glyph d="M172 590q-32 0 -53 21t-21 51q0 32 21 53t53 21h468q30 0 52 -21t22 -53q0 -30 -22 -51t-52 -21h-468z" glyph-name="uni00AD" horiz-adv-x="812" unicode="­"/><glyph d="M110 700q0 100 26 192.5t73 173t113 146.5t146 113t172 73t192 26q99 0 191.5 -26t172.5 -73t146 -113t113 -146.5t73 -173t26 -192.5t-26 -192.5t-73 -173t-113 -146.5t-146 -113t-172.5 -73t-191.5 -26q-100 0 -192 26t-172 73t-146 113t-113 146.5t-73 173t-26 192.5z M204 700q0 -88 22.5 -169.5t63.5 -152t99 -128.5t127.5 -99.5t149.5 -64t166 -22.5q130 0 244 50t199.5 136t135 202t49.5 248t-49.5 248t-135 202t-199.5 136t-244 50t-244 -50t-199.5 -136t-135 -202t-49.5 -248zM1174 410q12 -18 12 -38q0 -29 -19.5 -47.5t-46.5 -18.5 q-20 0 -34.5 10.5t-25.5 25.5l-254 368q-6 9 -6 16q0 20 20 20h20q71 0 114.5 28.5t43.5 87.5q0 62 -39 92t-107 30h-96v-610q0 -29 -19.5 -48.5t-48.5 -19.5t-48.5 19.5t-19.5 48.5v660q0 21 15.5 36.5t36.5 15.5h182q60 0 109.5 -15.5t84.5 -44t54.5 -70.5t19.5 -94 q0 -32 -8.5 -61.5t-26.5 -54.5t-46.5 -43.5t-68.5 -28.5z" glyph-name="registered" horiz-adv-x="1666" unicode="®"/><glyph d="M962 1354q24 0 40 -16t16 -40t-16 -40t-40 -16h-926q-24 0 -40 16t-16 40t16 40t40 16h926z" glyph-name="macron" horiz-adv-x="1000" unicode="¯"/><glyph d="M670 1158q0 -55 -21 -103t-57 -84t-84.5 -56.5t-103.5 -20.5t-103.5 20.5t-84.5 56.5t-57 84t-21 103t21 103.5t57 84.5t84.5 57t103.5 21t103.5 -21t84.5 -57t57 -84.5t21 -103.5zM258 1158q0 -32 11.5 -59.5t31 -47.5t46 -31.5t57.5 -11.5t58.5 11.5t47 31.5t31 47.5 t11.5 59.5t-11.5 60t-31 48.5t-47 32t-58.5 11.5t-57.5 -11.5t-46 -32t-31 -48.5t-11.5 -60z" glyph-name="degree" horiz-adv-x="810" unicode="°"/><glyph d="M202 76q-32 0 -53 21t-21 53t21 54t53 22h834q32 0 53 -22t21 -54t-21 -53t-53 -21h-834zM532 728h-338q-30 0 -51 21t-21 53q0 30 21 52t53 22h336v332q0 17 7 33.5t19 29t28 20t34 7.5t34 -7t28 -19t19 -28.5t7 -35.5v-332h338q30 0 52 -22t22 -52q0 -32 -22 -53 t-52 -21h-338v-330q0 -17 -7 -33t-19 -28t-28 -19.5t-34 -7.5q-38 0 -63 25t-25 63v330z" glyph-name="plusminus" horiz-adv-x="1240" unicode="±"/><glyph d="M96 510q0 6 2.5 11.5t5.5 8.5l318 414q42 54 68 108.5t26 99.5q0 62 -37.5 102t-106.5 40q-41 0 -81 -25t-67 -69q-19 -32 -54 -32q-26 0 -43 17t-17 43q0 24 16 46q48 65 110 104.5t136 39.5q66 0 118.5 -20t88.5 -55.5t55.5 -84t19.5 -104.5q0 -69 -32.5 -139.5 t-85.5 -136.5l-216 -270h306q26 0 44 -18.5t18 -45.5q0 -26 -18 -43t-44 -17h-502q-12 0 -20 7.5t-8 18.5z" glyph-name="uni00B2" unicode="²"/><glyph d="M110 1336q0 27 17.5 45.5t44.5 18.5h438q15 0 26.5 -11.5t11.5 -26.5q0 -8 -2.5 -14t-7.5 -14l-194 -298q116 -35 171 -109t55 -175q0 -54 -20 -106.5t-59.5 -93.5t-98.5 -66.5t-136 -25.5q-72 0 -141 29.5t-125 100.5q-20 23 -20 48q0 26 19.5 45t46.5 19q15 0 29 -8 t23 -20q65 -88 166 -88q38 0 70.5 13t56 35.5t36.5 53.5t13 68q0 81 -57.5 134t-170.5 56h-10q-12 0 -21 9t-9 21q0 8 4.5 16t13.5 20l172 262h-280q-27 0 -44.5 17.5t-17.5 44.5z" glyph-name="uni00B3" unicode="³"/><glyph d="M596 1418q0 -15 -5 -27t-17 -23l-250 -234q-9 -9 -20.5 -14.5t-25.5 -5.5q-27 0 -46.5 18.5t-19.5 45.5q0 18 7 29.5t19 22.5l242 230q12 12 24.5 17t27.5 5q26 0 45 -18.5t19 -45.5z" glyph-name="acute" horiz-adv-x="808" unicode="´"/><glyph d="M144 870q0 35 25 59.5t61 24.5q35 0 59.5 -24.5t24.5 -59.5v-490q0 -59 24 -104t63 -76.5t88 -47.5t99 -16q52 0 100 19t85.5 52t60 78t22.5 97v488q0 35 24.5 59.5t59.5 24.5t59.5 -24.5t24.5 -59.5v-806q0 -35 -24.5 -59.5t-59.5 -24.5t-59.5 24.5t-24.5 59.5v54 q-48 -66 -120.5 -102t-161.5 -36q-75 0 -143.5 29.5t-116.5 80.5v-412q0 -35 -24.5 -59.5t-59.5 -24.5q-36 0 -61 24.5t-25 59.5v1192z" glyph-name="mu" horiz-adv-x="1170" unicode="µ"/><glyph d="M596 572h-40q-94 0 -178.5 27t-149 79.5t-102.5 130.5t-38 179q0 100 34.5 177t95 129.5t143 79t177.5 26.5h366q30 0 51 -21t21 -51v-1538q0 -30 -21.5 -51t-50.5 -21t-49.5 21t-20.5 51v1470h-96v-1470q0 -30 -21.5 -51t-50.5 -21t-49.5 21t-20.5 51v782z" glyph-name="paragraph" horiz-adv-x="1168" unicode="¶"/><glyph d="M180 646q0 25 9.5 46.5t26 38t38 26t46.5 9.5t46.5 -9.5t37.5 -26t25 -38t9 -46.5t-9 -46.5t-25 -37.5t-37.5 -25t-46.5 -9t-46.5 9t-38 25t-26 37.5t-9.5 46.5z" glyph-name="periodcentered" horiz-adv-x="600" unicode="·"/><glyph d="M162 -386q0 23 15.5 37.5t36.5 14.5q8 0 13 -1.5t13 -4.5l24 -12q17 -9 33 -12.5t33 -3.5q57 0 85.5 29.5t28.5 68.5q0 25 -11.5 45t-32.5 34.5t-49 22.5t-61 10q-20 0 -20 18q0 5 1 8t3 6l64 130h122l-46 -90q81 -21 123.5 -72.5t42.5 -117.5q0 -35 -14 -71t-43 -64.5 t-74.5 -46.5t-108.5 -18q-25 0 -56 5.5t-58 16.5t-45.5 28t-18.5 40z" glyph-name="cedilla" horiz-adv-x="808" unicode="¸"/><glyph d="M150 1208q0 18 10.5 33.5t27.5 24.5l260 150q6 3 12 5.5t14 2.5q17 0 27.5 -11.5t10.5 -28.5v-850q0 -30 -20.5 -50t-49.5 -20q-30 0 -50 20t-20 50v692l-132 -74q-8 -5 -15 -5.5t-15 -0.5q-26 0 -43 18t-17 44z" glyph-name="uni00B9" unicode="¹"/><glyph d="M810 1064q0 -74 -29.5 -138.5t-79 -112.5t-116 -75.5t-139.5 -27.5q-74 0 -140 27.5t-115.5 75.5t-79 112.5t-29.5 138.5q0 73 29.5 137.5t79 112.5t115.5 76t140 28q73 0 139.5 -28t116 -76t79 -112.5t29.5 -137.5zM222 1064q0 -47 17.5 -88.5t47.5 -72t71 -48t88 -17.5 t88 17.5t71 48t47.5 72t17.5 88.5q0 46 -17.5 87t-47.5 71.5t-71 48t-88 17.5t-88 -17.5t-71 -48t-47.5 -71.5t-17.5 -87z" glyph-name="ordmasculine" horiz-adv-x="894" unicode="º"/><glyph d="M446 624l-304 222q-14 9 -22 23t-8 31q0 27 18.5 46.5t45.5 19.5q14 0 23.5 -5t18.5 -11l406 -306q5 -3 9.5 -7.5t4.5 -12.5t-4.5 -12.5l-9.5 -9.5l-406 -306q-9 -6 -18.5 -11t-23.5 -5q-27 0 -45.5 19.5t-18.5 46.5q0 17 8 31t20 23zM878 624l-304 222q-14 9 -22 23 t-8 31q0 27 18.5 46.5t45.5 19.5q14 0 23.5 -5t18.5 -11l406 -306q5 -3 9.5 -7.5t4.5 -12.5t-4.5 -12.5l-9.5 -9.5l-406 -306q-9 -6 -18.5 -11t-23.5 -5q-27 0 -45.5 19.5t-18.5 46.5q0 17 8 31t20 23z" glyph-name="guillemotright" horiz-adv-x="1170" unicode="»"/><glyph d="M1222 1386q9 15 22.5 25.5t31.5 10.5q26 0 44 -18t18 -42q0 -15 -8 -28l-712 -1324q-8 -15 -22 -25.5t-32 -10.5q-24 0 -42 18t-18 42q0 8 1.5 16t4.5 14zM150 1208q0 18 10.5 33.5t27.5 24.5l260 150q6 3 12 5.5t14 2.5q17 0 27.5 -11.5t10.5 -28.5v-850 q0 -30 -20.5 -50t-49.5 -20q-30 0 -50 20t-20 50v692l-132 -74q-8 -5 -15 -5.5t-15 -0.5q-26 0 -43 18t-17 44zM1106 218q0 16 8 24l484 682q8 11 17 18.5t21 7.5q18 0 30 -12.5t12 -29.5v-600h60q26 0 44 -18t18 -44t-18 -43t-44 -17h-60v-126q0 -29 -19.5 -48.5 t-48.5 -19.5q-27 0 -47.5 19.5t-20.5 48.5v126h-404q-15 0 -23.5 9t-8.5 23zM1542 308v356l-244 -356h244z" glyph-name="onequarter" horiz-adv-x="1920" unicode="¼"/><glyph d="M1222 1386q9 15 22.5 25.5t31.5 10.5q26 0 44 -18t18 -42q0 -15 -8 -28l-712 -1324q-8 -15 -22 -25.5t-32 -10.5q-24 0 -42 18t-18 42q0 8 1.5 16t4.5 14zM150 1208q0 18 10.5 33.5t27.5 24.5l260 150q6 3 12 5.5t14 2.5q17 0 27.5 -11.5t10.5 -28.5v-850 q0 -30 -20.5 -50t-49.5 -20q-30 0 -50 20t-20 50v692l-132 -74q-8 -5 -15 -5.5t-15 -0.5q-26 0 -43 18t-17 44zM1192 36q0 6 2.5 11.5t5.5 8.5l318 414q42 54 68 108.5t26 99.5q0 62 -37.5 102t-106.5 40q-41 0 -81 -25t-67 -69q-19 -32 -54 -32q-26 0 -43 17t-17 43 q0 24 16 46q48 65 110 104.5t136 39.5q66 0 118.5 -20t88.5 -55.5t55.5 -84t19.5 -104.5q0 -69 -32.5 -139.5t-85.5 -136.5l-216 -270h306q26 0 44 -18.5t18 -45.5q0 -26 -18 -43t-44 -17h-502q-12 0 -20 7.5t-8 18.5z" glyph-name="onehalf" horiz-adv-x="1920" unicode="½"/><glyph d="M1222 1386q9 15 22.5 25.5t31.5 10.5q26 0 44 -18t18 -42q0 -15 -8 -28l-712 -1324q-8 -15 -22 -25.5t-32 -10.5q-24 0 -42 18t-18 42q0 8 1.5 16t4.5 14zM1106 216q0 16 8 24l484 682q8 11 17 18.5t21 7.5q18 0 30 -12.5t12 -29.5v-600h60q26 0 44 -18t18 -44t-18 -43 t-44 -17h-60v-126q0 -29 -19.5 -48.5t-48.5 -19.5q-27 0 -47.5 19.5t-20.5 48.5v126h-404q-15 0 -23.5 9t-8.5 23zM1542 306v356l-244 -356h244zM110 1336q0 27 17.5 45.5t44.5 18.5h438q15 0 26.5 -11.5t11.5 -26.5q0 -8 -2.5 -14t-7.5 -14l-194 -298q116 -35 171 -109 t55 -175q0 -54 -20 -106.5t-59.5 -93.5t-98.5 -66.5t-136 -25.5q-72 0 -141 29.5t-125 100.5q-20 23 -20 48q0 26 19.5 45t46.5 19q15 0 29 -8t23 -20q65 -88 166 -88q38 0 70.5 13t56 35.5t36.5 53.5t13 68q0 81 -57.5 134t-170.5 56h-10q-12 0 -21 9t-9 21q0 8 4.5 16 t13.5 20l172 262h-280q-27 0 -44.5 17.5t-17.5 44.5z" glyph-name="threequarters" horiz-adv-x="1920" unicode="¾"/><glyph d="M888 -274q0 -18 -8 -35t-22 -29q-72 -71 -165.5 -112.5t-194.5 -41.5q-91 0 -166.5 24t-130 67.5t-85 102.5t-30.5 130q0 122 84.5 216.5t241.5 165.5q74 33 114 69t40 83q0 44 -28.5 67t-69.5 23q-17 0 -34 -6t-32 -14q-8 -3 -18.5 -7.5t-21.5 -4.5q-29 0 -48.5 19.5 t-19.5 48.5q0 17 7 31t19 23q35 27 78 40.5t90 13.5q55 0 101.5 -16.5t80.5 -46t53 -69.5t19 -86q0 -39 -13.5 -78t-40.5 -75t-67 -67.5t-93 -55.5q-131 -60 -198.5 -124.5t-67.5 -147.5q0 -80 63 -126t175 -46q34 0 68.5 8t67.5 22.5t62.5 35t53.5 46.5q12 14 26 22t32 8 q32 0 55 -23t23 -55zM630 834q0 -25 -9 -46.5t-25 -38t-37.5 -26t-46.5 -9.5t-46.5 9.5t-38 26t-26 38t-9.5 46.5t9.5 46.5t26 37.5t38 25t46.5 9t46.5 -9t37.5 -25t25 -37.5t9 -46.5z" glyph-name="questiondown" horiz-adv-x="988" unicode="¿"/><glyph d="M640 1420q18 0 31 -11.5t19 -26.5l528 -1274q5 -11 7.5 -20t2.5 -20q0 -19 -7 -35t-18.5 -28t-27 -18.5t-31.5 -6.5q-29 0 -50 16t-32 42l-122 304h-602l-120 -304q-11 -26 -32 -42t-50 -16q-17 0 -32.5 6.5t-27.5 18.5t-19 27.5t-7 33.5q0 12 3.5 21.5t8.5 20.5 l528 1274q6 17 19 27.5t31 10.5zM400 494h478q-12 29 -30.5 76.5t-41.5 104t-47 117.5t-47 117.5t-42 104t-30 76.5zM382 1826q0 27 18.5 46.5t45.5 19.5q25 0 48 -20l244 -234q12 -11 19 -23t7 -29q0 -27 -18.5 -45.5t-45.5 -18.5q-14 0 -25.5 5t-20.5 13l-252 238 q-11 9 -15.5 21.5t-4.5 26.5z" glyph-name="Agrave" horiz-adv-x="1280" unicode="À"/><glyph d="M640 1420q18 0 31 -11.5t19 -26.5l528 -1274q5 -11 7.5 -20t2.5 -20q0 -19 -7 -35t-18.5 -28t-27 -18.5t-31.5 -6.5q-29 0 -50 16t-32 42l-122 304h-602l-120 -304q-11 -26 -32 -42t-50 -16q-17 0 -32.5 6.5t-27.5 18.5t-19 27.5t-7 33.5q0 12 3.5 21.5t8.5 20.5 l528 1274q6 17 19 27.5t31 10.5zM400 494h478q-12 29 -30.5 76.5t-41.5 104t-47 117.5t-47 117.5t-42 104t-30 76.5zM920 1826q0 -15 -5 -27t-17 -23l-250 -234q-9 -9 -20.5 -14.5t-25.5 -5.5q-27 0 -46.5 18.5t-19.5 45.5q0 18 7 29.5t19 22.5l242 230q12 12 24.5 17 t27.5 5q26 0 45 -18.5t19 -45.5z" glyph-name="Aacute" horiz-adv-x="1280" unicode="Á"/><glyph d="M640 1420q18 0 31 -11.5t19 -26.5l528 -1274q5 -11 7.5 -20t2.5 -20q0 -19 -7 -35t-18.5 -28t-27 -18.5t-31.5 -6.5q-29 0 -50 16t-32 42l-122 304h-602l-120 -304q-11 -26 -32 -42t-50 -16q-17 0 -32.5 6.5t-27.5 18.5t-19 27.5t-7 33.5q0 12 3.5 21.5t8.5 20.5 l528 1274q6 17 19 27.5t31 10.5zM400 494h478q-12 29 -30.5 76.5t-41.5 104t-47 117.5t-47 117.5t-42 104t-30 76.5zM450 1542q-21 -18 -50 -18q-27 0 -44.5 17.5t-17.5 44.5q0 18 7.5 31.5t18.5 22.5l244 234q6 6 13.5 12t18.5 6t18.5 -6t13.5 -12l244 -234 q11 -11 18.5 -23.5t7.5 -30.5q0 -27 -17.5 -44.5t-44.5 -17.5q-29 0 -50 18l-190 184z" glyph-name="Acircumflex" horiz-adv-x="1280" unicode="Â"/><glyph d="M640 1420q18 0 31 -11.5t19 -26.5l528 -1274q5 -11 7.5 -20t2.5 -20q0 -19 -7 -35t-18.5 -28t-27 -18.5t-31.5 -6.5q-29 0 -50 16t-32 42l-122 304h-602l-120 -304q-11 -26 -32 -42t-50 -16q-17 0 -32.5 6.5t-27.5 18.5t-19 27.5t-7 33.5q0 12 3.5 21.5t8.5 20.5 l528 1274q6 17 19 27.5t31 10.5zM400 494h478q-12 29 -30.5 76.5t-41.5 104t-47 117.5t-47 117.5t-42 104t-30 76.5zM508 1828q47 0 83.5 -17.5t68.5 -44.5q26 -23 47 -38.5t53 -15.5q31 0 44 15.5t22.5 34.5t22 34.5t41.5 15.5q11 0 23 -4t21.5 -11.5t15.5 -19t6 -25.5 q0 -37 -17.5 -68t-44.5 -53.5t-59.5 -35.5t-62.5 -13q-45 0 -81 15.5t-69 44.5q-29 24 -51 40t-51 16q-31 0 -44.5 -15.5t-23 -34.5t-22 -34.5t-40.5 -15.5q-11 0 -23 4.5t-21.5 12.5t-15.5 20t-6 27q0 37 18 67.5t45 52.5t59.5 34t61.5 12z" glyph-name="Atilde" horiz-adv-x="1280" unicode="Ã"/><glyph d="M640 1420q18 0 31 -11.5t19 -26.5l528 -1274q5 -11 7.5 -20t2.5 -20q0 -19 -7 -35t-18.5 -28t-27 -18.5t-31.5 -6.5q-29 0 -50 16t-32 42l-122 304h-602l-120 -304q-11 -26 -32 -42t-50 -16q-17 0 -32.5 6.5t-27.5 18.5t-19 27.5t-7 33.5q0 12 3.5 21.5t8.5 20.5 l528 1274q6 17 19 27.5t31 10.5zM400 494h478q-12 29 -30.5 76.5t-41.5 104t-47 117.5t-47 117.5t-42 104t-30 76.5zM450 1606q-21 0 -39.5 7.5t-32.5 21t-22 32t-8 39.5q0 20 8 38t22 31.5t32.5 21t39.5 7.5q20 0 38.5 -7.5t32 -21t21.5 -31.5t8 -38q0 -21 -8 -39.5 t-21.5 -32t-32 -21t-38.5 -7.5zM830 1606q-21 0 -39.5 7.5t-32 21t-21 32t-7.5 39.5q0 20 7.5 38t21 31.5t32 21t39.5 7.5t39.5 -7.5t32.5 -21t22 -31.5t8 -38q0 -21 -8 -39.5t-22 -32t-32.5 -21t-39.5 -7.5z" glyph-name="Adieresis" horiz-adv-x="1280" unicode="Ä"/><glyph d="M640 1420q18 0 31 -11.5t19 -26.5l528 -1274q5 -11 7.5 -20t2.5 -20q0 -19 -7 -35t-18.5 -28t-27 -18.5t-31.5 -6.5q-29 0 -50 16t-32 42l-122 304h-602l-120 -304q-11 -26 -32 -42t-50 -16q-17 0 -32.5 6.5t-27.5 18.5t-19 27.5t-7 33.5q0 12 3.5 21.5t8.5 20.5 l528 1274q6 17 19 27.5t31 10.5zM400 494h478q-12 29 -30.5 76.5t-41.5 104t-47 117.5t-47 117.5t-42 104t-30 76.5zM436 1706q0 43 16 79t44 62.5t65 41.5t79 15t79 -15t65 -41.5t44 -62.5t16 -79q0 -44 -16 -80.5t-44 -63t-65 -41.5t-79 -15t-79 15t-65 41.5t-44 63 t-16 80.5zM540 1706q0 -42 28 -71t72 -29q21 0 39 7.5t31.5 21t21.5 32t8 39.5q0 20 -8 38.5t-21.5 32t-31.5 21.5t-39 8q-44 0 -72 -29.5t-28 -70.5z" glyph-name="Aring" horiz-adv-x="1280" unicode="Å"/><glyph d="M852 336h-452l-172 -300q-14 -24 -33.5 -40t-48.5 -16q-36 0 -61 25t-25 61q0 14 5 27t13 27l714 1234q12 21 32 33.5t46 12.5h598q18 0 34 -7t28 -19t19 -28t7 -34q0 -36 -26 -61t-62 -25h-434v-364h386q35 0 59.5 -24.5t24.5 -59.5t-24.5 -59.5t-59.5 -24.5h-386v-520 h454q36 0 61 -26t25 -62t-25 -61t-61 -25h-548q-36 0 -62 25t-26 61v250zM852 1126l-368 -642h368v642z" glyph-name="AE" horiz-adv-x="1656" unicode="Æ"/><glyph d="M560 -386q0 21 16.5 37.5t37.5 16.5q9 0 17.5 -3.5t16.5 -8.5q39 -24 80 -24q51 0 80.5 29.5t29.5 70.5q0 23 -12 43t-32.5 34.5t-47.5 23t-58 9.5q-20 0 -20 18q0 5 1 8t3 6l52 110q-87 13 -167 44.5t-149 80t-125.5 112t-96.5 139t-62 161t-22 179.5q0 102 26.5 195.5 t75 173t116 144t149 110.5t175 70.5t194.5 24.5q140 0 262.5 -46.5t223.5 -131.5q14 -12 21 -30t7 -36t-7 -34.5t-19 -28.5t-28 -19.5t-34 -7.5q-17 0 -32 5.5t-26 16.5q-72 65 -167 101.5t-201 36.5q-114 0 -214.5 -40.5t-175.5 -113t-118.5 -172.5t-43.5 -218 q0 -119 43.5 -220t118.5 -174.5t175.5 -114.5t214.5 -41q106 0 200 35.5t168 100.5q25 22 58 22q18 0 34 -7t28 -19t19 -28t7 -34q0 -20 -7.5 -37t-22.5 -29q-98 -85 -218 -130t-260 -48l-32 -62q81 -21 123.5 -72.5t42.5 -117.5q0 -35 -14 -71t-43 -64.5t-74.5 -46.5 t-108.5 -18q-27 0 -58 5.5t-58 17t-44.5 28t-17.5 39.5z" glyph-name="Ccedilla" horiz-adv-x="1438" unicode="Ç"/><glyph d="M166 1312q0 18 7 34t19 28t28 19t34 7h524q18 0 34 -7t28 -19t19 -28t7 -34q0 -36 -26 -61t-62 -25h-428v-364h380q35 0 59.5 -24.5t24.5 -59.5t-24.5 -59.5t-59.5 -24.5h-380v-520h448q17 0 32.5 -7t27.5 -19t19 -28t7 -34t-7 -33.5t-19 -27.5t-27.5 -18.5t-32.5 -6.5 h-544q-36 0 -62 25t-26 61v1226zM304 1826q0 27 18.5 46.5t45.5 19.5q25 0 48 -20l244 -234q12 -11 19 -23t7 -29q0 -27 -18.5 -45.5t-45.5 -18.5q-14 0 -25.5 5t-20.5 13l-252 238q-11 9 -15.5 21.5t-4.5 26.5z" glyph-name="Egrave" horiz-adv-x="972" unicode="È"/><glyph d="M166 1312q0 18 7 34t19 28t28 19t34 7h524q18 0 34 -7t28 -19t19 -28t7 -34q0 -36 -26 -61t-62 -25h-428v-364h380q35 0 59.5 -24.5t24.5 -59.5t-24.5 -59.5t-59.5 -24.5h-380v-520h448q17 0 32.5 -7t27.5 -19t19 -28t7 -34t-7 -33.5t-19 -27.5t-27.5 -18.5t-32.5 -6.5 h-544q-36 0 -62 25t-26 61v1226zM710 1826q0 -15 -5 -27t-17 -23l-250 -234q-9 -9 -20.5 -14.5t-25.5 -5.5q-27 0 -46.5 18.5t-19.5 45.5q0 18 7 29.5t19 22.5l242 230q12 12 24.5 17t27.5 5q26 0 45 -18.5t19 -45.5z" glyph-name="Eacute" horiz-adv-x="972" unicode="É"/><glyph d="M166 1312q0 18 7 34t19 28t28 19t34 7h524q18 0 34 -7t28 -19t19 -28t7 -34q0 -36 -26 -61t-62 -25h-428v-364h380q35 0 59.5 -24.5t24.5 -59.5t-24.5 -59.5t-59.5 -24.5h-380v-520h448q17 0 32.5 -7t27.5 -19t19 -28t7 -34t-7 -33.5t-19 -27.5t-27.5 -18.5t-32.5 -6.5 h-544q-36 0 -62 25t-26 61v1226zM312 1542q-21 -18 -50 -18q-27 0 -44.5 17.5t-17.5 44.5q0 18 7.5 31.5t18.5 22.5l244 234q6 6 13.5 12t18.5 6t18.5 -6t13.5 -12l244 -234q11 -11 18.5 -23.5t7.5 -30.5q0 -27 -17.5 -44.5t-44.5 -17.5q-29 0 -50 18l-190 184z" glyph-name="Ecircumflex" horiz-adv-x="972" unicode="Ê"/><glyph d="M166 1312q0 18 7 34t19 28t28 19t34 7h524q18 0 34 -7t28 -19t19 -28t7 -34q0 -36 -26 -61t-62 -25h-428v-364h380q35 0 59.5 -24.5t24.5 -59.5t-24.5 -59.5t-59.5 -24.5h-380v-520h448q17 0 32.5 -7t27.5 -19t19 -28t7 -34t-7 -33.5t-19 -27.5t-27.5 -18.5t-32.5 -6.5 h-544q-36 0 -62 25t-26 61v1226zM312 1606q-21 0 -39.5 7.5t-32.5 21t-22 32t-8 39.5q0 20 8 38t22 31.5t32.5 21t39.5 7.5q20 0 38.5 -7.5t32 -21t21.5 -31.5t8 -38q0 -21 -8 -39.5t-21.5 -32t-32 -21t-38.5 -7.5zM692 1606q-21 0 -39.5 7.5t-32 21t-21 32t-7.5 39.5 q0 20 7.5 38t21 31.5t32 21t39.5 7.5t39.5 -7.5t32.5 -21t22 -31.5t8 -38q0 -21 -8 -39.5t-22 -32t-32.5 -21t-39.5 -7.5z" glyph-name="Edieresis" horiz-adv-x="972" unicode="Ë"/><glyph d="M370 72q0 -19 -7 -35.5t-19.5 -29t-29.5 -20t-36 -7.5q-38 0 -65 27t-27 65v1256q0 38 27 65t65 27q19 0 36 -7.5t29.5 -20t19.5 -29t7 -35.5v-1256zM4 1826q0 27 18.5 46.5t45.5 19.5q25 0 48 -20l244 -234q12 -11 19 -23t7 -29q0 -27 -18.5 -45.5t-45.5 -18.5 q-14 0 -25.5 5t-20.5 13l-252 238q-11 9 -15.5 21.5t-4.5 26.5z" glyph-name="Igrave" horiz-adv-x="558" unicode="Ì"/><glyph d="M370 72q0 -19 -7 -35.5t-19.5 -29t-29.5 -20t-36 -7.5q-38 0 -65 27t-27 65v1256q0 38 27 65t65 27q19 0 36 -7.5t29.5 -20t19.5 -29t7 -35.5v-1256zM552 1826q0 -15 -5 -27t-17 -23l-250 -234q-9 -9 -20.5 -14.5t-25.5 -5.5q-27 0 -46.5 18.5t-19.5 45.5q0 18 7 29.5 t19 22.5l242 230q12 12 24.5 17t27.5 5q26 0 45 -18.5t19 -45.5z" glyph-name="Iacute" horiz-adv-x="558" unicode="Í"/><glyph d="M370 72q0 -19 -7 -35.5t-19.5 -29t-29.5 -20t-36 -7.5q-38 0 -65 27t-27 65v1256q0 38 27 65t65 27q19 0 36 -7.5t29.5 -20t19.5 -29t7 -35.5v-1256zM88 1542q-21 -18 -50 -18q-27 0 -44.5 17.5t-17.5 44.5q0 18 7.5 31.5t18.5 22.5l244 234q6 6 13.5 12t18.5 6t18.5 -6 t13.5 -12l244 -234q11 -11 18.5 -23.5t7.5 -30.5q0 -27 -17.5 -44.5t-44.5 -17.5q-29 0 -50 18l-190 184z" glyph-name="Icircumflex" horiz-adv-x="558" unicode="Î"/><glyph d="M370 72q0 -19 -7 -35.5t-19.5 -29t-29.5 -20t-36 -7.5q-38 0 -65 27t-27 65v1256q0 38 27 65t65 27q19 0 36 -7.5t29.5 -20t19.5 -29t7 -35.5v-1256zM88 1606q-21 0 -39.5 7.5t-32.5 21t-22 32t-8 39.5q0 20 8 38t22 31.5t32.5 21t39.5 7.5q20 0 38.5 -7.5t32 -21 t21.5 -31.5t8 -38q0 -21 -8 -39.5t-21.5 -32t-32 -21t-38.5 -7.5zM468 1606q-21 0 -39.5 7.5t-32 21t-21 32t-7.5 39.5q0 20 7.5 38t21 31.5t32 21t39.5 7.5t39.5 -7.5t32.5 -21t22 -31.5t8 -38q0 -21 -8 -39.5t-22 -32t-32.5 -21t-39.5 -7.5z" glyph-name="Idieresis" horiz-adv-x="558" unicode="Ï"/><glyph d="M0 696q0 29 18.5 47.5t45.5 18.5h96v558q0 32 22.5 56t57.5 24h298q101 0 194 -22.5t173.5 -65t147 -103.5t113.5 -139t72.5 -171t25.5 -199t-25.5 -199t-72.5 -171t-113.5 -139t-147 -103.5t-173.5 -65t-194 -22.5h-298q-33 0 -56.5 22.5t-23.5 57.5v552h-96 q-27 0 -45.5 17.5t-18.5 46.5zM344 174h196q116 0 215 36.5t171 105t113 165.5t41 219q0 121 -41 218.5t-113 166t-171 105t-215 36.5h-196v-464h284q27 0 46.5 -18.5t19.5 -47.5t-19.5 -46.5t-46.5 -17.5h-284v-458z" glyph-name="Eth" horiz-adv-x="1366" unicode="Ð"/><glyph d="M1120 360v968q0 38 27 65t65 27t65 -27t27 -65v-1306q0 -20 -14 -33t-34 -13q-12 0 -21 5.5t-17 14.5l-868 1042v-966q0 -38 -27 -65t-65 -27q-20 0 -36.5 7.5t-29 20t-19.5 29t-7 35.5v1304q0 20 13 33t33 13q14 0 23 -5t17 -13zM602 1828q47 0 83.5 -17.5t68.5 -44.5 q26 -23 47 -38.5t53 -15.5q31 0 44 15.5t22.5 34.5t22 34.5t41.5 15.5q11 0 23 -4t21.5 -11.5t15.5 -19t6 -25.5q0 -37 -17.5 -68t-44.5 -53.5t-59.5 -35.5t-62.5 -13q-45 0 -81 15.5t-69 44.5q-29 24 -51 40t-51 16q-31 0 -44.5 -15.5t-23 -34.5t-22 -34.5t-40.5 -15.5 q-11 0 -23 4.5t-21.5 12.5t-15.5 20t-6 27q0 37 18 67.5t45 52.5t59.5 34t61.5 12z" glyph-name="Ntilde" horiz-adv-x="1470" unicode="Ñ"/><glyph d="M286 700q0 -119 43.5 -219.5t118.5 -173t175.5 -113t214.5 -40.5q113 0 213 40.5t175 113t118.5 173t43.5 219.5q0 118 -43.5 218.5t-118.5 173t-175 113.5t-213 41q-114 0 -214.5 -41t-175.5 -113.5t-118.5 -173t-43.5 -218.5zM102 700q0 154 58.5 285.5t159 228 t234 151.5t284.5 55q100 0 193.5 -25t175 -70.5t148.5 -110.5t115.5 -145t75 -173.5t26.5 -195.5q0 -155 -58.5 -286.5t-158.5 -228t-233.5 -151t-283.5 -54.5q-151 0 -284.5 54.5t-234 151t-159 228t-58.5 286.5zM584 1826q0 27 18.5 46.5t45.5 19.5q25 0 48 -20l244 -234 q12 -11 19 -23t7 -29q0 -27 -18.5 -45.5t-45.5 -18.5q-14 0 -25.5 5t-20.5 13l-252 238q-11 9 -15.5 21.5t-4.5 26.5z" glyph-name="Ograve" horiz-adv-x="1676" unicode="Ò"/><glyph d="M286 700q0 -119 43.5 -219.5t118.5 -173t175.5 -113t214.5 -40.5q113 0 213 40.5t175 113t118.5 173t43.5 219.5q0 118 -43.5 218.5t-118.5 173t-175 113.5t-213 41q-114 0 -214.5 -41t-175.5 -113.5t-118.5 -173t-43.5 -218.5zM102 700q0 154 58.5 285.5t159 228 t234 151.5t284.5 55q100 0 193.5 -25t175 -70.5t148.5 -110.5t115.5 -145t75 -173.5t26.5 -195.5q0 -155 -58.5 -286.5t-158.5 -228t-233.5 -151t-283.5 -54.5q-151 0 -284.5 54.5t-234 151t-159 228t-58.5 286.5zM1088 1826q0 -15 -5 -27t-17 -23l-250 -234 q-9 -9 -20.5 -14.5t-25.5 -5.5q-27 0 -46.5 18.5t-19.5 45.5q0 18 7 29.5t19 22.5l242 230q12 12 24.5 17t27.5 5q26 0 45 -18.5t19 -45.5z" glyph-name="Oacute" horiz-adv-x="1676" unicode="Ó"/><glyph d="M286 700q0 -119 43.5 -219.5t118.5 -173t175.5 -113t214.5 -40.5q113 0 213 40.5t175 113t118.5 173t43.5 219.5q0 118 -43.5 218.5t-118.5 173t-175 113.5t-213 41q-114 0 -214.5 -41t-175.5 -113.5t-118.5 -173t-43.5 -218.5zM102 700q0 154 58.5 285.5t159 228 t234 151.5t284.5 55q100 0 193.5 -25t175 -70.5t148.5 -110.5t115.5 -145t75 -173.5t26.5 -195.5q0 -155 -58.5 -286.5t-158.5 -228t-233.5 -151t-283.5 -54.5q-151 0 -284.5 54.5t-234 151t-159 228t-58.5 286.5zM646 1542q-21 -18 -50 -18q-27 0 -44.5 17.5t-17.5 44.5 q0 18 7.5 31.5t18.5 22.5l244 234q6 6 13.5 12t18.5 6t18.5 -6t13.5 -12l244 -234q11 -11 18.5 -23.5t7.5 -30.5q0 -27 -17.5 -44.5t-44.5 -17.5q-29 0 -50 18l-190 184z" glyph-name="Ocircumflex" horiz-adv-x="1676" unicode="Ô"/><glyph d="M286 700q0 -119 43.5 -219.5t118.5 -173t175.5 -113t214.5 -40.5q113 0 213 40.5t175 113t118.5 173t43.5 219.5q0 118 -43.5 218.5t-118.5 173t-175 113.5t-213 41q-114 0 -214.5 -41t-175.5 -113.5t-118.5 -173t-43.5 -218.5zM102 700q0 154 58.5 285.5t159 228 t234 151.5t284.5 55q100 0 193.5 -25t175 -70.5t148.5 -110.5t115.5 -145t75 -173.5t26.5 -195.5q0 -155 -58.5 -286.5t-158.5 -228t-233.5 -151t-283.5 -54.5q-151 0 -284.5 54.5t-234 151t-159 228t-58.5 286.5zM704 1828q47 0 83.5 -17.5t68.5 -44.5q26 -23 47 -38.5 t53 -15.5q31 0 44 15.5t22.5 34.5t22 34.5t41.5 15.5q11 0 23 -4t21.5 -11.5t15.5 -19t6 -25.5q0 -37 -17.5 -68t-44.5 -53.5t-59.5 -35.5t-62.5 -13q-45 0 -81 15.5t-69 44.5q-29 24 -51 40t-51 16q-31 0 -44.5 -15.5t-23 -34.5t-22 -34.5t-40.5 -15.5q-11 0 -23 4.5 t-21.5 12.5t-15.5 20t-6 27q0 37 18 67.5t45 52.5t59.5 34t61.5 12z" glyph-name="Otilde" horiz-adv-x="1676" unicode="Õ"/><glyph d="M286 700q0 -119 43.5 -219.5t118.5 -173t175.5 -113t214.5 -40.5q113 0 213 40.5t175 113t118.5 173t43.5 219.5q0 118 -43.5 218.5t-118.5 173t-175 113.5t-213 41q-114 0 -214.5 -41t-175.5 -113.5t-118.5 -173t-43.5 -218.5zM102 700q0 154 58.5 285.5t159 228 t234 151.5t284.5 55q100 0 193.5 -25t175 -70.5t148.5 -110.5t115.5 -145t75 -173.5t26.5 -195.5q0 -155 -58.5 -286.5t-158.5 -228t-233.5 -151t-283.5 -54.5q-151 0 -284.5 54.5t-234 151t-159 228t-58.5 286.5zM646 1606q-21 0 -39.5 7.5t-32.5 21t-22 32t-8 39.5 q0 20 8 38t22 31.5t32.5 21t39.5 7.5q20 0 38.5 -7.5t32 -21t21.5 -31.5t8 -38q0 -21 -8 -39.5t-21.5 -32t-32 -21t-38.5 -7.5zM1026 1606q-21 0 -39.5 7.5t-32 21t-21 32t-7.5 39.5q0 20 7.5 38t21 31.5t32 21t39.5 7.5t39.5 -7.5t32.5 -21t22 -31.5t8 -38q0 -21 -8 -39.5 t-22 -32t-32.5 -21t-39.5 -7.5z" glyph-name="Odieresis" horiz-adv-x="1676" unicode="Ö"/><glyph d="M508 672l-266 264q-15 14 -24.5 31.5t-9.5 40.5q0 35 23.5 58.5t58.5 23.5q36 0 62 -26l276 -274l264 264q14 14 31.5 25t40.5 11q35 0 58.5 -23.5t23.5 -58.5t-22 -60l-278 -276l266 -266q15 -15 24.5 -32t9.5 -38q0 -36 -23 -60t-59 -24t-62 26l-274 274l-266 -264 q-15 -15 -32 -25.5t-40 -10.5q-35 0 -58.5 23.5t-23.5 58.5t22 60z" glyph-name="multiply" horiz-adv-x="1254" unicode="×"/><glyph d="M102 698q0 103 26.5 197t75 174.5t116 146t149 112t175 71.5t194.5 25q81 0 158 -17t146 -49l116 200q9 15 23.5 25.5t34.5 10.5q27 0 45.5 -18t18.5 -44q0 -23 -14 -40l-112 -196q71 -49 129.5 -112.5t100.5 -140t65 -163.5t23 -182q0 -102 -26.5 -195.5t-75 -174 t-115.5 -146t-148.5 -112t-175 -71.5t-193.5 -25q-163 0 -306 64l-112 -196q-9 -17 -24.5 -27.5t-35.5 -10.5q-27 0 -44.5 18.5t-17.5 45.5q0 12 3.5 21.5t8.5 18.5l110 192q-72 48 -130.5 111.5t-100.5 140t-64.5 164t-22.5 182.5zM286 698q0 -71 16 -135t45 -120.5 t70 -104t91 -84.5q18 32 47.5 83t65.5 114t77 134t83 144t83 144t77 134t65.5 114t47.5 83q-51 21 -105 33.5t-111 12.5q-114 0 -214.5 -41.5t-175.5 -115t-118.5 -175t-43.5 -220.5zM838 148q113 0 213 41.5t175 115t118.5 174t43.5 219.5q0 71 -16 135.5t-45 121 t-70 103.5t-91 84l-546 -950q51 -21 105 -32.5t113 -11.5z" glyph-name="Oslash" horiz-adv-x="1676" unicode="Ø"/><glyph d="M648 154q66 0 121 22t94 65t61 106.5t22 146.5v834q0 38 27 65t65 27t65 -27t27 -65v-836q0 -122 -39.5 -217.5t-105.5 -161t-153.5 -99.5t-183.5 -34q-97 0 -184.5 34t-153.5 99.5t-105 161t-39 217.5v836q0 19 7 35.5t19.5 29t29 20t36.5 7.5q38 0 65 -27t27 -65v-834 q0 -83 22 -146.5t61 -106.5t94 -65t121 -22zM412 1826q0 27 18.5 46.5t45.5 19.5q25 0 48 -20l244 -234q12 -11 19 -23t7 -29q0 -27 -18.5 -45.5t-45.5 -18.5q-14 0 -25.5 5t-20.5 13l-252 238q-11 9 -15.5 21.5t-4.5 26.5z" glyph-name="Ugrave" horiz-adv-x="1296" unicode="Ù"/><glyph d="M648 154q66 0 121 22t94 65t61 106.5t22 146.5v834q0 38 27 65t65 27t65 -27t27 -65v-836q0 -122 -39.5 -217.5t-105.5 -161t-153.5 -99.5t-183.5 -34q-97 0 -184.5 34t-153.5 99.5t-105 161t-39 217.5v836q0 19 7 35.5t19.5 29t29 20t36.5 7.5q38 0 65 -27t27 -65v-834 q0 -83 22 -146.5t61 -106.5t94 -65t121 -22zM892 1826q0 -15 -5 -27t-17 -23l-250 -234q-9 -9 -20.5 -14.5t-25.5 -5.5q-27 0 -46.5 18.5t-19.5 45.5q0 18 7 29.5t19 22.5l242 230q12 12 24.5 17t27.5 5q26 0 45 -18.5t19 -45.5z" glyph-name="Uacute" horiz-adv-x="1296" unicode="Ú"/><glyph d="M648 154q66 0 121 22t94 65t61 106.5t22 146.5v834q0 38 27 65t65 27t65 -27t27 -65v-836q0 -122 -39.5 -217.5t-105.5 -161t-153.5 -99.5t-183.5 -34q-97 0 -184.5 34t-153.5 99.5t-105 161t-39 217.5v836q0 19 7 35.5t19.5 29t29 20t36.5 7.5q38 0 65 -27t27 -65v-834 q0 -83 22 -146.5t61 -106.5t94 -65t121 -22zM462 1542q-21 -18 -50 -18q-27 0 -44.5 17.5t-17.5 44.5q0 18 7.5 31.5t18.5 22.5l244 234q6 6 13.5 12t18.5 6t18.5 -6t13.5 -12l244 -234q11 -11 18.5 -23.5t7.5 -30.5q0 -27 -17.5 -44.5t-44.5 -17.5q-29 0 -50 18l-190 184z" glyph-name="Ucircumflex" horiz-adv-x="1296" unicode="Û"/><glyph d="M648 154q66 0 121 22t94 65t61 106.5t22 146.5v834q0 38 27 65t65 27t65 -27t27 -65v-836q0 -122 -39.5 -217.5t-105.5 -161t-153.5 -99.5t-183.5 -34q-97 0 -184.5 34t-153.5 99.5t-105 161t-39 217.5v836q0 19 7 35.5t19.5 29t29 20t36.5 7.5q38 0 65 -27t27 -65v-834 q0 -83 22 -146.5t61 -106.5t94 -65t121 -22zM458 1606q-21 0 -39.5 7.5t-32.5 21t-22 32t-8 39.5q0 20 8 38t22 31.5t32.5 21t39.5 7.5q20 0 38.5 -7.5t32 -21t21.5 -31.5t8 -38q0 -21 -8 -39.5t-21.5 -32t-32 -21t-38.5 -7.5zM838 1606q-21 0 -39.5 7.5t-32 21t-21 32 t-7.5 39.5q0 20 7.5 38t21 31.5t32 21t39.5 7.5t39.5 -7.5t32.5 -21t22 -31.5t8 -38q0 -21 -8 -39.5t-22 -32t-32.5 -21t-39.5 -7.5z" glyph-name="Udieresis" horiz-adv-x="1296" unicode="Ü"/><glyph d="M606 -20q-20 0 -36.5 7.5t-29 20t-19.5 29t-7 35.5v492l-452 716q-6 9 -9 21.5t-3 24.5q0 19 7.5 36.5t20 30t29.5 20t37 7.5q29 0 50 -18t36 -42l376 -620l376 620q15 24 35.5 42t50.5 18q19 0 36 -7.5t30 -20t20.5 -30t7.5 -36.5q0 -12 -3 -24.5t-9 -21.5l-452 -716 v-492q0 -38 -27 -65t-65 -27zM878 1826q0 -15 -5 -27t-17 -23l-250 -234q-9 -9 -20.5 -14.5t-25.5 -5.5q-27 0 -46.5 18.5t-19.5 45.5q0 18 7 29.5t19 22.5l242 230q12 12 24.5 17t27.5 5q26 0 45 -18.5t19 -45.5z" glyph-name="Yacute" horiz-adv-x="1214" unicode="Ý"/><glyph d="M350 72q0 -38 -27 -64t-65 -26q-39 0 -65.5 26t-26.5 64v1260q0 19 7 35.5t19.5 29t29 20t36.5 7.5q38 0 65 -27t27 -65v-192h142q112 0 200.5 -33.5t150 -91.5t93.5 -135.5t32 -165.5t-32 -165.5t-93.5 -135.5t-150 -91.5t-200.5 -33.5h-142v-216zM350 456h136 q66 0 121 18t94 51t61 81t22 108t-22 108t-61 81t-94 51t-121 18h-136v-516z" glyph-name="Thorn" horiz-adv-x="1042" unicode="Þ"/><glyph d="M412 84q0 33 22 54.5t52 21.5q15 0 30 -6q24 -12 52 -19t60 -7q61 0 110 21t82.5 59t51.5 90.5t18 115.5q0 62 -21 116t-63 96t-104.5 70t-145.5 38q-27 3 -44.5 24.5t-17.5 47.5q0 24 15 45t39 27q49 12 89 34.5t68.5 54t44.5 71t16 84.5q0 46 -16 87t-45.5 72.5t-72 50 t-94.5 18.5q-61 0 -104.5 -21t-72 -57t-42 -84t-13.5 -102v-1022q0 -35 -25.5 -59.5t-60.5 -24.5t-59.5 24.5t-24.5 59.5v1006q0 95 27.5 174t79.5 136t126 88.5t167 31.5q85 0 156.5 -30t123 -80.5t80 -117.5t28.5 -140q0 -105 -56 -189t-174 -129q87 -15 155 -51t115 -88 t71.5 -117.5t24.5 -139.5q0 -94 -29.5 -174t-85 -138.5t-136 -92t-183.5 -33.5q-21 0 -57 4t-71 15.5t-60.5 32t-25.5 52.5z" glyph-name="germandbls" horiz-adv-x="1150" unicode="ß"/><glyph d="M950 870q0 35 24.5 59.5t59.5 24.5t59.5 -24.5t24.5 -59.5v-806q0 -35 -24.5 -59.5t-59.5 -24.5t-59.5 24.5t-24.5 59.5v104q-62 -94 -158.5 -141t-217.5 -47q-100 0 -188 37t-154 102t-104 154.5t-38 194.5q0 104 38 193t104 154t154 102t188 37q121 0 218.5 -47 t157.5 -141v104zM944 468q0 72 -27 134t-73.5 107t-109 71t-132.5 26q-71 0 -134 -26t-109.5 -71t-73.5 -107t-27 -134q0 -73 27 -135t73.5 -107.5t109.5 -71.5t134 -26q70 0 132.5 26t109 71.5t73.5 107.5t27 135zM424 1378q0 27 18.5 46.5t45.5 19.5q25 0 48 -20l244 -234 q12 -11 19 -23t7 -29q0 -27 -18.5 -45.5t-45.5 -18.5q-14 0 -25.5 5t-20.5 13l-252 238q-11 9 -15.5 21.5t-4.5 26.5z" glyph-name="agrave" horiz-adv-x="1274" unicode="à"/><glyph d="M950 870q0 35 24.5 59.5t59.5 24.5t59.5 -24.5t24.5 -59.5v-806q0 -35 -24.5 -59.5t-59.5 -24.5t-59.5 24.5t-24.5 59.5v104q-62 -94 -158.5 -141t-217.5 -47q-100 0 -188 37t-154 102t-104 154.5t-38 194.5q0 104 38 193t104 154t154 102t188 37q121 0 218.5 -47 t157.5 -141v104zM944 468q0 72 -27 134t-73.5 107t-109 71t-132.5 26q-71 0 -134 -26t-109.5 -71t-73.5 -107t-27 -134q0 -73 27 -135t73.5 -107.5t109.5 -71.5t134 -26q70 0 132.5 26t109 71.5t73.5 107.5t27 135zM828 1378q0 -15 -5 -27t-17 -23l-250 -234 q-9 -9 -20.5 -14.5t-25.5 -5.5q-27 0 -46.5 18.5t-19.5 45.5q0 18 7 29.5t19 22.5l242 230q12 12 24.5 17t27.5 5q26 0 45 -18.5t19 -45.5z" glyph-name="aacute" horiz-adv-x="1274" unicode="á"/><glyph d="M950 870q0 35 24.5 59.5t59.5 24.5t59.5 -24.5t24.5 -59.5v-806q0 -35 -24.5 -59.5t-59.5 -24.5t-59.5 24.5t-24.5 59.5v104q-62 -94 -158.5 -141t-217.5 -47q-100 0 -188 37t-154 102t-104 154.5t-38 194.5q0 104 38 193t104 154t154 102t188 37q121 0 218.5 -47 t157.5 -141v104zM944 468q0 72 -27 134t-73.5 107t-109 71t-132.5 26q-71 0 -134 -26t-109.5 -71t-73.5 -107t-27 -134q0 -73 27 -135t73.5 -107.5t109.5 -71.5t134 -26q70 0 132.5 26t109 71.5t73.5 107.5t27 135zM444 1094q-21 -18 -50 -18q-27 0 -44.5 17.5t-17.5 44.5 q0 18 7.5 31.5t18.5 22.5l244 234q6 6 13.5 12t18.5 6t18.5 -6t13.5 -12l244 -234q11 -11 18.5 -23.5t7.5 -30.5q0 -27 -17.5 -44.5t-44.5 -17.5q-29 0 -50 18l-190 184z" glyph-name="acircumflex" horiz-adv-x="1274" unicode="â"/><glyph d="M950 870q0 35 24.5 59.5t59.5 24.5t59.5 -24.5t24.5 -59.5v-806q0 -35 -24.5 -59.5t-59.5 -24.5t-59.5 24.5t-24.5 59.5v104q-62 -94 -158.5 -141t-217.5 -47q-100 0 -188 37t-154 102t-104 154.5t-38 194.5q0 104 38 193t104 154t154 102t188 37q121 0 218.5 -47 t157.5 -141v104zM944 468q0 72 -27 134t-73.5 107t-109 71t-132.5 26q-71 0 -134 -26t-109.5 -71t-73.5 -107t-27 -134q0 -73 27 -135t73.5 -107.5t109.5 -71.5t134 -26q70 0 132.5 26t109 71.5t73.5 107.5t27 135zM504 1380q47 0 83.5 -17.5t68.5 -44.5q26 -23 47 -38.5 t53 -15.5q31 0 44 15.5t22.5 34.5t22 34.5t41.5 15.5q11 0 23 -4t21.5 -11.5t15.5 -19t6 -25.5q0 -37 -17.5 -68t-44.5 -53.5t-59.5 -35.5t-62.5 -13q-45 0 -81 15.5t-69 44.5q-29 24 -51 40t-51 16q-31 0 -44.5 -15.5t-23 -34.5t-22 -34.5t-40.5 -15.5q-11 0 -23 4.5 t-21.5 12.5t-15.5 20t-6 27q0 37 18 67.5t45 52.5t59.5 34t61.5 12z" glyph-name="atilde" horiz-adv-x="1274" unicode="ã"/><glyph d="M950 870q0 35 24.5 59.5t59.5 24.5t59.5 -24.5t24.5 -59.5v-806q0 -35 -24.5 -59.5t-59.5 -24.5t-59.5 24.5t-24.5 59.5v104q-62 -94 -158.5 -141t-217.5 -47q-100 0 -188 37t-154 102t-104 154.5t-38 194.5q0 104 38 193t104 154t154 102t188 37q121 0 218.5 -47 t157.5 -141v104zM944 468q0 72 -27 134t-73.5 107t-109 71t-132.5 26q-71 0 -134 -26t-109.5 -71t-73.5 -107t-27 -134q0 -73 27 -135t73.5 -107.5t109.5 -71.5t134 -26q70 0 132.5 26t109 71.5t73.5 107.5t27 135zM436 1158q-21 0 -39.5 7.5t-32.5 21t-22 32t-8 39.5 q0 20 8 38t22 31.5t32.5 21t39.5 7.5q20 0 38.5 -7.5t32 -21t21.5 -31.5t8 -38q0 -21 -8 -39.5t-21.5 -32t-32 -21t-38.5 -7.5zM816 1158q-21 0 -39.5 7.5t-32 21t-21 32t-7.5 39.5q0 20 7.5 38t21 31.5t32 21t39.5 7.5t39.5 -7.5t32.5 -21t22 -31.5t8 -38q0 -21 -8 -39.5 t-22 -32t-32.5 -21t-39.5 -7.5z" glyph-name="adieresis" horiz-adv-x="1274" unicode="ä"/><glyph d="M950 870q0 35 24.5 59.5t59.5 24.5t59.5 -24.5t24.5 -59.5v-806q0 -35 -24.5 -59.5t-59.5 -24.5t-59.5 24.5t-24.5 59.5v104q-62 -94 -158.5 -141t-217.5 -47q-100 0 -188 37t-154 102t-104 154.5t-38 194.5q0 104 38 193t104 154t154 102t188 37q121 0 218.5 -47 t157.5 -141v104zM944 468q0 72 -27 134t-73.5 107t-109 71t-132.5 26q-71 0 -134 -26t-109.5 -71t-73.5 -107t-27 -134q0 -73 27 -135t73.5 -107.5t109.5 -71.5t134 -26q70 0 132.5 26t109 71.5t73.5 107.5t27 135zM422 1258q0 43 16 79t44 62.5t65 41.5t79 15t79 -15 t65 -41.5t44 -62.5t16 -79q0 -44 -16 -80.5t-44 -63t-65 -41.5t-79 -15t-79 15t-65 41.5t-44 63t-16 80.5zM526 1258q0 -42 28 -71t72 -29q21 0 39 7.5t31.5 21t21.5 32t8 39.5q0 20 -8 38.5t-21.5 32t-31.5 21.5t-39 8q-44 0 -72 -29.5t-28 -70.5z" glyph-name="aring" horiz-adv-x="1274" unicode="å"/><glyph d="M272 288q0 -41 20 -74.5t54.5 -57t80.5 -36t99 -12.5q52 0 98.5 12.5t81 36t54.5 57t20 74.5t-20 75t-54.5 58t-81 37.5t-98.5 13.5q-53 0 -99 -13.5t-80.5 -37.5t-54.5 -58t-20 -75zM1280 804q-56 0 -107.5 -18.5t-93.5 -51.5t-72 -79t-43 -101h634q-11 59 -39.5 105.5 t-70.5 78.5t-95 49t-113 17zM138 776q0 17 10 35t24 29q72 57 157 88.5t179 31.5q143 0 238.5 -57t137.5 -163q65 104 167.5 162t226.5 58q102 0 191.5 -39t155.5 -104.5t104.5 -150.5t38.5 -176q0 -27 -18.5 -44.5t-47.5 -17.5h-748q10 -65 40 -118.5t74.5 -92t102 -60 t123.5 -21.5q92 0 161 35t113 91q11 14 26.5 22t35.5 8q35 0 57.5 -22.5t22.5 -55.5q0 -18 -5.5 -30.5t-14.5 -23.5q-77 -91 -174.5 -135.5t-221.5 -44.5q-64 0 -123.5 13t-112 38t-96 62t-74.5 85q-29 -54 -68.5 -91.5t-89 -61.5t-107 -34.5t-121.5 -10.5q-87 0 -160.5 22 t-126.5 62.5t-83 97t-30 124.5q0 70 31.5 127.5t84 98.5t121.5 63.5t145 22.5q88 0 165 -30.5t131 -89.5v48q0 145 -74 217.5t-210 72.5q-62 0 -125.5 -24.5t-114.5 -65.5q-24 -18 -50 -18q-29 0 -48.5 19.5t-19.5 48.5z" glyph-name="ae" horiz-adv-x="1858" unicode="æ"/><glyph d="M354 -386q0 21 16 37.5t36 16.5q9 0 18.5 -3.5t15.5 -8.5q39 -24 82 -24q24 0 43 8.5t32.5 22.5t21 32.5t7.5 38.5q0 24 -11.5 43.5t-31.5 33.5t-46.5 22t-56.5 9q-20 0 -20 18q0 5 1 8t3 6l52 108q-91 13 -169 54.5t-135 106t-89.5 147.5t-32.5 178q0 104 39.5 193 t108.5 154t161.5 102t198.5 37q88 0 168.5 -28t145.5 -78q15 -12 24.5 -29t9.5 -35q0 -32 -24 -54t-56 -22q-14 0 -25.5 5t-20.5 11q-27 16 -52.5 29.5t-52 23.5t-55 15.5t-62.5 5.5q-71 0 -133 -25t-107.5 -69t-71.5 -104.5t-26 -131.5q0 -73 26 -134.5t71.5 -106.5 t107.5 -70t133 -25q57 0 108.5 15t95.5 47q12 9 29 18.5t35 9.5q14 0 28.5 -6.5t26 -17t18.5 -24t7 -28.5q0 -23 -15.5 -44t-41 -39t-58 -32.5t-67 -25.5t-68 -18t-60.5 -9q-8 -15 -15.5 -31t-16.5 -33q81 -21 123.5 -72.5t42.5 -117.5q0 -35 -13.5 -70.5t-42 -64t-73 -47 t-107.5 -18.5q-25 0 -56 5t-58.5 16t-46.5 28t-19 41z" glyph-name="ccedilla" horiz-adv-x="1004" unicode="ç"/><glyph d="M600 -20q-106 0 -199 37t-162 102t-109 154.5t-40 194.5q0 103 39 192t106 154.5t156.5 102.5t190.5 37q99 0 186 -35t153 -97t106.5 -146.5t46.5 -183.5q2 -23 -14 -43.5t-48 -20.5h-750q10 -68 40 -122t75 -91.5t102.5 -58t122.5 -20.5q44 0 83 10t72.5 28t61.5 42 t51 52q12 15 27.5 23.5t36.5 8.5q35 0 57.5 -23.5t22.5 -58.5q0 -17 -5.5 -29.5t-14.5 -24.5q-75 -88 -173.5 -136t-220.5 -48zM902 554q-11 59 -39 104.5t-70 76.5t-95 47t-114 16q-53 0 -103 -17t-92 -48.5t-73 -76.5t-44 -102h630zM370 1378q0 27 18.5 46.5t45.5 19.5 q25 0 48 -20l244 -234q12 -11 19 -23t7 -29q0 -27 -18.5 -45.5t-45.5 -18.5q-14 0 -25.5 5t-20.5 13l-252 238q-11 9 -15.5 21.5t-4.5 26.5z" glyph-name="egrave" horiz-adv-x="1162" unicode="è"/><glyph d="M600 -20q-106 0 -199 37t-162 102t-109 154.5t-40 194.5q0 103 39 192t106 154.5t156.5 102.5t190.5 37q99 0 186 -35t153 -97t106.5 -146.5t46.5 -183.5q2 -23 -14 -43.5t-48 -20.5h-750q10 -68 40 -122t75 -91.5t102.5 -58t122.5 -20.5q44 0 83 10t72.5 28t61.5 42 t51 52q12 15 27.5 23.5t36.5 8.5q35 0 57.5 -23.5t22.5 -58.5q0 -17 -5.5 -29.5t-14.5 -24.5q-75 -88 -173.5 -136t-220.5 -48zM902 554q-11 59 -39 104.5t-70 76.5t-95 47t-114 16q-53 0 -103 -17t-92 -48.5t-73 -76.5t-44 -102h630zM786 1378q0 -15 -5 -27t-17 -23 l-250 -234q-9 -9 -20.5 -14.5t-25.5 -5.5q-27 0 -46.5 18.5t-19.5 45.5q0 18 7 29.5t19 22.5l242 230q12 12 24.5 17t27.5 5q26 0 45 -18.5t19 -45.5z" glyph-name="eacute" horiz-adv-x="1162" unicode="é"/><glyph d="M600 -20q-106 0 -199 37t-162 102t-109 154.5t-40 194.5q0 103 39 192t106 154.5t156.5 102.5t190.5 37q99 0 186 -35t153 -97t106.5 -146.5t46.5 -183.5q2 -23 -14 -43.5t-48 -20.5h-750q10 -68 40 -122t75 -91.5t102.5 -58t122.5 -20.5q44 0 83 10t72.5 28t61.5 42 t51 52q12 15 27.5 23.5t36.5 8.5q35 0 57.5 -23.5t22.5 -58.5q0 -17 -5.5 -29.5t-14.5 -24.5q-75 -88 -173.5 -136t-220.5 -48zM902 554q-11 59 -39 104.5t-70 76.5t-95 47t-114 16q-53 0 -103 -17t-92 -48.5t-73 -76.5t-44 -102h630zM384 1094q-21 -18 -50 -18 q-27 0 -44.5 17.5t-17.5 44.5q0 18 7.5 31.5t18.5 22.5l244 234q6 6 13.5 12t18.5 6t18.5 -6t13.5 -12l244 -234q11 -11 18.5 -23.5t7.5 -30.5q0 -27 -17.5 -44.5t-44.5 -17.5q-29 0 -50 18l-190 184z" glyph-name="ecircumflex" horiz-adv-x="1162" unicode="ê"/><glyph d="M600 -20q-106 0 -199 37t-162 102t-109 154.5t-40 194.5q0 103 39 192t106 154.5t156.5 102.5t190.5 37q99 0 186 -35t153 -97t106.5 -146.5t46.5 -183.5q2 -23 -14 -43.5t-48 -20.5h-750q10 -68 40 -122t75 -91.5t102.5 -58t122.5 -20.5q44 0 83 10t72.5 28t61.5 42 t51 52q12 15 27.5 23.5t36.5 8.5q35 0 57.5 -23.5t22.5 -58.5q0 -17 -5.5 -29.5t-14.5 -24.5q-75 -88 -173.5 -136t-220.5 -48zM902 554q-11 59 -39 104.5t-70 76.5t-95 47t-114 16q-53 0 -103 -17t-92 -48.5t-73 -76.5t-44 -102h630zM386 1158q-21 0 -39.5 7.5t-32.5 21 t-22 32t-8 39.5q0 20 8 38t22 31.5t32.5 21t39.5 7.5q20 0 38.5 -7.5t32 -21t21.5 -31.5t8 -38q0 -21 -8 -39.5t-21.5 -32t-32 -21t-38.5 -7.5zM766 1158q-21 0 -39.5 7.5t-32 21t-21 32t-7.5 39.5q0 20 7.5 38t21 31.5t32 21t39.5 7.5t39.5 -7.5t32.5 -21t22 -31.5t8 -38 q0 -21 -8 -39.5t-22 -32t-32.5 -21t-39.5 -7.5z" glyph-name="edieresis" horiz-adv-x="1162" unicode="ë"/><glyph d="M-28 1378q0 27 18.5 46.5t45.5 19.5q25 0 48 -20l244 -234q12 -11 19 -23t7 -29q0 -27 -18.5 -45.5t-45.5 -18.5q-14 0 -25.5 5t-20.5 13l-252 238q-11 9 -15.5 21.5t-4.5 26.5zM166 870q0 35 25 59.5t61 24.5q35 0 59.5 -24.5t24.5 -59.5v-806q0 -35 -24.5 -59.5 t-59.5 -24.5q-36 0 -61 24.5t-25 59.5v806z" glyph-name="igrave" horiz-adv-x="504" unicode="ì"/><glyph d="M532 1378q0 -15 -5 -27t-17 -23l-250 -234q-9 -9 -20.5 -14.5t-25.5 -5.5q-27 0 -46.5 18.5t-19.5 45.5q0 18 7 29.5t19 22.5l242 230q12 12 24.5 17t27.5 5q26 0 45 -18.5t19 -45.5zM166 870q0 35 25 59.5t61 24.5q35 0 59.5 -24.5t24.5 -59.5v-806q0 -35 -24.5 -59.5 t-59.5 -24.5q-36 0 -61 24.5t-25 59.5v806z" glyph-name="iacute" horiz-adv-x="504" unicode="í"/><glyph d="M166 870q0 35 25 59.5t61 24.5q35 0 59.5 -24.5t24.5 -59.5v-806q0 -35 -24.5 -59.5t-59.5 -24.5q-36 0 -61 24.5t-25 59.5v806zM60 1094q-21 -18 -50 -18q-27 0 -44.5 17.5t-17.5 44.5q0 18 7.5 31.5t18.5 22.5l244 234q6 6 13.5 12t18.5 6t18.5 -6t13.5 -12l244 -234 q11 -11 18.5 -23.5t7.5 -30.5q0 -27 -17.5 -44.5t-44.5 -17.5q-29 0 -50 18l-190 184z" glyph-name="icircumflex" horiz-adv-x="504" unicode="î"/><glyph d="M60 1158q-21 0 -39.5 7.5t-32.5 21t-22 32t-8 39.5q0 20 8 38t22 31.5t32.5 21t39.5 7.5q20 0 38.5 -7.5t32 -21t21.5 -31.5t8 -38q0 -21 -8 -39.5t-21.5 -32t-32 -21t-38.5 -7.5zM440 1158q-21 0 -39.5 7.5t-32 21t-21 32t-7.5 39.5q0 20 7.5 38t21 31.5t32 21t39.5 7.5 t39.5 -7.5t32.5 -21t22 -31.5t8 -38q0 -21 -8 -39.5t-22 -32t-32.5 -21t-39.5 -7.5zM166 870q0 35 25 59.5t61 24.5q35 0 59.5 -24.5t24.5 -59.5v-806q0 -35 -24.5 -59.5t-59.5 -24.5q-36 0 -61 24.5t-25 59.5v806z" glyph-name="idieresis" horiz-adv-x="504" unicode="ï"/><glyph d="M234 1076q0 17 6.5 30.5t21.5 21.5l180 100q-36 24 -73 46t-73 40q-23 11 -37.5 28t-14.5 44q0 33 22.5 56.5t55.5 23.5q11 0 20 -2.5t18 -7.5q63 -30 122 -66.5t116 -75.5l184 104q12 6 26 6q24 0 40 -16t16 -40q0 -15 -6.5 -26.5t-17.5 -19.5l-146 -82 q195 -161 298.5 -354t103.5 -412q0 -108 -40 -198.5t-109 -156.5t-160 -102.5t-193 -36.5q-103 0 -194.5 36.5t-160.5 101.5t-109 154.5t-40 195.5q0 103 38 190.5t103 152t152.5 101t186.5 36.5q78 0 140 -20t112 -68q-51 89 -120 162t-154 136l-224 -124q-9 -5 -17 -8.5 t-19 -3.5q-23 0 -38.5 15.5t-15.5 38.5zM260 468q0 -75 25.5 -136.5t70.5 -105t106 -67t132 -23.5t132 23.5t106 67t70.5 105t25.5 136.5q0 73 -26 134t-71 104.5t-106 67.5t-131 24q-71 0 -132 -23.5t-106 -67t-70.5 -104.5t-25.5 -135z" glyph-name="eth" horiz-adv-x="1192" unicode="ð"/><glyph d="M324 822q50 68 120 100t158 32q68 0 130 -24.5t109 -71t75 -113t28 -149.5v-532q0 -35 -24.5 -59.5t-59.5 -24.5t-59.5 24.5t-24.5 59.5v494q0 53 -17 98.5t-47 78.5t-71.5 52t-90.5 19q-50 0 -91.5 -18t-71.5 -50t-46.5 -76t-16.5 -96v-502q0 -35 -24.5 -59.5 t-59.5 -24.5t-59.5 24.5t-24.5 59.5v806q0 35 24.5 59.5t59.5 24.5t59.5 -24.5t24.5 -59.5v-48zM414 1380q47 0 83.5 -17.5t68.5 -44.5q26 -23 47 -38.5t53 -15.5q31 0 44 15.5t22.5 34.5t22 34.5t41.5 15.5q11 0 23 -4t21.5 -11.5t15.5 -19t6 -25.5q0 -37 -17.5 -68 t-44.5 -53.5t-59.5 -35.5t-62.5 -13q-45 0 -81 15.5t-69 44.5q-29 24 -51 40t-51 16q-31 0 -44.5 -15.5t-23 -34.5t-22 -34.5t-40.5 -15.5q-11 0 -23 4.5t-21.5 12.5t-15.5 20t-6 27q0 37 18 67.5t45 52.5t59.5 34t61.5 12z" glyph-name="ntilde" horiz-adv-x="1090" unicode="ñ"/><glyph d="M260 468q0 -72 26 -133t71.5 -105t107.5 -69t133 -25t133 25t108 69t72.5 105t26.5 133t-26.5 132.5t-72.5 104.5t-108 68.5t-133 24.5t-133 -24.5t-107.5 -68.5t-71.5 -104.5t-26 -132.5zM90 468q0 104 39.5 193t108.5 154t161.5 102t198.5 37t198.5 -37t161.5 -102 t108.5 -154t39.5 -193q0 -105 -39.5 -194.5t-108.5 -154.5t-161.5 -102t-198.5 -37t-198.5 37t-161.5 102t-108.5 154.5t-39.5 194.5zM386 1378q0 27 18.5 46.5t45.5 19.5q25 0 48 -20l244 -234q12 -11 19 -23t7 -29q0 -27 -18.5 -45.5t-45.5 -18.5q-14 0 -25.5 5t-20.5 13 l-252 238q-11 9 -15.5 21.5t-4.5 26.5z" glyph-name="ograve" horiz-adv-x="1198" unicode="ò"/><glyph d="M260 468q0 -72 26 -133t71.5 -105t107.5 -69t133 -25t133 25t108 69t72.5 105t26.5 133t-26.5 132.5t-72.5 104.5t-108 68.5t-133 24.5t-133 -24.5t-107.5 -68.5t-71.5 -104.5t-26 -132.5zM90 468q0 104 39.5 193t108.5 154t161.5 102t198.5 37t198.5 -37t161.5 -102 t108.5 -154t39.5 -193q0 -105 -39.5 -194.5t-108.5 -154.5t-161.5 -102t-198.5 -37t-198.5 37t-161.5 102t-108.5 154.5t-39.5 194.5zM854 1378q0 -15 -5 -27t-17 -23l-250 -234q-9 -9 -20.5 -14.5t-25.5 -5.5q-27 0 -46.5 18.5t-19.5 45.5q0 18 7 29.5t19 22.5l242 230 q12 12 24.5 17t27.5 5q26 0 45 -18.5t19 -45.5z" glyph-name="oacute" horiz-adv-x="1198" unicode="ó"/><glyph d="M260 468q0 -72 26 -133t71.5 -105t107.5 -69t133 -25t133 25t108 69t72.5 105t26.5 133t-26.5 132.5t-72.5 104.5t-108 68.5t-133 24.5t-133 -24.5t-107.5 -68.5t-71.5 -104.5t-26 -132.5zM90 468q0 104 39.5 193t108.5 154t161.5 102t198.5 37t198.5 -37t161.5 -102 t108.5 -154t39.5 -193q0 -105 -39.5 -194.5t-108.5 -154.5t-161.5 -102t-198.5 -37t-198.5 37t-161.5 102t-108.5 154.5t-39.5 194.5zM406 1094q-21 -18 -50 -18q-27 0 -44.5 17.5t-17.5 44.5q0 18 7.5 31.5t18.5 22.5l244 234q6 6 13.5 12t18.5 6t18.5 -6t13.5 -12 l244 -234q11 -11 18.5 -23.5t7.5 -30.5q0 -27 -17.5 -44.5t-44.5 -17.5q-29 0 -50 18l-190 184z" glyph-name="ocircumflex" horiz-adv-x="1198" unicode="ô"/><glyph d="M260 468q0 -72 26 -133t71.5 -105t107.5 -69t133 -25t133 25t108 69t72.5 105t26.5 133t-26.5 132.5t-72.5 104.5t-108 68.5t-133 24.5t-133 -24.5t-107.5 -68.5t-71.5 -104.5t-26 -132.5zM90 468q0 104 39.5 193t108.5 154t161.5 102t198.5 37t198.5 -37t161.5 -102 t108.5 -154t39.5 -193q0 -105 -39.5 -194.5t-108.5 -154.5t-161.5 -102t-198.5 -37t-198.5 37t-161.5 102t-108.5 154.5t-39.5 194.5zM466 1380q47 0 83.5 -17.5t68.5 -44.5q26 -23 47 -38.5t53 -15.5q31 0 44 15.5t22.5 34.5t22 34.5t41.5 15.5q11 0 23 -4t21.5 -11.5 t15.5 -19t6 -25.5q0 -37 -17.5 -68t-44.5 -53.5t-59.5 -35.5t-62.5 -13q-45 0 -81 15.5t-69 44.5q-29 24 -51 40t-51 16q-31 0 -44.5 -15.5t-23 -34.5t-22 -34.5t-40.5 -15.5q-11 0 -23 4.5t-21.5 12.5t-15.5 20t-6 27q0 37 18 67.5t45 52.5t59.5 34t61.5 12z" glyph-name="otilde" horiz-adv-x="1198" unicode="õ"/><glyph d="M260 468q0 -72 26 -133t71.5 -105t107.5 -69t133 -25t133 25t108 69t72.5 105t26.5 133t-26.5 132.5t-72.5 104.5t-108 68.5t-133 24.5t-133 -24.5t-107.5 -68.5t-71.5 -104.5t-26 -132.5zM90 468q0 104 39.5 193t108.5 154t161.5 102t198.5 37t198.5 -37t161.5 -102 t108.5 -154t39.5 -193q0 -105 -39.5 -194.5t-108.5 -154.5t-161.5 -102t-198.5 -37t-198.5 37t-161.5 102t-108.5 154.5t-39.5 194.5zM408 1158q-21 0 -39.5 7.5t-32.5 21t-22 32t-8 39.5q0 20 8 38t22 31.5t32.5 21t39.5 7.5q20 0 38.5 -7.5t32 -21t21.5 -31.5t8 -38 q0 -21 -8 -39.5t-21.5 -32t-32 -21t-38.5 -7.5zM788 1158q-21 0 -39.5 7.5t-32 21t-21 32t-7.5 39.5q0 20 7.5 38t21 31.5t32 21t39.5 7.5t39.5 -7.5t32.5 -21t22 -31.5t8 -38q0 -21 -8 -39.5t-22 -32t-32.5 -21t-39.5 -7.5z" glyph-name="odieresis" horiz-adv-x="1198" unicode="ö"/><glyph d="M504 1064q0 24 9 45t24.5 37t36.5 25t46 9t46 -9t36 -25t23.5 -37t8.5 -45t-8.5 -45t-23.5 -37t-36 -25t-46 -9t-46 9t-36.5 25t-24.5 37t-9 45zM504 262q0 23 9 44t24.5 36.5t36.5 24.5t46 9t46 -9t36 -24.5t23.5 -36.5t8.5 -44q0 -25 -8.5 -46.5t-23.5 -37.5t-36 -25 t-46 -9t-46 9t-36.5 25t-24.5 37.5t-9 46.5zM1046 736q30 0 52 -22t22 -52t-22 -52t-52 -22h-854q-30 0 -52 22t-22 52t22 52t52 22h854z" glyph-name="divide" horiz-adv-x="1240" unicode="÷"/><glyph d="M302 -174q-9 -17 -23 -27.5t-35 -10.5q-27 0 -45.5 18t-18.5 44q0 21 8 34l108 190q-95 66 -150.5 166.5t-55.5 227.5q0 104 39.5 193t108.5 154t161.5 102t198.5 37q100 0 190 -36l110 192q9 17 23.5 28.5t34.5 11.5q27 0 45.5 -18.5t18.5 -45.5q0 -21 -8 -32l-112 -194 q46 -34 84 -76t65 -91.5t42 -106t15 -118.5q0 -105 -39.5 -194.5t-108.5 -154.5t-161.5 -102t-198.5 -37q-50 0 -97 8.5t-91 25.5zM598 136q71 0 133 25t108 69t72.5 105t26.5 133q0 78 -32 141.5t-86 108.5l-330 -564q51 -18 108 -18zM260 468q0 -81 31 -145t87 -109 l330 564q-49 20 -110 20q-71 0 -132.5 -25t-107 -69t-72 -104.5t-26.5 -131.5z" glyph-name="oslash" horiz-adv-x="1198" unicode="ø"/><glyph d="M768 114q-50 -68 -120 -101t-158 -33q-68 0 -130 24.5t-109 71t-75 113t-28 149.5v532q0 35 24.5 59.5t59.5 24.5t59.5 -24.5t24.5 -59.5v-494q0 -53 16.5 -98t46.5 -78.5t71.5 -52.5t91.5 -19q49 0 90.5 18t71.5 50t47 76t17 96v502q0 35 24.5 59.5t59.5 24.5 t59.5 -24.5t24.5 -59.5v-806q0 -35 -24.5 -59.5t-59.5 -24.5t-59.5 24.5t-24.5 59.5v50zM326 1378q0 27 18.5 46.5t45.5 19.5q25 0 48 -20l244 -234q12 -11 19 -23t7 -29q0 -27 -18.5 -45.5t-45.5 -18.5q-14 0 -25.5 5t-20.5 13l-252 238q-11 9 -15.5 21.5t-4.5 26.5z" glyph-name="ugrave" horiz-adv-x="1092" unicode="ù"/><glyph d="M768 114q-50 -68 -120 -101t-158 -33q-68 0 -130 24.5t-109 71t-75 113t-28 149.5v532q0 35 24.5 59.5t59.5 24.5t59.5 -24.5t24.5 -59.5v-494q0 -53 16.5 -98t46.5 -78.5t71.5 -52.5t91.5 -19q49 0 90.5 18t71.5 50t47 76t17 96v502q0 35 24.5 59.5t59.5 24.5 t59.5 -24.5t24.5 -59.5v-806q0 -35 -24.5 -59.5t-59.5 -24.5t-59.5 24.5t-24.5 59.5v50zM760 1378q0 -15 -5 -27t-17 -23l-250 -234q-9 -9 -20.5 -14.5t-25.5 -5.5q-27 0 -46.5 18.5t-19.5 45.5q0 18 7 29.5t19 22.5l242 230q12 12 24.5 17t27.5 5q26 0 45 -18.5t19 -45.5z" glyph-name="uacute" horiz-adv-x="1092" unicode="ú"/><glyph d="M768 114q-50 -68 -120 -101t-158 -33q-68 0 -130 24.5t-109 71t-75 113t-28 149.5v532q0 35 24.5 59.5t59.5 24.5t59.5 -24.5t24.5 -59.5v-494q0 -53 16.5 -98t46.5 -78.5t71.5 -52.5t91.5 -19q49 0 90.5 18t71.5 50t47 76t17 96v502q0 35 24.5 59.5t59.5 24.5 t59.5 -24.5t24.5 -59.5v-806q0 -35 -24.5 -59.5t-59.5 -24.5t-59.5 24.5t-24.5 59.5v50zM354 1094q-21 -18 -50 -18q-27 0 -44.5 17.5t-17.5 44.5q0 18 7.5 31.5t18.5 22.5l244 234q6 6 13.5 12t18.5 6t18.5 -6t13.5 -12l244 -234q11 -11 18.5 -23.5t7.5 -30.5 q0 -27 -17.5 -44.5t-44.5 -17.5q-29 0 -50 18l-190 184z" glyph-name="ucircumflex" horiz-adv-x="1092" unicode="û"/><glyph d="M768 114q-50 -68 -120 -101t-158 -33q-68 0 -130 24.5t-109 71t-75 113t-28 149.5v532q0 35 24.5 59.5t59.5 24.5t59.5 -24.5t24.5 -59.5v-494q0 -53 16.5 -98t46.5 -78.5t71.5 -52.5t91.5 -19q49 0 90.5 18t71.5 50t47 76t17 96v502q0 35 24.5 59.5t59.5 24.5 t59.5 -24.5t24.5 -59.5v-806q0 -35 -24.5 -59.5t-59.5 -24.5t-59.5 24.5t-24.5 59.5v50zM356 1158q-21 0 -39.5 7.5t-32.5 21t-22 32t-8 39.5q0 20 8 38t22 31.5t32.5 21t39.5 7.5q20 0 38.5 -7.5t32 -21t21.5 -31.5t8 -38q0 -21 -8 -39.5t-21.5 -32t-32 -21t-38.5 -7.5z M736 1158q-21 0 -39.5 7.5t-32 21t-21 32t-7.5 39.5q0 20 7.5 38t21 31.5t32 21t39.5 7.5t39.5 -7.5t32.5 -21t22 -31.5t8 -38q0 -21 -8 -39.5t-22 -32t-32.5 -21t-39.5 -7.5z" glyph-name="udieresis" horiz-adv-x="1092" unicode="ü"/><glyph d="M70 876q0 36 22.5 60t57.5 24q58 0 82 -58l258 -690l272 686q11 26 30 44t48 18q36 0 61 -24t25 -60q0 -13 -6 -28l-550 -1380q-9 -24 -31 -40t-51 -16q-36 0 -59 23.5t-23 58.5q0 11 1.5 20.5t6.5 17.5l192 482l-328 824q-3 9 -5.5 19t-2.5 19zM700 1378q0 -15 -5 -27 t-17 -23l-250 -234q-9 -9 -20.5 -14.5t-25.5 -5.5q-27 0 -46.5 18.5t-19.5 45.5q0 18 7 29.5t19 22.5l242 230q12 12 24.5 17t27.5 5q26 0 45 -18.5t19 -45.5z" glyph-name="yacute" horiz-adv-x="996" unicode="ý"/><glyph d="M156 1434q0 35 24.5 59.5t59.5 24.5t59.5 -24.5t24.5 -59.5v-668q60 94 157 141t219 47q100 0 188 -37t154 -102t104 -154t38 -193q0 -105 -38 -194.5t-104 -154.5t-154 -102t-188 -37q-122 0 -219 48t-157 140v-650q0 -35 -24.5 -59.5t-59.5 -24.5t-59.5 24.5 t-24.5 59.5v1916zM328 468q0 -73 27.5 -135t74 -107.5t109 -71.5t133.5 -26q70 0 133 26t109.5 71.5t74 107.5t27.5 135q0 72 -27.5 134t-74 107t-109.5 71t-133 26q-71 0 -133.5 -26t-109 -71t-74 -107t-27.5 -134z" glyph-name="thorn" horiz-adv-x="1274" unicode="þ"/><glyph d="M70 876q0 36 22.5 60t57.5 24q58 0 82 -58l258 -690l272 686q11 26 30 44t48 18q36 0 61 -24t25 -60q0 -13 -6 -28l-550 -1380q-9 -24 -31 -40t-51 -16q-36 0 -59 23.5t-23 58.5q0 11 1.5 20.5t6.5 17.5l192 482l-328 824q-3 9 -5.5 19t-2.5 19zM304 1158 q-21 0 -39.5 7.5t-32.5 21t-22 32t-8 39.5q0 20 8 38t22 31.5t32.5 21t39.5 7.5q20 0 38.5 -7.5t32 -21t21.5 -31.5t8 -38q0 -21 -8 -39.5t-21.5 -32t-32 -21t-38.5 -7.5zM684 1158q-21 0 -39.5 7.5t-32 21t-21 32t-7.5 39.5q0 20 7.5 38t21 31.5t32 21t39.5 7.5t39.5 -7.5 t32.5 -21t22 -31.5t8 -38q0 -21 -8 -39.5t-22 -32t-32.5 -21t-39.5 -7.5z" glyph-name="ydieresis" horiz-adv-x="996" unicode="ÿ"/><glyph d="M640 1420q18 0 31 -11.5t19 -26.5l528 -1274q5 -11 7.5 -20t2.5 -20q0 -19 -7 -35t-18.5 -28t-27 -18.5t-31.5 -6.5q-29 0 -50 16t-32 42l-122 304h-602l-120 -304q-11 -26 -32 -42t-50 -16q-17 0 -32.5 6.5t-27.5 18.5t-19 27.5t-7 33.5q0 12 3.5 21.5t8.5 20.5 l528 1274q6 17 19 27.5t31 10.5zM400 494h478q-12 29 -30.5 76.5t-41.5 104t-47 117.5t-47 117.5t-42 104t-30 76.5zM882 1770q27 0 45.5 -18.5t18.5 -47.5q0 -27 -18.5 -45.5t-45.5 -18.5h-484q-27 0 -45.5 18.5t-18.5 45.5q0 29 18.5 47.5t45.5 18.5h484z" glyph-name="Amacron" horiz-adv-x="1280" unicode="Ā"/><glyph d="M950 870q0 35 24.5 59.5t59.5 24.5t59.5 -24.5t24.5 -59.5v-806q0 -35 -24.5 -59.5t-59.5 -24.5t-59.5 24.5t-24.5 59.5v104q-62 -94 -158.5 -141t-217.5 -47q-100 0 -188 37t-154 102t-104 154.5t-38 194.5q0 104 38 193t104 154t154 102t188 37q121 0 218.5 -47 t157.5 -141v104zM944 468q0 72 -27 134t-73.5 107t-109 71t-132.5 26q-71 0 -134 -26t-109.5 -71t-73.5 -107t-27 -134q0 -73 27 -135t73.5 -107.5t109.5 -71.5t134 -26q70 0 132.5 26t109 71.5t73.5 107.5t27 135zM838 1322q27 0 45.5 -18.5t18.5 -47.5q0 -27 -18.5 -45.5 t-45.5 -18.5h-484q-27 0 -45.5 18.5t-18.5 45.5q0 29 18.5 47.5t45.5 18.5h484z" glyph-name="amacron" horiz-adv-x="1274" unicode="ā"/><glyph d="M640 1420q18 0 31 -11.5t19 -26.5l528 -1274q5 -11 7.5 -20t2.5 -20q0 -19 -7 -35t-18.5 -28t-27 -18.5t-31.5 -6.5q-29 0 -50 16t-32 42l-122 304h-602l-120 -304q-11 -26 -32 -42t-50 -16q-17 0 -32.5 6.5t-27.5 18.5t-19 27.5t-7 33.5q0 12 3.5 21.5t8.5 20.5 l528 1274q6 17 19 27.5t31 10.5zM400 494h478q-12 29 -30.5 76.5t-41.5 104t-47 117.5t-47 117.5t-42 104t-30 76.5zM640 1558q-83 0 -155.5 48.5t-110.5 143.5q-10 23 -10 50q0 35 18 54.5t48 19.5t47 -20.5t23 -47.5q5 -24 17 -45.5t30 -37.5t41 -25.5t52 -9.5 q28 0 51.5 9.5t41.5 25.5t30 37.5t17 45.5q6 27 23 47.5t47 20.5t48 -19.5t18 -54.5q0 -27 -10 -50q-38 -95 -110.5 -143.5t-155.5 -48.5z" glyph-name="Abreve" horiz-adv-x="1280" unicode="Ă"/><glyph d="M950 870q0 35 24.5 59.5t59.5 24.5t59.5 -24.5t24.5 -59.5v-806q0 -35 -24.5 -59.5t-59.5 -24.5t-59.5 24.5t-24.5 59.5v104q-62 -94 -158.5 -141t-217.5 -47q-100 0 -188 37t-154 102t-104 154.5t-38 194.5q0 104 38 193t104 154t154 102t188 37q121 0 218.5 -47 t157.5 -141v104zM944 468q0 72 -27 134t-73.5 107t-109 71t-132.5 26q-71 0 -134 -26t-109.5 -71t-73.5 -107t-27 -134q0 -73 27 -135t73.5 -107.5t109.5 -71.5t134 -26q70 0 132.5 26t109 71.5t73.5 107.5t27 135zM596 1110q-83 0 -155.5 48.5t-110.5 143.5q-10 23 -10 50 q0 35 18 54.5t48 19.5t47 -20.5t23 -47.5q5 -24 17 -45.5t30 -37.5t41 -25.5t52 -9.5q28 0 51.5 9.5t41.5 25.5t30 37.5t17 45.5q6 27 23 47.5t47 20.5t48 -19.5t18 -54.5q0 -27 -10 -50q-38 -95 -110.5 -143.5t-155.5 -48.5z" glyph-name="abreve" horiz-adv-x="1274" unicode="ă"/><glyph d="M1250 -418q-20 -11 -45.5 -15.5t-54.5 -4.5q-52 0 -93.5 15.5t-70.5 42.5t-44.5 63t-15.5 77q0 66 38 130t116 118q-9 15 -16.5 30t-15.5 32l-54 136l-54 136h-602l-122 -308q-11 -26 -32 -42t-50 -16q-17 0 -32.5 6.5t-27.5 18.5t-19 27.5t-7 33.5q0 14 4 26.5t12 29.5 l528 1272q6 15 18 24.5t30 9.5t29 -9.5t17 -24.5l536 -1292q3 -9 5.5 -17t2.5 -17q0 -32 -18.5 -54t-45.5 -30q-50 -48 -78 -98.5t-28 -97.5q0 -28 10 -48t26 -33t36.5 -19t41.5 -6t31 6t25 6q23 0 39.5 -16t16.5 -40q0 -17 -9.5 -30t-26.5 -22zM400 494h478l-238 596z" glyph-name="Aogonek" horiz-adv-x="1278" unicode="Ą"/><glyph d="M1148 -416q-24 -12 -51.5 -17t-60.5 -5q-50 0 -89.5 16.5t-67 43.5t-42.5 63t-15 75q0 65 37.5 128.5t112.5 117.5q-12 18 -17 41t-5 49v72q-62 -94 -158.5 -141t-217.5 -47q-100 0 -188 37t-154 102t-104 154.5t-38 194.5q0 104 38 193.5t104 155t154 102.5t188 37 q121 0 218.5 -48t157.5 -142v104q0 35 24.5 59.5t59.5 24.5t59.5 -24.5t24.5 -59.5v-804q0 -26 -13.5 -46.5t-34.5 -31.5q-54 -50 -84 -103t-30 -101q0 -28 10 -48t26 -33t36.5 -19t41.5 -6q17 0 29.5 6t26.5 6q24 0 40 -16t16 -40q0 -15 -9.5 -28.5t-24.5 -21.5zM944 468 q0 72 -27 134t-73.5 107t-109 71t-132.5 26q-71 0 -134 -26t-109.5 -71t-73.5 -107t-27 -134q0 -73 27 -135t73.5 -107.5t109.5 -71.5t134 -26q70 0 132.5 26t109 71.5t73.5 107.5t27 135z" glyph-name="aogonek" horiz-adv-x="1272" unicode="ą"/><glyph d="M102 700q0 154 58.5 285.5t159 228t234 151.5t284.5 55q140 0 264 -47.5t222 -130.5q14 -12 21 -30t7 -36t-7 -34.5t-19 -28.5t-28 -19.5t-34 -7.5q-33 0 -58 22q-75 66 -168.5 102t-199.5 36q-114 0 -214.5 -41t-175.5 -113.5t-118.5 -173t-43.5 -218.5 q0 -119 43.5 -219.5t118.5 -173t175.5 -113t214.5 -40.5q106 0 200 36t168 102q25 22 58 22q18 0 34 -7.5t28 -19.5t19 -28.5t7 -34.5t-7.5 -36t-22.5 -30q-98 -85 -221 -131.5t-263 -46.5q-151 0 -284.5 54.5t-234 151t-159 228t-58.5 286.5zM1006 1826q0 -15 -5 -27 t-17 -23l-250 -234q-9 -9 -20.5 -14.5t-25.5 -5.5q-27 0 -46.5 18.5t-19.5 45.5q0 18 7 29.5t19 22.5l242 230q12 12 24.5 17t27.5 5q26 0 45 -18.5t19 -45.5z" glyph-name="Cacute" horiz-adv-x="1438" unicode="Ć"/><glyph d="M90 468q0 104 39.5 193t108.5 154t161.5 102t198.5 37q89 0 170 -27.5t144 -78.5q15 -12 24.5 -28t9.5 -36q0 -32 -23 -54t-55 -22q-17 0 -30.5 5.5t-25.5 14.5q-94 70 -214 70q-71 0 -133 -24.5t-107.5 -68.5t-71.5 -104.5t-26 -132.5t26 -133t71.5 -105t107.5 -69 t133 -25q62 0 117 19t99 51q11 8 24 14t30 6q32 0 55 -22t23 -54q0 -20 -9.5 -36t-24.5 -28q-65 -50 -145 -78t-169 -28q-106 0 -198.5 37t-161.5 102t-108.5 154.5t-39.5 194.5zM758 1378q0 -15 -5 -27t-17 -23l-250 -234q-9 -9 -20.5 -14.5t-25.5 -5.5q-27 0 -46.5 18.5 t-19.5 45.5q0 18 7 29.5t19 22.5l242 230q12 12 24.5 17t27.5 5q26 0 45 -18.5t19 -45.5z" glyph-name="cacute" horiz-adv-x="1004" unicode="ć"/><glyph d="M102 700q0 154 58.5 285.5t159 228t234 151.5t284.5 55q140 0 264 -47.5t222 -130.5q14 -12 21 -30t7 -36t-7 -34.5t-19 -28.5t-28 -19.5t-34 -7.5q-33 0 -58 22q-75 66 -168.5 102t-199.5 36q-114 0 -214.5 -41t-175.5 -113.5t-118.5 -173t-43.5 -218.5 q0 -119 43.5 -219.5t118.5 -173t175.5 -113t214.5 -40.5q106 0 200 36t168 102q25 22 58 22q18 0 34 -7.5t28 -19.5t19 -28.5t7 -34.5t-7.5 -36t-22.5 -30q-98 -85 -221 -131.5t-263 -46.5q-151 0 -284.5 54.5t-234 151t-159 228t-58.5 286.5zM594 1542q-21 -18 -50 -18 q-27 0 -44.5 17.5t-17.5 44.5q0 18 7.5 31.5t18.5 22.5l244 234q6 6 13.5 12t18.5 6t18.5 -6t13.5 -12l244 -234q11 -11 18.5 -23.5t7.5 -30.5q0 -27 -17.5 -44.5t-44.5 -17.5q-29 0 -50 18l-190 184z" glyph-name="Ccircumflex" horiz-adv-x="1438" unicode="Ĉ"/><glyph d="M90 468q0 104 39.5 193t108.5 154t161.5 102t198.5 37q89 0 170 -27.5t144 -78.5q15 -12 24.5 -28t9.5 -36q0 -32 -23 -54t-55 -22q-17 0 -30.5 5.5t-25.5 14.5q-94 70 -214 70q-71 0 -133 -24.5t-107.5 -68.5t-71.5 -104.5t-26 -132.5t26 -133t71.5 -105t107.5 -69 t133 -25q62 0 117 19t99 51q11 8 24 14t30 6q32 0 55 -22t23 -54q0 -20 -9.5 -36t-24.5 -28q-65 -50 -145 -78t-169 -28q-106 0 -198.5 37t-161.5 102t-108.5 154.5t-39.5 194.5zM360 1094q-21 -18 -50 -18q-27 0 -44.5 17.5t-17.5 44.5q0 18 7.5 31.5t18.5 22.5l244 234 q6 6 13.5 12t18.5 6t18.5 -6t13.5 -12l244 -234q11 -11 18.5 -23.5t7.5 -30.5q0 -27 -17.5 -44.5t-44.5 -17.5q-29 0 -50 18l-190 184z" glyph-name="ccircumflex" horiz-adv-x="1004" unicode="ĉ"/><glyph d="M102 700q0 154 58.5 285.5t159 228t234 151.5t284.5 55q140 0 264 -47.5t222 -130.5q14 -12 21 -30t7 -36t-7 -34.5t-19 -28.5t-28 -19.5t-34 -7.5q-33 0 -58 22q-75 66 -168.5 102t-199.5 36q-114 0 -214.5 -41t-175.5 -113.5t-118.5 -173t-43.5 -218.5 q0 -119 43.5 -219.5t118.5 -173t175.5 -113t214.5 -40.5q106 0 200 36t168 102q25 22 58 22q18 0 34 -7.5t28 -19.5t19 -28.5t7 -34.5t-7.5 -36t-22.5 -30q-98 -85 -221 -131.5t-263 -46.5q-151 0 -284.5 54.5t-234 151t-159 228t-58.5 286.5zM784 1606q-21 0 -39.5 7.5 t-32.5 21t-22 32t-8 39.5q0 20 8 38t22 31.5t32.5 21t39.5 7.5t39 -7.5t31.5 -21t21.5 -31.5t8 -38q0 -21 -8 -39.5t-21.5 -32t-31.5 -21t-39 -7.5z" glyph-name="Cdotaccent" horiz-adv-x="1438" unicode="Ċ"/><glyph d="M90 468q0 104 39.5 193t108.5 154t161.5 102t198.5 37q89 0 170 -27.5t144 -78.5q15 -12 24.5 -28t9.5 -36q0 -32 -23 -54t-55 -22q-17 0 -30.5 5.5t-25.5 14.5q-94 70 -214 70q-71 0 -133 -24.5t-107.5 -68.5t-71.5 -104.5t-26 -132.5t26 -133t71.5 -105t107.5 -69 t133 -25q62 0 117 19t99 51q11 8 24 14t30 6q32 0 55 -22t23 -54q0 -20 -9.5 -36t-24.5 -28q-65 -50 -145 -78t-169 -28q-106 0 -198.5 37t-161.5 102t-108.5 154.5t-39.5 194.5zM552 1158q-21 0 -39.5 7.5t-32.5 21t-22 32t-8 39.5q0 20 8 38t22 31.5t32.5 21t39.5 7.5 t39 -7.5t31.5 -21t21.5 -31.5t8 -38q0 -21 -8 -39.5t-21.5 -32t-31.5 -21t-39 -7.5z" glyph-name="cdotaccent" horiz-adv-x="1004" unicode="ċ"/><glyph d="M102 700q0 154 58.5 285.5t159 228t234 151.5t284.5 55q140 0 264 -47.5t222 -130.5q14 -12 21 -30t7 -36t-7 -34.5t-19 -28.5t-28 -19.5t-34 -7.5q-33 0 -58 22q-75 66 -168.5 102t-199.5 36q-114 0 -214.5 -41t-175.5 -113.5t-118.5 -173t-43.5 -218.5 q0 -119 43.5 -219.5t118.5 -173t175.5 -113t214.5 -40.5q106 0 200 36t168 102q25 22 58 22q18 0 34 -7.5t28 -19.5t19 -28.5t7 -34.5t-7.5 -36t-22.5 -30q-98 -85 -221 -131.5t-263 -46.5q-151 0 -284.5 54.5t-234 151t-159 228t-58.5 286.5zM784 1680l184 178 q11 11 24 18.5t30 7.5q29 0 46.5 -17.5t17.5 -44.5q0 -18 -7.5 -30.5t-18.5 -23.5l-244 -234q-8 -8 -15.5 -13t-16.5 -5q-11 0 -18.5 5t-15.5 13l-244 234q-11 9 -17.5 21.5t-6.5 30.5q0 29 17.5 45.5t44.5 16.5q29 0 50 -18z" glyph-name="Ccaron" horiz-adv-x="1438" unicode="Č"/><glyph d="M90 468q0 104 39.5 193t108.5 154t161.5 102t198.5 37q89 0 170 -27.5t144 -78.5q15 -12 24.5 -28t9.5 -36q0 -32 -23 -54t-55 -22q-17 0 -30.5 5.5t-25.5 14.5q-94 70 -214 70q-71 0 -133 -24.5t-107.5 -68.5t-71.5 -104.5t-26 -132.5t26 -133t71.5 -105t107.5 -69 t133 -25q62 0 117 19t99 51q11 8 24 14t30 6q32 0 55 -22t23 -54q0 -20 -9.5 -36t-24.5 -28q-65 -50 -145 -78t-169 -28q-106 0 -198.5 37t-161.5 102t-108.5 154.5t-39.5 194.5zM550 1232l184 178q11 11 24 18.5t30 7.5q29 0 46.5 -17.5t17.5 -44.5q0 -18 -7.5 -30.5 t-18.5 -23.5l-244 -234q-8 -8 -15.5 -13t-16.5 -5q-11 0 -18.5 5t-15.5 13l-244 234q-11 9 -17.5 21.5t-6.5 30.5q0 29 17.5 45.5t44.5 16.5q29 0 50 -18z" glyph-name="ccaron" horiz-adv-x="1004" unicode="č"/><glyph d="M350 174h194q117 0 216 36.5t171 105t112.5 165.5t40.5 219q0 121 -40.5 218.5t-112.5 166t-171 105t-216 36.5h-194v-1052zM246 0q-35 0 -57.5 22.5t-22.5 57.5v1240q0 32 22.5 56t55.5 24h300q100 0 193 -22.5t173.5 -65t146.5 -103.5t113 -139t72.5 -171t25.5 -199 q0 -159 -56.5 -288.5t-154.5 -221t-230 -141t-283 -49.5h-298zM562 1680l184 178q11 11 24 18.5t30 7.5q29 0 46.5 -17.5t17.5 -44.5q0 -18 -7.5 -30.5t-18.5 -23.5l-244 -234q-8 -8 -15.5 -13t-16.5 -5q-11 0 -18.5 5t-15.5 13l-244 234q-11 9 -17.5 21.5t-6.5 30.5 q0 29 17.5 45.5t44.5 16.5q29 0 50 -18z" glyph-name="Dcaron" horiz-adv-x="1372" unicode="Ď"/><glyph d="M1120 64q0 -35 -24.5 -59.5t-59.5 -24.5t-59.5 24.5t-24.5 59.5v104q-62 -94 -158.5 -141t-217.5 -47q-100 0 -188 37t-154 102t-104 154.5t-38 194.5q0 104 38 193t104 154t154 102t188 37q121 0 218.5 -47t157.5 -141v668q0 35 24.5 59.5t59.5 24.5t59.5 -24.5 t24.5 -59.5v-1370zM946 468q0 72 -27 134t-73.5 107t-109 71t-132.5 26q-71 0 -134 -26t-109.5 -71t-73.5 -107t-27 -134q0 -73 27 -135t73.5 -107.5t109.5 -71.5t134 -26q70 0 132.5 26t109 71.5t73.5 107.5t27 135zM1256 1136q0 5 1.5 14t2.5 12l74 266q8 30 28 51t52 21 q33 0 52.5 -22t19.5 -54q0 -11 -3.5 -23t-8.5 -23l-98 -246q-9 -23 -24 -38.5t-38 -15.5q-24 0 -41 17t-17 41z" glyph-name="dcaron" horiz-adv-x="1544" unicode="ď"/><glyph d="M0 696q0 29 18.5 47.5t45.5 18.5h96v558q0 32 22.5 56t57.5 24h298q101 0 194 -22.5t173.5 -65t147 -103.5t113.5 -139t72.5 -171t25.5 -199t-25.5 -199t-72.5 -171t-113.5 -139t-147 -103.5t-173.5 -65t-194 -22.5h-298q-33 0 -56.5 22.5t-23.5 57.5v552h-96 q-27 0 -45.5 17.5t-18.5 46.5zM344 174h196q116 0 215 36.5t171 105t113 165.5t41 219q0 121 -41 218.5t-113 166t-171 105t-215 36.5h-196v-464h284q27 0 46.5 -18.5t19.5 -47.5t-19.5 -46.5t-46.5 -17.5h-284v-458z" glyph-name="Dcroat" horiz-adv-x="1366" unicode="Đ"/><glyph d="M950 1318v116q0 35 24.5 59.5t59.5 24.5t59.5 -24.5t24.5 -59.5v-116h80q27 0 46.5 -19.5t19.5 -46.5q0 -29 -19.5 -47.5t-46.5 -18.5h-80v-1122q0 -35 -24.5 -59.5t-59.5 -24.5t-59.5 24.5t-24.5 59.5v104q-62 -94 -158.5 -141t-217.5 -47q-100 0 -188 37t-154 102 t-104 154.5t-38 194.5q0 104 38 193t104 154t154 102t188 37q121 0 218.5 -47t157.5 -141v420h-442q-27 0 -45.5 18.5t-18.5 47.5q0 27 18.5 46.5t45.5 19.5h442zM944 468q0 72 -27 134t-73.5 107t-109 71t-132.5 26q-71 0 -134 -26t-109.5 -71t-73.5 -107t-27 -134 q0 -73 27 -135t73.5 -107.5t109.5 -71.5t134 -26q70 0 132.5 26t109 71.5t73.5 107.5t27 135z" glyph-name="dcroat" horiz-adv-x="1274" unicode="đ"/><glyph d="M166 1312q0 18 7 34t19 28t28 19t34 7h524q18 0 34 -7t28 -19t19 -28t7 -34q0 -36 -26 -61t-62 -25h-428v-364h380q35 0 59.5 -24.5t24.5 -59.5t-24.5 -59.5t-59.5 -24.5h-380v-520h448q17 0 32.5 -7t27.5 -19t19 -28t7 -34t-7 -33.5t-19 -27.5t-27.5 -18.5t-32.5 -6.5 h-544q-36 0 -62 25t-26 61v1226zM746 1770q27 0 45.5 -18.5t18.5 -47.5q0 -27 -18.5 -45.5t-45.5 -18.5h-484q-27 0 -45.5 18.5t-18.5 45.5q0 29 18.5 47.5t45.5 18.5h484z" glyph-name="Emacron" horiz-adv-x="972" unicode="Ē"/><glyph d="M600 -20q-106 0 -199 37t-162 102t-109 154.5t-40 194.5q0 103 39 192t106 154.5t156.5 102.5t190.5 37q99 0 186 -35t153 -97t106.5 -146.5t46.5 -183.5q2 -23 -14 -43.5t-48 -20.5h-750q10 -68 40 -122t75 -91.5t102.5 -58t122.5 -20.5q44 0 83 10t72.5 28t61.5 42 t51 52q12 15 27.5 23.5t36.5 8.5q35 0 57.5 -23.5t22.5 -58.5q0 -17 -5.5 -29.5t-14.5 -24.5q-75 -88 -173.5 -136t-220.5 -48zM902 554q-11 59 -39 104.5t-70 76.5t-95 47t-114 16q-53 0 -103 -17t-92 -48.5t-73 -76.5t-44 -102h630zM818 1322q27 0 45.5 -18.5t18.5 -47.5 q0 -27 -18.5 -45.5t-45.5 -18.5h-484q-27 0 -45.5 18.5t-18.5 45.5q0 29 18.5 47.5t45.5 18.5h484z" glyph-name="emacron" horiz-adv-x="1162" unicode="ē"/><glyph d="M166 1312q0 18 7 34t19 28t28 19t34 7h524q18 0 34 -7t28 -19t19 -28t7 -34q0 -36 -26 -61t-62 -25h-428v-364h380q35 0 59.5 -24.5t24.5 -59.5t-24.5 -59.5t-59.5 -24.5h-380v-520h448q17 0 32.5 -7t27.5 -19t19 -28t7 -34t-7 -33.5t-19 -27.5t-27.5 -18.5t-32.5 -6.5 h-544q-36 0 -62 25t-26 61v1226zM502 1558q-83 0 -155.5 48.5t-110.5 143.5q-10 23 -10 50q0 35 18 54.5t48 19.5t47 -20.5t23 -47.5q5 -24 17 -45.5t30 -37.5t41 -25.5t52 -9.5q28 0 51.5 9.5t41.5 25.5t30 37.5t17 45.5q6 27 23 47.5t47 20.5t48 -19.5t18 -54.5 q0 -27 -10 -50q-38 -95 -110.5 -143.5t-155.5 -48.5z" glyph-name="Ebreve" horiz-adv-x="972" unicode="Ĕ"/><glyph d="M600 -20q-106 0 -199 37t-162 102t-109 154.5t-40 194.5q0 103 39 192t106 154.5t156.5 102.5t190.5 37q99 0 186 -35t153 -97t106.5 -146.5t46.5 -183.5q2 -23 -14 -43.5t-48 -20.5h-750q10 -68 40 -122t75 -91.5t102.5 -58t122.5 -20.5q44 0 83 10t72.5 28t61.5 42 t51 52q12 15 27.5 23.5t36.5 8.5q35 0 57.5 -23.5t22.5 -58.5q0 -17 -5.5 -29.5t-14.5 -24.5q-75 -88 -173.5 -136t-220.5 -48zM902 554q-11 59 -39 104.5t-70 76.5t-95 47t-114 16q-53 0 -103 -17t-92 -48.5t-73 -76.5t-44 -102h630zM576 1110q-83 0 -155.5 48.5 t-110.5 143.5q-10 23 -10 50q0 35 18 54.5t48 19.5t47 -20.5t23 -47.5q5 -24 17 -45.5t30 -37.5t41 -25.5t52 -9.5q28 0 51.5 9.5t41.5 25.5t30 37.5t17 45.5q6 27 23 47.5t47 20.5t48 -19.5t18 -54.5q0 -27 -10 -50q-38 -95 -110.5 -143.5t-155.5 -48.5z" glyph-name="ebreve" horiz-adv-x="1162" unicode="ĕ"/><glyph d="M166 1312q0 18 7 34t19 28t28 19t34 7h524q18 0 34 -7t28 -19t19 -28t7 -34q0 -36 -26 -61t-62 -25h-428v-364h380q35 0 59.5 -24.5t24.5 -59.5t-24.5 -59.5t-59.5 -24.5h-380v-520h448q17 0 32.5 -7t27.5 -19t19 -28t7 -34t-7 -33.5t-19 -27.5t-27.5 -18.5t-32.5 -6.5 h-544q-36 0 -62 25t-26 61v1226zM502 1606q-21 0 -39.5 7.5t-32.5 21t-22 32t-8 39.5q0 20 8 38t22 31.5t32.5 21t39.5 7.5t39 -7.5t31.5 -21t21.5 -31.5t8 -38q0 -21 -8 -39.5t-21.5 -32t-31.5 -21t-39 -7.5z" glyph-name="Edotaccent" horiz-adv-x="972" unicode="Ė"/><glyph d="M600 -20q-106 0 -199 37t-162 102t-109 154.5t-40 194.5q0 103 39 192t106 154.5t156.5 102.5t190.5 37q99 0 186 -35t153 -97t106.5 -146.5t46.5 -183.5q2 -23 -14 -43.5t-48 -20.5h-750q10 -68 40 -122t75 -91.5t102.5 -58t122.5 -20.5q44 0 83 10t72.5 28t61.5 42 t51 52q12 15 27.5 23.5t36.5 8.5q35 0 57.5 -23.5t22.5 -58.5q0 -17 -5.5 -29.5t-14.5 -24.5q-75 -88 -173.5 -136t-220.5 -48zM902 554q-11 59 -39 104.5t-70 76.5t-95 47t-114 16q-53 0 -103 -17t-92 -48.5t-73 -76.5t-44 -102h630zM576 1158q-21 0 -39.5 7.5t-32.5 21 t-22 32t-8 39.5q0 20 8 38t22 31.5t32.5 21t39.5 7.5t39 -7.5t31.5 -21t21.5 -31.5t8 -38q0 -21 -8 -39.5t-21.5 -32t-31.5 -21t-39 -7.5z" glyph-name="edotaccent" horiz-adv-x="1162" unicode="ė"/><glyph d="M826 -414q-23 -12 -52 -18t-62 -6q-50 0 -89.5 16.5t-67 43.5t-42.5 63t-15 75q0 63 34.5 125t105.5 115h-384q-36 0 -62 25t-26 61v1226q0 18 7 34t19 28t28 19t34 7h524q18 0 34 -7t28 -19t19 -28t7 -34q0 -36 -26 -61t-62 -25h-428v-364h380q35 0 59.5 -24.5 t24.5 -59.5t-24.5 -59.5t-59.5 -24.5h-380v-520h448q17 0 32.5 -7t27.5 -19t19 -28t7 -34q0 -41 -29.5 -63.5t-70.5 -22.5h-24q-60 -51 -94 -108t-34 -108q0 -28 9 -48t24.5 -33t35.5 -19t43 -6q17 0 30 6t28 6q23 0 39.5 -16t16.5 -40q0 -14 -9 -27t-23 -21z" glyph-name="Eogonek" horiz-adv-x="972" unicode="Ę"/><glyph d="M760 -416q-26 -12 -52.5 -17t-59.5 -5q-50 0 -89.5 16.5t-67 43.5t-42.5 63t-15 75q0 57 29.5 115.5t88.5 108.5q-98 7 -182 46.5t-146.5 104t-98 149.5t-35.5 184q0 103 39 192t106 154.5t156.5 102.5t190.5 37q99 0 186.5 -35t153.5 -97t106.5 -146.5t45.5 -183.5 q2 -23 -14 -43.5t-48 -20.5h-750q10 -68 40 -122t75 -91.5t102.5 -58t122.5 -20.5q44 0 83 10t72.5 28t61.5 42t51 52q12 15 27.5 23.5t36.5 8.5q35 0 57.5 -23.5t22.5 -58.5q0 -17 -5.5 -29.5t-14.5 -24.5q-63 -72 -141 -118t-175 -60q-50 -47 -80 -101t-30 -101 q0 -50 32.5 -78t79.5 -28q15 0 28 6t30 6q23 0 38.5 -16t15.5 -40q0 -15 -9 -29.5t-23 -20.5zM902 554q-11 59 -39 104.5t-70 76.5t-95 47t-114 16q-53 0 -103 -17t-92 -48.5t-73 -76.5t-44 -102h630z" glyph-name="eogonek" horiz-adv-x="1162" unicode="ę"/><glyph d="M166 1312q0 18 7 34t19 28t28 19t34 7h524q18 0 34 -7t28 -19t19 -28t7 -34q0 -36 -26 -61t-62 -25h-428v-364h380q35 0 59.5 -24.5t24.5 -59.5t-24.5 -59.5t-59.5 -24.5h-380v-520h448q17 0 32.5 -7t27.5 -19t19 -28t7 -34t-7 -33.5t-19 -27.5t-27.5 -18.5t-32.5 -6.5 h-544q-36 0 -62 25t-26 61v1226zM500 1680l184 178q11 11 24 18.5t30 7.5q29 0 46.5 -17.5t17.5 -44.5q0 -18 -7.5 -30.5t-18.5 -23.5l-244 -234q-8 -8 -15.5 -13t-16.5 -5q-11 0 -18.5 5t-15.5 13l-244 234q-11 9 -17.5 21.5t-6.5 30.5q0 29 17.5 45.5t44.5 16.5 q29 0 50 -18z" glyph-name="Ecaron" horiz-adv-x="972" unicode="Ě"/><glyph d="M600 -20q-106 0 -199 37t-162 102t-109 154.5t-40 194.5q0 103 39 192t106 154.5t156.5 102.5t190.5 37q99 0 186 -35t153 -97t106.5 -146.5t46.5 -183.5q2 -23 -14 -43.5t-48 -20.5h-750q10 -68 40 -122t75 -91.5t102.5 -58t122.5 -20.5q44 0 83 10t72.5 28t61.5 42 t51 52q12 15 27.5 23.5t36.5 8.5q35 0 57.5 -23.5t22.5 -58.5q0 -17 -5.5 -29.5t-14.5 -24.5q-75 -88 -173.5 -136t-220.5 -48zM902 554q-11 59 -39 104.5t-70 76.5t-95 47t-114 16q-53 0 -103 -17t-92 -48.5t-73 -76.5t-44 -102h630zM572 1232l184 178q11 11 24 18.5 t30 7.5q29 0 46.5 -17.5t17.5 -44.5q0 -18 -7.5 -30.5t-18.5 -23.5l-244 -234q-8 -8 -15.5 -13t-16.5 -5q-11 0 -18.5 5t-15.5 13l-244 234q-11 9 -17.5 21.5t-6.5 30.5q0 29 17.5 45.5t44.5 16.5q29 0 50 -18z" glyph-name="ecaron" horiz-adv-x="1162" unicode="ě"/><glyph d="M838 1246q-114 0 -214.5 -41t-175.5 -113.5t-118.5 -173t-43.5 -218.5q0 -119 43.5 -219.5t118.5 -173t175.5 -113t214.5 -40.5q97 0 176.5 31t138 86.5t96 130.5t51.5 164h-300q-18 0 -34 7t-28 19t-19 27.5t-7 32.5q0 18 7 34t19 28t28 19t34 7h408q36 0 61 -26t25 -62 v-8q0 -140 -48.5 -261t-135.5 -210.5t-207.5 -141t-264.5 -51.5q-151 0 -284.5 54.5t-234 151t-159 228t-58.5 286.5q0 154 58.5 285.5t159 228t234 151.5t284.5 55q85 0 163 -17.5t148 -50t131.5 -79.5t113.5 -105q12 -14 19 -29t7 -33q0 -19 -7 -35.5t-19 -28.5t-28 -19 t-34 -7q-23 0 -40.5 9.5t-29.5 24.5q-75 92 -185.5 144t-238.5 52zM606 1542q-21 -18 -50 -18q-27 0 -44.5 17.5t-17.5 44.5q0 18 7.5 31.5t18.5 22.5l244 234q6 6 13.5 12t18.5 6t18.5 -6t13.5 -12l244 -234q11 -11 18.5 -23.5t7.5 -30.5q0 -27 -17.5 -44.5t-44.5 -17.5 q-29 0 -50 18l-190 184z" glyph-name="Gcircumflex" horiz-adv-x="1586" unicode="Ĝ"/><glyph d="M166 -322q0 33 23 56.5t53 23.5q24 0 41 -12t31 -32q44 -60 114.5 -95t155.5 -35q79 0 146.5 22.5t116 72.5t76 130t27.5 195v164q-62 -94 -158.5 -141t-217.5 -47q-100 0 -188 37t-154 102t-104 154.5t-38 194.5q0 104 38 193t104 154t154 102t188 37q121 0 218.5 -47 t157.5 -141v104q0 35 24.5 59.5t59.5 24.5t59.5 -24.5t24.5 -59.5v-846q0 -167 -41.5 -280t-113.5 -181.5t-169.5 -97.5t-209.5 -29q-55 0 -108 10.5t-103 32.5t-95.5 56.5t-85.5 82.5q-11 14 -18.5 28.5t-7.5 31.5zM944 468q0 72 -27 134t-73.5 107t-109 71t-132.5 26 q-71 0 -134 -26t-109.5 -71t-73.5 -107t-27 -134q0 -73 27 -135t73.5 -107.5t109.5 -71.5t134 -26q70 0 132.5 26t109 71.5t73.5 107.5t27 135zM412 1094q-21 -18 -50 -18q-27 0 -44.5 17.5t-17.5 44.5q0 18 7.5 31.5t18.5 22.5l244 234q6 6 13.5 12t18.5 6t18.5 -6 t13.5 -12l244 -234q11 -11 18.5 -23.5t7.5 -30.5q0 -27 -17.5 -44.5t-44.5 -17.5q-29 0 -50 18l-190 184z" glyph-name="gcircumflex" horiz-adv-x="1274" unicode="ĝ"/><glyph d="M838 1246q-114 0 -214.5 -41t-175.5 -113.5t-118.5 -173t-43.5 -218.5q0 -119 43.5 -219.5t118.5 -173t175.5 -113t214.5 -40.5q97 0 176.5 31t138 86.5t96 130.5t51.5 164h-300q-18 0 -34 7t-28 19t-19 27.5t-7 32.5q0 18 7 34t19 28t28 19t34 7h408q36 0 61 -26t25 -62 v-8q0 -140 -48.5 -261t-135.5 -210.5t-207.5 -141t-264.5 -51.5q-151 0 -284.5 54.5t-234 151t-159 228t-58.5 286.5q0 154 58.5 285.5t159 228t234 151.5t284.5 55q85 0 163 -17.5t148 -50t131.5 -79.5t113.5 -105q12 -14 19 -29t7 -33q0 -19 -7 -35.5t-19 -28.5t-28 -19 t-34 -7q-23 0 -40.5 9.5t-29.5 24.5q-75 92 -185.5 144t-238.5 52zM798 1558q-83 0 -155.5 48.5t-110.5 143.5q-10 23 -10 50q0 35 18 54.5t48 19.5t47 -20.5t23 -47.5q5 -24 17 -45.5t30 -37.5t41 -25.5t52 -9.5q28 0 51.5 9.5t41.5 25.5t30 37.5t17 45.5q6 27 23 47.5 t47 20.5t48 -19.5t18 -54.5q0 -27 -10 -50q-38 -95 -110.5 -143.5t-155.5 -48.5z" glyph-name="Gbreve" horiz-adv-x="1586" unicode="Ğ"/><glyph d="M166 -322q0 33 23 56.5t53 23.5q24 0 41 -12t31 -32q44 -60 114.5 -95t155.5 -35q79 0 146.5 22.5t116 72.5t76 130t27.5 195v164q-62 -94 -158.5 -141t-217.5 -47q-100 0 -188 37t-154 102t-104 154.5t-38 194.5q0 104 38 193t104 154t154 102t188 37q121 0 218.5 -47 t157.5 -141v104q0 35 24.5 59.5t59.5 24.5t59.5 -24.5t24.5 -59.5v-846q0 -167 -41.5 -280t-113.5 -181.5t-169.5 -97.5t-209.5 -29q-55 0 -108 10.5t-103 32.5t-95.5 56.5t-85.5 82.5q-11 14 -18.5 28.5t-7.5 31.5zM944 468q0 72 -27 134t-73.5 107t-109 71t-132.5 26 q-71 0 -134 -26t-109.5 -71t-73.5 -107t-27 -134q0 -73 27 -135t73.5 -107.5t109.5 -71.5t134 -26q70 0 132.5 26t109 71.5t73.5 107.5t27 135zM594 1110q-83 0 -155.5 48.5t-110.5 143.5q-10 23 -10 50q0 35 18 54.5t48 19.5t47 -20.5t23 -47.5q5 -24 17 -45.5t30 -37.5 t41 -25.5t52 -9.5q28 0 51.5 9.5t41.5 25.5t30 37.5t17 45.5q6 27 23 47.5t47 20.5t48 -19.5t18 -54.5q0 -27 -10 -50q-38 -95 -110.5 -143.5t-155.5 -48.5z" glyph-name="gbreve" horiz-adv-x="1276" unicode="ğ"/><glyph d="M838 1246q-114 0 -214.5 -41t-175.5 -113.5t-118.5 -173t-43.5 -218.5q0 -119 43.5 -219.5t118.5 -173t175.5 -113t214.5 -40.5q97 0 176.5 31t138 86.5t96 130.5t51.5 164h-300q-18 0 -34 7t-28 19t-19 27.5t-7 32.5q0 18 7 34t19 28t28 19t34 7h408q36 0 61 -26t25 -62 v-8q0 -140 -48.5 -261t-135.5 -210.5t-207.5 -141t-264.5 -51.5q-151 0 -284.5 54.5t-234 151t-159 228t-58.5 286.5q0 154 58.5 285.5t159 228t234 151.5t284.5 55q85 0 163 -17.5t148 -50t131.5 -79.5t113.5 -105q12 -14 19 -29t7 -33q0 -19 -7 -35.5t-19 -28.5t-28 -19 t-34 -7q-23 0 -40.5 9.5t-29.5 24.5q-75 92 -185.5 144t-238.5 52zM798 1606q-21 0 -39.5 7.5t-32.5 21t-22 32t-8 39.5q0 20 8 38t22 31.5t32.5 21t39.5 7.5t39 -7.5t31.5 -21t21.5 -31.5t8 -38q0 -21 -8 -39.5t-21.5 -32t-31.5 -21t-39 -7.5z" glyph-name="Gdotaccent" horiz-adv-x="1586" unicode="Ġ"/><glyph d="M166 -322q0 33 23 56.5t53 23.5q24 0 41 -12t31 -32q44 -60 114.5 -95t155.5 -35q79 0 146.5 22.5t116 72.5t76 130t27.5 195v164q-62 -94 -158.5 -141t-217.5 -47q-100 0 -188 37t-154 102t-104 154.5t-38 194.5q0 104 38 193t104 154t154 102t188 37q121 0 218.5 -47 t157.5 -141v104q0 35 24.5 59.5t59.5 24.5t59.5 -24.5t24.5 -59.5v-846q0 -167 -41.5 -280t-113.5 -181.5t-169.5 -97.5t-209.5 -29q-55 0 -108 10.5t-103 32.5t-95.5 56.5t-85.5 82.5q-11 14 -18.5 28.5t-7.5 31.5zM944 468q0 72 -27 134t-73.5 107t-109 71t-132.5 26 q-71 0 -134 -26t-109.5 -71t-73.5 -107t-27 -134q0 -73 27 -135t73.5 -107.5t109.5 -71.5t134 -26q70 0 132.5 26t109 71.5t73.5 107.5t27 135zM588 1158q-21 0 -39.5 7.5t-32.5 21t-22 32t-8 39.5q0 20 8 38t22 31.5t32.5 21t39.5 7.5t39 -7.5t31.5 -21t21.5 -31.5t8 -38 q0 -21 -8 -39.5t-21.5 -32t-31.5 -21t-39 -7.5z" glyph-name="gdotaccent" horiz-adv-x="1274" unicode="ġ"/><glyph d="M838 1246q-114 0 -214.5 -41t-175.5 -113.5t-118.5 -173t-43.5 -218.5q0 -119 43.5 -219.5t118.5 -173t175.5 -113t214.5 -40.5q97 0 176.5 31t138 86.5t96 130.5t51.5 164h-300q-18 0 -34 7t-28 19t-19 27.5t-7 32.5q0 18 7 34t19 28t28 19t34 7h408q36 0 61 -26t25 -62 v-8q0 -140 -48.5 -261t-135.5 -210.5t-207.5 -141t-264.5 -51.5q-151 0 -284.5 54.5t-234 151t-159 228t-58.5 286.5q0 154 58.5 285.5t159 228t234 151.5t284.5 55q85 0 163 -17.5t148 -50t131.5 -79.5t113.5 -105q12 -14 19 -29t7 -33q0 -19 -7 -35.5t-19 -28.5t-28 -19 t-34 -7q-23 0 -40.5 9.5t-29.5 24.5q-75 92 -185.5 144t-238.5 52zM692 -506q0 5 1 14t3 12l74 266q9 30 28.5 51t51.5 21q33 0 52.5 -22t19.5 -54q0 -11 -3.5 -23t-8.5 -23l-98 -246q-9 -23 -24 -38.5t-38 -15.5q-24 0 -41 17t-17 41z" glyph-name="uni0122" horiz-adv-x="1586" unicode="Ģ"/><glyph d="M166 -322q0 33 23 56.5t53 23.5q24 0 41 -12t31 -32q44 -60 114.5 -95t155.5 -35q79 0 146.5 22.5t116 72.5t76 130t27.5 195v164q-62 -94 -158.5 -141t-217.5 -47q-100 0 -188 37t-154 102t-104 154.5t-38 194.5q0 104 38 193t104 154t154 102t188 37q121 0 218.5 -47 t157.5 -141v104q0 35 24.5 59.5t59.5 24.5t59.5 -24.5t24.5 -59.5v-846q0 -167 -41.5 -280t-113.5 -181.5t-169.5 -97.5t-209.5 -29q-55 0 -108 10.5t-103 32.5t-95.5 56.5t-85.5 82.5q-11 14 -18.5 28.5t-7.5 31.5zM944 468q0 72 -27 134t-73.5 107t-109 71t-132.5 26 q-71 0 -134 -26t-109.5 -71t-73.5 -107t-27 -134q0 -73 27 -135t73.5 -107.5t109.5 -71.5t134 -26q70 0 132.5 26t109 71.5t73.5 107.5t27 135zM726 1414q0 -5 -1 -14t-3 -12l-74 -266q-9 -30 -28.5 -51t-51.5 -21q-33 0 -52.5 22t-19.5 54q0 11 3.5 23t8.5 23l98 246 q9 23 24 38.5t38 15.5q24 0 41 -17t17 -41z" glyph-name="uni0123" horiz-adv-x="1274" unicode="ģ"/><glyph d="M1138 72q0 -38 -27 -65t-65 -27q-20 0 -36.5 7.5t-29 20t-19.5 29t-7 35.5v608h-604v-608q0 -38 -27 -65t-65 -27q-20 0 -36.5 7.5t-29 20t-19.5 29t-7 35.5v1256q0 19 7 35.5t19.5 29t29 20t36.5 7.5q38 0 65 -27t27 -65v-474h604v474q0 19 7 35.5t19.5 29t29 20 t36.5 7.5q38 0 65 -27t27 -65v-1256zM460 1542q-21 -18 -50 -18q-27 0 -44.5 17.5t-17.5 44.5q0 18 7.5 31.5t18.5 22.5l244 234q6 6 13.5 12t18.5 6t18.5 -6t13.5 -12l244 -234q11 -11 18.5 -23.5t7.5 -30.5q0 -27 -17.5 -44.5t-44.5 -17.5q-29 0 -50 18l-190 184z" glyph-name="Hcircumflex" horiz-adv-x="1304" unicode="Ĥ"/><glyph d="M310 814q103 140 278 140q68 0 130 -24.5t109 -71t75 -113t28 -149.5v-532q0 -35 -24.5 -59.5t-59.5 -24.5t-59.5 24.5t-24.5 59.5v496q0 52 -16.5 97t-46.5 78t-71.5 52t-91.5 19t-91.5 -18.5t-71.5 -51.5t-46.5 -77.5t-16.5 -96.5v-498q0 -35 -24.5 -59.5t-59.5 -24.5 t-59.5 24.5t-24.5 59.5v1368q0 35 24.5 59.5t59.5 24.5t59.5 -24.5t24.5 -59.5v-618zM36 1542q-21 -18 -50 -18q-27 0 -44.5 17.5t-17.5 44.5q0 18 7.5 31.5t18.5 22.5l244 234q6 6 13.5 12t18.5 6t18.5 -6t13.5 -12l244 -234q11 -11 18.5 -23.5t7.5 -30.5 q0 -27 -17.5 -44.5t-44.5 -17.5q-29 0 -50 18l-190 184z" glyph-name="hcircumflex" horiz-adv-x="1076" unicode="ĥ"/><glyph d="M1134 72q0 -38 -27 -65t-65 -27q-20 0 -36.5 7.5t-29 20t-19.5 29t-7 35.5v608h-604v-608q0 -38 -27 -65t-65 -27q-20 0 -36.5 7.5t-29 20t-19.5 29t-7 35.5v1004h-74q-29 0 -47.5 17.5t-18.5 46.5t18.5 47.5t47.5 18.5h74v120q0 19 7 35.5t19.5 29t29 20t36.5 7.5 q38 0 65 -27t27 -65v-120h604v120q0 19 7 35.5t19.5 29t29 20t36.5 7.5q38 0 65 -27t27 -65v-120h72q29 0 47.5 -18.5t18.5 -47.5t-18.5 -46.5t-47.5 -17.5h-72v-1004zM950 854v222h-604v-222h604z" glyph-name="Hbar" horiz-adv-x="1296" unicode="Ħ"/><glyph d="M320 814q103 140 278 140q68 0 130 -25t109 -71.5t75 -113t28 -148.5v-532q0 -35 -24.5 -59.5t-59.5 -24.5t-59.5 24.5t-24.5 59.5v496q0 52 -17 97t-47 78t-71.5 52t-90.5 19q-50 0 -91.5 -18.5t-71.5 -51.5t-46.5 -77.5t-16.5 -96.5v-498q0 -35 -24.5 -59.5 t-59.5 -24.5t-59.5 24.5t-24.5 59.5v1126h-84q-27 0 -45.5 18.5t-18.5 45.5q0 29 18.5 47.5t45.5 18.5h84v114q0 35 24.5 59.5t59.5 24.5t59.5 -24.5t24.5 -59.5v-114h262q27 0 46.5 -18.5t19.5 -47.5q0 -27 -19.5 -45.5t-46.5 -18.5h-262v-376z" glyph-name="hbar" horiz-adv-x="1082" unicode="ħ"/><glyph d="M370 72q0 -19 -7 -35.5t-19.5 -29t-29.5 -20t-36 -7.5q-38 0 -65 27t-27 65v1256q0 38 27 65t65 27q19 0 36 -7.5t29.5 -20t19.5 -29t7 -35.5v-1256zM146 1828q47 0 83.5 -17.5t68.5 -44.5q26 -23 47 -38.5t53 -15.5q31 0 44 15.5t22.5 34.5t22 34.5t41.5 15.5 q11 0 23 -4t21.5 -11.5t15.5 -19t6 -25.5q0 -37 -17.5 -68t-44.5 -53.5t-59.5 -35.5t-62.5 -13q-45 0 -81 15.5t-69 44.5q-29 24 -51 40t-51 16q-31 0 -44.5 -15.5t-23 -34.5t-22 -34.5t-40.5 -15.5q-11 0 -23 4.5t-21.5 12.5t-15.5 20t-6 27q0 37 18 67.5t45 52.5t59.5 34 t61.5 12z" glyph-name="Itilde" horiz-adv-x="558" unicode="Ĩ"/><glyph d="M118 1380q47 0 83.5 -17.5t68.5 -44.5q26 -23 47 -38.5t53 -15.5q31 0 44 15.5t22.5 34.5t22 34.5t41.5 15.5q11 0 23 -4t21.5 -11.5t15.5 -19t6 -25.5q0 -37 -17.5 -68t-44.5 -53.5t-59.5 -35.5t-62.5 -13q-45 0 -81 15.5t-69 44.5q-29 24 -51 40t-51 16 q-31 0 -44.5 -15.5t-23 -34.5t-22 -34.5t-40.5 -15.5q-11 0 -23 4.5t-21.5 12.5t-15.5 20t-6 27q0 37 18 67.5t45 52.5t59.5 34t61.5 12zM166 870q0 35 25 59.5t61 24.5q35 0 59.5 -24.5t24.5 -59.5v-806q0 -35 -24.5 -59.5t-59.5 -24.5q-36 0 -61 24.5t-25 59.5v806z" glyph-name="itilde" horiz-adv-x="504" unicode="ĩ"/><glyph d="M370 72q0 -19 -7 -35.5t-19.5 -29t-29.5 -20t-36 -7.5q-38 0 -65 27t-27 65v1256q0 38 27 65t65 27q19 0 36 -7.5t29.5 -20t19.5 -29t7 -35.5v-1256zM522 1770q27 0 45.5 -18.5t18.5 -47.5q0 -27 -18.5 -45.5t-45.5 -18.5h-484q-27 0 -45.5 18.5t-18.5 45.5 q0 29 18.5 47.5t45.5 18.5h484z" glyph-name="Imacron" horiz-adv-x="558" unicode="Ī"/><glyph d="M492 1322q27 0 45.5 -18.5t18.5 -47.5q0 -27 -18.5 -45.5t-45.5 -18.5h-484q-27 0 -45.5 18.5t-18.5 45.5q0 29 18.5 47.5t45.5 18.5h484zM166 870q0 35 25 59.5t61 24.5q35 0 59.5 -24.5t24.5 -59.5v-806q0 -35 -24.5 -59.5t-59.5 -24.5q-36 0 -61 24.5t-25 59.5v806z" glyph-name="imacron" horiz-adv-x="504" unicode="ī"/><glyph d="M370 72q0 -19 -7 -35.5t-19.5 -29t-29.5 -20t-36 -7.5q-38 0 -65 27t-27 65v1256q0 38 27 65t65 27q19 0 36 -7.5t29.5 -20t19.5 -29t7 -35.5v-1256zM280 1558q-83 0 -155.5 48.5t-110.5 143.5q-10 23 -10 50q0 35 18 54.5t48 19.5t47 -20.5t23 -47.5q5 -24 17 -45.5 t30 -37.5t41 -25.5t52 -9.5q28 0 51.5 9.5t41.5 25.5t30 37.5t17 45.5q6 27 23 47.5t47 20.5t48 -19.5t18 -54.5q0 -27 -10 -50q-38 -95 -110.5 -143.5t-155.5 -48.5z" glyph-name="Ibreve" horiz-adv-x="558" unicode="Ĭ"/><glyph d="M250 1110q-83 0 -155.5 48.5t-110.5 143.5q-10 23 -10 50q0 35 18 54.5t48 19.5t47 -20.5t23 -47.5q5 -24 17 -45.5t30 -37.5t41 -25.5t52 -9.5q28 0 51.5 9.5t41.5 25.5t30 37.5t17 45.5q6 27 23 47.5t47 20.5t48 -19.5t18 -54.5q0 -27 -10 -50q-38 -95 -110.5 -143.5 t-155.5 -48.5zM166 870q0 35 25 59.5t61 24.5q35 0 59.5 -24.5t24.5 -59.5v-806q0 -35 -24.5 -59.5t-59.5 -24.5q-36 0 -61 24.5t-25 59.5v806z" glyph-name="ibreve" horiz-adv-x="504" unicode="ĭ"/><glyph d="M396 -416q-26 -12 -52.5 -17t-59.5 -5q-50 0 -89.5 16.5t-67 43.5t-42.5 63t-15 75q0 65 36 127t110 115q-14 15 -22 36t-8 48v1240q0 38 27 65t65 27q19 0 36 -7.5t29.5 -20t19.5 -29t7 -35.5v-1252q0 -27 -13 -48.5t-33 -33.5q-57 -51 -88.5 -104.5t-31.5 -103.5 t32.5 -78t79.5 -28q15 0 28 6t30 6q23 0 38.5 -16t15.5 -40q0 -15 -9 -29.5t-23 -20.5z" glyph-name="Iogonek" horiz-adv-x="558" unicode="Į"/><glyph d="M166 832q0 21 3.5 42.5t13 39.5t26.5 29t43 11q25 0 41 -11t25.5 -28.5t13.5 -39t4 -43.5v-768q0 -24 -13 -43.5t-31 -30.5q-56 -50 -87 -103t-31 -103t32.5 -78t77.5 -28q18 0 30.5 6t27.5 6q24 0 40 -16t16 -40q0 -21 -14 -35t-35 -22t-46.5 -11.5t-48.5 -3.5 q-50 0 -89.5 16.5t-68 43.5t-43.5 63t-15 75q0 65 38.5 128.5t113.5 117.5q-11 11 -17.5 25.5t-6.5 32.5v768zM366 1314q0 -25 -9 -46t-24.5 -36.5t-36.5 -24.5t-44 -9q-24 0 -45 9t-37 24.5t-25 36.5t-9 46q0 24 9 45t25 36t37 24t45 9q23 0 44 -9t36.5 -24t24.5 -36t9 -45 z" glyph-name="iogonek" horiz-adv-x="504" unicode="į"/><glyph d="M370 72q0 -19 -7 -35.5t-19.5 -29t-29.5 -20t-36 -7.5q-38 0 -65 27t-27 65v1256q0 38 27 65t65 27q19 0 36 -7.5t29.5 -20t19.5 -29t7 -35.5v-1256zM278 1606q-21 0 -39.5 7.5t-32.5 21t-22 32t-8 39.5q0 20 8 38t22 31.5t32.5 21t39.5 7.5t39 -7.5t31.5 -21t21.5 -31.5 t8 -38q0 -21 -8 -39.5t-21.5 -32t-31.5 -21t-39 -7.5z" glyph-name="Idotaccent" horiz-adv-x="558" unicode="İ"/><glyph d="M166 870q0 35 25 59.5t61 24.5q35 0 59.5 -24.5t24.5 -59.5v-806q0 -35 -24.5 -59.5t-59.5 -24.5q-36 0 -61 24.5t-25 59.5v806z" glyph-name="dotlessi" horiz-adv-x="504" unicode="ı"/><glyph d="M370 72q0 -19 -7 -35.5t-19.5 -29t-29.5 -20t-36 -7.5q-38 0 -65 27t-27 65v1256q0 38 27 65t65 27q19 0 36 -7.5t29.5 -20t19.5 -29t7 -35.5v-1256zM490 172q0 36 25 62t61 26q18 0 34.5 -6t27.5 -20q29 -35 70.5 -57.5t89.5 -22.5q100 0 149 71t49 205v898q0 38 27 65 t65 27t65 -27t27 -65v-906q0 -114 -28 -197.5t-78 -137.5t-119.5 -80.5t-152.5 -26.5q-80 0 -151.5 33.5t-124.5 84.5q-17 17 -26.5 34t-9.5 40z" glyph-name="IJ" horiz-adv-x="1350" unicode="Ĳ"/><glyph d="M366 1314q0 -25 -9 -46t-24.5 -36.5t-36.5 -24.5t-44 -9q-24 0 -45 9t-37 24.5t-25 36.5t-9 46q0 24 9 45t25 36t37 24t45 9q23 0 44 -9t36.5 -24t24.5 -36t9 -45zM166 870q0 35 25 59.5t61 24.5q35 0 59.5 -24.5t24.5 -59.5v-806q0 -35 -24.5 -59.5t-59.5 -24.5 q-36 0 -61 24.5t-25 59.5v806zM290 -412q0 33 23 54.5t53 21.5q35 0 56 -24q26 -27 60 -41.5t70 -14.5q90 0 128 65t38 179v1042q0 35 24.5 59.5t59.5 24.5t59.5 -24.5t24.5 -59.5v-1046q0 -187 -83.5 -287.5t-244.5 -100.5q-69 0 -133.5 26.5t-112.5 73.5 q-11 11 -16.5 24.5t-5.5 27.5zM916 1314q0 -25 -9 -46t-24.5 -36.5t-36.5 -24.5t-44 -9q-24 0 -45 9t-36 24.5t-24 36.5t-9 46q0 24 9 45t24 36t36 24t45 9q23 0 44 -9t36.5 -24t24.5 -36t9 -45z" glyph-name="ij" horiz-adv-x="1046" unicode="ĳ"/><glyph d="M6 172q0 36 25 62t61 26q18 0 34.5 -6t27.5 -20q29 -35 70.5 -57.5t89.5 -22.5q100 0 149 71t49 205v898q0 38 27 65t65 27t65 -27t27 -65v-906q0 -114 -28 -197.5t-78 -137.5t-119.5 -80.5t-152.5 -26.5q-80 0 -151.5 33.5t-124.5 84.5q-17 17 -26.5 34t-9.5 40z M416 1542q-21 -18 -50 -18q-27 0 -44.5 17.5t-17.5 44.5q0 18 7.5 31.5t18.5 22.5l244 234q6 6 13.5 12t18.5 6t18.5 -6t13.5 -12l244 -234q11 -11 18.5 -23.5t7.5 -30.5q0 -27 -17.5 -44.5t-44.5 -17.5q-29 0 -50 18l-190 184z" glyph-name="Jcircumflex" horiz-adv-x="858" unicode="Ĵ"/><glyph d="M-246 -412q0 33 22.5 54.5t51.5 21.5q37 0 58 -24q26 -27 60 -41.5t70 -14.5q90 0 128 65t38 179v1042q0 35 24.5 59.5t59.5 24.5t59.5 -24.5t24.5 -59.5v-1046q0 -187 -83.5 -287.5t-244.5 -100.5q-69 0 -134 26.5t-112 73.5q-11 11 -16.5 24.5t-5.5 27.5zM78 1094 q-21 -18 -50 -18q-27 0 -44.5 17.5t-17.5 44.5q0 18 7.5 31.5t18.5 22.5l244 234q6 6 13.5 12t18.5 6t18.5 -6t13.5 -12l244 -234q11 -11 18.5 -23.5t7.5 -30.5q0 -27 -17.5 -44.5t-44.5 -17.5q-29 0 -50 18l-190 184z" glyph-name="jcircumflex" horiz-adv-x="504" unicode="ĵ"/><glyph d="M344 714l554 672q12 15 30.5 24.5t39.5 9.5q38 0 65 -27t27 -65q0 -18 -7.5 -33t-18.5 -29l-464 -552l542 -576q26 -29 26 -66q0 -19 -7.5 -35.5t-21 -29t-31 -20t-36.5 -7.5q-41 0 -70 32l-628 702v-642q0 -19 -7 -35.5t-19.5 -29t-29.5 -20t-36 -7.5q-38 0 -65 27 t-27 65v1256q0 38 27 65t65 27q19 0 36 -7.5t29.5 -20t19.5 -29t7 -35.5v-614zM504 -506q0 5 1 14t3 12l74 266q9 30 28.5 51t51.5 21q33 0 52.5 -22t19.5 -54q0 -11 -3.5 -23t-8.5 -23l-98 -246q-9 -23 -24 -38.5t-38 -15.5q-24 0 -41 17t-17 41z" glyph-name="uni0136" horiz-adv-x="1164" unicode="Ķ"/><glyph d="M322 506l454 428q12 11 26 17.5t32 6.5q32 0 55 -22.5t23 -55.5q0 -20 -9 -35t-21 -27l-356 -318l414 -382q26 -26 26 -58q0 -33 -24.5 -56.5t-57.5 -23.5q-34 0 -58 24l-504 502v-442q0 -35 -24.5 -59.5t-59.5 -24.5t-59.5 24.5t-24.5 59.5v1368q0 35 24.5 59.5 t59.5 24.5t59.5 -24.5t24.5 -59.5v-926zM406 -506q0 5 1 14t3 12l74 266q9 30 28.5 51t51.5 21q33 0 52.5 -22t19.5 -54q0 -11 -3.5 -23t-8.5 -23l-98 -246q-9 -23 -24 -38.5t-38 -15.5q-24 0 -41 17t-17 41z" glyph-name="uni0137" horiz-adv-x="1000" unicode="ķ"/><glyph d="M322 506l454 428q12 11 26 17.5t32 6.5q32 0 55 -22.5t23 -55.5q0 -20 -9 -35t-21 -27l-356 -318l410 -382q12 -11 18 -26t6 -32q0 -33 -23.5 -56.5t-56.5 -23.5q-37 0 -58 24l-500 502v-442q0 -35 -24.5 -59.5t-59.5 -24.5t-59.5 24.5t-24.5 59.5v806q0 35 24.5 59.5 t59.5 24.5t59.5 -24.5t24.5 -59.5v-364z" glyph-name="kgreenlandic" horiz-adv-x="1000" unicode="ĸ"/><glyph d="M166 1328q0 19 7 35.5t19.5 29t29 20t36.5 7.5q38 0 65 -27t27 -65v-1154h468q36 0 61 -26t25 -62t-25 -61t-61 -25h-560q-39 0 -65.5 26.5t-26.5 65.5v1236zM534 1826q0 -15 -5 -27t-17 -23l-250 -234q-9 -9 -20.5 -14.5t-25.5 -5.5q-27 0 -46.5 18.5t-19.5 45.5 q0 18 7 29.5t19 22.5l242 230q12 12 24.5 17t27.5 5q26 0 45 -18.5t19 -45.5z" glyph-name="Lacute" horiz-adv-x="928" unicode="Ĺ"/><glyph d="M164 1377q0 33 24.5 56.5t59.5 23.5q17 0 32.5 -6.5t27.5 -17t19 -25.5t7 -31v-1315q0 -34 -25.5 -57.5t-60.5 -23.5t-59.5 23.5t-24.5 57.5v1315zM526 1826q0 -15 -5 -27t-17 -23l-250 -234q-9 -9 -20.5 -14.5t-25.5 -5.5q-27 0 -46.5 18.5t-19.5 45.5q0 18 7 29.5 t19 22.5l242 230q12 12 24.5 17t27.5 5q26 0 45 -18.5t19 -45.5z" glyph-name="lacute" horiz-adv-x="490" unicode="ĺ"/><glyph d="M166 1328q0 19 7 35.5t19.5 29t29 20t36.5 7.5q38 0 65 -27t27 -65v-1154h468q36 0 61 -26t25 -62t-25 -61t-61 -25h-560q-39 0 -65.5 26.5t-26.5 65.5v1236zM374 -506q0 5 1 14t3 12l74 266q9 30 28.5 51t51.5 21q33 0 52.5 -22t19.5 -54q0 -11 -3.5 -23t-8.5 -23 l-98 -246q-9 -23 -24 -38.5t-38 -15.5q-24 0 -41 17t-17 41z" glyph-name="uni013B" horiz-adv-x="930" unicode="Ļ"/><glyph d="M164 1432q0 35 24.5 59.5t59.5 24.5t60.5 -24.5t25.5 -59.5v-1368q0 -35 -25.5 -59.5t-60.5 -24.5t-59.5 24.5t-24.5 59.5v1368zM78 -506q0 5 1 14t3 12l74 266q9 30 28.5 51t51.5 21q33 0 52.5 -22t19.5 -54q0 -11 -3.5 -23t-8.5 -23l-98 -246q-9 -23 -24 -38.5 t-38 -15.5q-24 0 -41 17t-17 41z" glyph-name="uni013C" horiz-adv-x="498" unicode="ļ"/><glyph d="M166 1328q0 19 7 35.5t19.5 29t29 20t36.5 7.5q38 0 65 -27t27 -65v-1154h468q36 0 61 -26t25 -62t-25 -61t-61 -25h-560q-39 0 -65.5 26.5t-26.5 65.5v1236z" glyph-name="Lcaron" horiz-adv-x="930" unicode="Ľ"/><glyph d="M164 1432q0 35 24.5 59.5t59.5 24.5t60.5 -24.5t25.5 -59.5v-1368q0 -35 -25.5 -59.5t-60.5 -24.5t-59.5 24.5t-24.5 59.5v1368z" glyph-name="lcaron" horiz-adv-x="734" unicode="ľ"/><glyph d="M166 1328q0 19 7 35.5t19.5 29t29 20t36.5 7.5q38 0 65 -27t27 -65v-1154h468q36 0 61 -26t25 -62t-25 -61t-61 -25h-560q-39 0 -65.5 26.5t-26.5 65.5v1236zM676 658q-21 0 -39.5 7.5t-32.5 21t-22 32t-8 39.5q0 20 8 38t22 31.5t32.5 21t39.5 7.5t39 -7.5t31.5 -21 t21.5 -31.5t8 -38q0 -21 -8 -39.5t-21.5 -32t-31.5 -21t-39 -7.5z" glyph-name="Ldot" horiz-adv-x="930" unicode="Ŀ"/><glyph d="M164 1432q0 35 24.5 59.5t59.5 24.5t60.5 -24.5t25.5 -59.5v-1368q0 -35 -25.5 -59.5t-60.5 -24.5t-59.5 24.5t-24.5 59.5v1368zM658 658q-21 0 -39.5 7.5t-32.5 21t-22 32t-8 39.5q0 20 8 38t22 31.5t32.5 21t39.5 7.5t39 -7.5t31.5 -21t21.5 -31.5t8 -38 q0 -21 -8 -39.5t-21.5 -32t-31.5 -21t-39 -7.5z" glyph-name="ldot" horiz-adv-x="802" unicode="ŀ"/><glyph d="M160 1334q0 17 8 32.5t21 27t29.5 18t33.5 6.5t33.5 -6.5t29.5 -18t21 -27t8 -32.5v-558l390 258q8 6 17.5 8t18.5 2q27 0 45.5 -18.5t18.5 -45.5q0 -21 -11.5 -35t-28.5 -25l-450 -296v-450h468q18 0 34 -7t28 -19t19 -28t7 -34q0 -36 -26 -61t-62 -25h-542 q-22 0 -42 5.5t-35 17t-24 29t-9 40.5v410l-68 -44q-9 -6 -19.5 -11t-22.5 -5q-26 0 -44 19t-18 45q0 17 7 32t21 24q36 23 72 46.5t72 47.5v678v0z" glyph-name="Lslash" horiz-adv-x="924" unicode="Ł"/><glyph d="M298 1430q0 35 25 59.5t61 24.5q35 0 59.5 -24.5t24.5 -59.5v-520l210 140q17 10 36 10q27 0 45.5 -18.5t18.5 -45.5q0 -21 -10.5 -35t-27.5 -25l-272 -182v-690q0 -35 -24.5 -59.5t-59.5 -24.5q-36 0 -61 24.5t-25 59.5v580l-204 -136q-11 -6 -20.5 -11t-21.5 -5 q-27 0 -45.5 19.5t-18.5 46.5q0 35 28 54l282 186v632z" glyph-name="lslash" horiz-adv-x="768" unicode="ł"/><glyph d="M1120 360v968q0 38 27 65t65 27t65 -27t27 -65v-1306q0 -20 -14 -33t-34 -13q-12 0 -21 5.5t-17 14.5l-868 1042v-966q0 -38 -27 -65t-65 -27q-20 0 -36.5 7.5t-29 20t-19.5 29t-7 35.5v1304q0 20 13 33t33 13q14 0 23 -5t17 -13zM922 1826q0 -15 -5 -27t-17 -23 l-250 -234q-9 -9 -20.5 -14.5t-25.5 -5.5q-27 0 -46.5 18.5t-19.5 45.5q0 18 7 29.5t19 22.5l242 230q12 12 24.5 17t27.5 5q26 0 45 -18.5t19 -45.5z" glyph-name="Nacute" horiz-adv-x="1470" unicode="Ń"/><glyph d="M324 822q50 68 120 100t158 32q68 0 130 -24.5t109 -71t75 -113t28 -149.5v-532q0 -35 -24.5 -59.5t-59.5 -24.5t-59.5 24.5t-24.5 59.5v494q0 53 -17 98.5t-47 78.5t-71.5 52t-90.5 19q-50 0 -91.5 -18t-71.5 -50t-46.5 -76t-16.5 -96v-502q0 -35 -24.5 -59.5 t-59.5 -24.5t-59.5 24.5t-24.5 59.5v806q0 35 24.5 59.5t59.5 24.5t59.5 -24.5t24.5 -59.5v-48zM776 1378q0 -15 -5 -27t-17 -23l-250 -234q-9 -9 -20.5 -14.5t-25.5 -5.5q-27 0 -46.5 18.5t-19.5 45.5q0 18 7 29.5t19 22.5l242 230q12 12 24.5 17t27.5 5q26 0 45 -18.5 t19 -45.5z" glyph-name="nacute" horiz-adv-x="1090" unicode="ń"/><glyph d="M1120 360v968q0 38 27 65t65 27t65 -27t27 -65v-1306q0 -20 -14 -33t-34 -13q-12 0 -21 5.5t-17 14.5l-868 1042v-966q0 -38 -27 -65t-65 -27q-20 0 -36.5 7.5t-29 20t-19.5 29t-7 35.5v1304q0 20 13 33t33 13q14 0 23 -5t17 -13zM636 -506q0 5 1 14t3 12l74 266 q9 30 28.5 51t51.5 21q33 0 52.5 -22t19.5 -54q0 -11 -3.5 -23t-8.5 -23l-98 -246q-9 -23 -24 -38.5t-38 -15.5q-24 0 -41 17t-17 41z" glyph-name="uni0145" horiz-adv-x="1470" unicode="Ņ"/><glyph d="M324 822q50 68 120 100t158 32q68 0 130 -24.5t109 -71t75 -113t28 -149.5v-532q0 -35 -24.5 -59.5t-59.5 -24.5t-59.5 24.5t-24.5 59.5v494q0 53 -17 98.5t-47 78.5t-71.5 52t-90.5 19q-50 0 -91.5 -18t-71.5 -50t-46.5 -76t-16.5 -96v-502q0 -35 -24.5 -59.5 t-59.5 -24.5t-59.5 24.5t-24.5 59.5v806q0 35 24.5 59.5t59.5 24.5t59.5 -24.5t24.5 -59.5v-48zM418 -506q0 5 1 14t3 12l74 266q9 30 28.5 51t51.5 21q33 0 52.5 -22t19.5 -54q0 -11 -3.5 -23t-8.5 -23l-98 -246q-9 -23 -24 -38.5t-38 -15.5q-24 0 -41 17t-17 41z" glyph-name="uni0146" horiz-adv-x="1090" unicode="ņ"/><glyph d="M1120 360v968q0 38 27 65t65 27t65 -27t27 -65v-1306q0 -20 -14 -33t-34 -13q-12 0 -21 5.5t-17 14.5l-868 1042v-966q0 -38 -27 -65t-65 -27q-20 0 -36.5 7.5t-29 20t-19.5 29t-7 35.5v1304q0 20 13 33t33 13q14 0 23 -5t17 -13zM734 1680l184 178q11 11 24 18.5t30 7.5 q29 0 46.5 -17.5t17.5 -44.5q0 -18 -7.5 -30.5t-18.5 -23.5l-244 -234q-8 -8 -15.5 -13t-16.5 -5q-11 0 -18.5 5t-15.5 13l-244 234q-11 9 -17.5 21.5t-6.5 30.5q0 29 17.5 45.5t44.5 16.5q29 0 50 -18z" glyph-name="Ncaron" horiz-adv-x="1470" unicode="Ň"/><glyph d="M324 822q50 68 120 100t158 32q68 0 130 -24.5t109 -71t75 -113t28 -149.5v-532q0 -35 -24.5 -59.5t-59.5 -24.5t-59.5 24.5t-24.5 59.5v494q0 53 -17 98.5t-47 78.5t-71.5 52t-90.5 19q-50 0 -91.5 -18t-71.5 -50t-46.5 -76t-16.5 -96v-502q0 -35 -24.5 -59.5 t-59.5 -24.5t-59.5 24.5t-24.5 59.5v806q0 35 24.5 59.5t59.5 24.5t59.5 -24.5t24.5 -59.5v-48zM538 1232l184 178q11 11 24 18.5t30 7.5q29 0 46.5 -17.5t17.5 -44.5q0 -18 -7.5 -30.5t-18.5 -23.5l-244 -234q-8 -8 -15.5 -13t-16.5 -5q-11 0 -18.5 5t-15.5 13l-244 234 q-11 9 -17.5 21.5t-6.5 30.5q0 29 17.5 45.5t44.5 16.5q29 0 50 -18z" glyph-name="ncaron" horiz-adv-x="1090" unicode="ň"/><glyph d="M462 822q50 68 120 100t158 32q68 0 130 -24.5t109 -71t75 -113t28 -149.5v-532q0 -35 -24.5 -59.5t-59.5 -24.5t-59.5 24.5t-24.5 59.5v494q0 53 -17 98.5t-47 78.5t-71.5 52t-90.5 19q-50 0 -91.5 -18t-71.5 -50t-46.5 -76t-16.5 -96v-502q0 -35 -24.5 -59.5 t-59.5 -24.5t-59.5 24.5t-24.5 59.5v806q0 35 24.5 59.5t59.5 24.5t59.5 -24.5t24.5 -59.5v-48zM93 1036q0 5 1 14t3 12l74 266q9 30 28.5 51t51.5 21q33 0 52.5 -22t19.5 -54q0 -11 -3.5 -23t-8.5 -23l-98 -246q-9 -23 -24 -38.5t-38 -15.5q-24 0 -41 17t-17 41z" glyph-name="napostrophe" horiz-adv-x="1248" unicode="ŉ"/><glyph d="M166 1378q0 18 13 31t33 13q11 0 20.5 -5t15.5 -13l870 -1144v1066q0 38 27 65t65 27q19 0 36 -7.5t29.5 -20t19.5 -29t7 -35.5v-1506q0 -185 -77.5 -284.5t-240.5 -99.5q-63 0 -119 19.5t-107 66.5q-14 12 -22 28t-8 34q0 30 21 51t53 21t54 -22q24 -24 54.5 -36 t63.5 -12q81 0 112.5 61t31.5 177v174l-768 1014v-940q0 -38 -27 -65t-65 -27q-20 0 -36.5 7.5t-29 20t-19.5 29t-7 35.5v1306z" glyph-name="Eng" horiz-adv-x="1470" unicode="Ŋ"/><glyph d="M324 822q50 68 120 103t158 35q68 0 130 -25t109 -71.5t75 -113t28 -148.5v-782q0 -92 -17.5 -163t-55 -120.5t-95.5 -75t-138 -25.5q-66 0 -123.5 24.5t-104.5 69.5q-9 11 -14.5 24.5t-5.5 27.5q0 30 20 51t50 21q18 0 32 -7t26 -21q21 -21 53 -32.5t59 -11.5 q41 0 69 16t45 47t24.5 75.5t7.5 101.5v742q0 52 -17.5 97t-47.5 78t-71.5 52t-89.5 19q-50 0 -91.5 -18.5t-71.5 -51.5t-46.5 -77.5t-16.5 -96.5v-502q0 -35 -24.5 -59.5t-59.5 -24.5t-59.5 24.5t-24.5 59.5v806q0 35 24.5 59.5t59.5 24.5t59.5 -24.5t24.5 -59.5v-48z" glyph-name="eng" horiz-adv-x="1090" unicode="ŋ"/><glyph d="M286 700q0 -119 43.5 -219.5t118.5 -173t175.5 -113t214.5 -40.5q113 0 213 40.5t175 113t118.5 173t43.5 219.5q0 118 -43.5 218.5t-118.5 173t-175 113.5t-213 41q-114 0 -214.5 -41t-175.5 -113.5t-118.5 -173t-43.5 -218.5zM102 700q0 154 58.5 285.5t159 228 t234 151.5t284.5 55q100 0 193.5 -25t175 -70.5t148.5 -110.5t115.5 -145t75 -173.5t26.5 -195.5q0 -155 -58.5 -286.5t-158.5 -228t-233.5 -151t-283.5 -54.5q-151 0 -284.5 54.5t-234 151t-159 228t-58.5 286.5zM1078 1770q27 0 45.5 -18.5t18.5 -47.5q0 -27 -18.5 -45.5 t-45.5 -18.5h-484q-27 0 -45.5 18.5t-18.5 45.5q0 29 18.5 47.5t45.5 18.5h484z" glyph-name="Omacron" horiz-adv-x="1676" unicode="Ō"/><glyph d="M260 468q0 -72 26 -133t71.5 -105t107.5 -69t133 -25t133 25t108 69t72.5 105t26.5 133t-26.5 132.5t-72.5 104.5t-108 68.5t-133 24.5t-133 -24.5t-107.5 -68.5t-71.5 -104.5t-26 -132.5zM90 468q0 104 39.5 193t108.5 154t161.5 102t198.5 37t198.5 -37t161.5 -102 t108.5 -154t39.5 -193q0 -105 -39.5 -194.5t-108.5 -154.5t-161.5 -102t-198.5 -37t-198.5 37t-161.5 102t-108.5 154.5t-39.5 194.5zM842 1322q27 0 45.5 -18.5t18.5 -47.5q0 -27 -18.5 -45.5t-45.5 -18.5h-484q-27 0 -45.5 18.5t-18.5 45.5q0 29 18.5 47.5t45.5 18.5h484z" glyph-name="omacron" horiz-adv-x="1198" unicode="ō"/><glyph d="M286 700q0 -119 43.5 -219.5t118.5 -173t175.5 -113t214.5 -40.5q113 0 213 40.5t175 113t118.5 173t43.5 219.5q0 118 -43.5 218.5t-118.5 173t-175 113.5t-213 41q-114 0 -214.5 -41t-175.5 -113.5t-118.5 -173t-43.5 -218.5zM102 700q0 154 58.5 285.5t159 228 t234 151.5t284.5 55q100 0 193.5 -25t175 -70.5t148.5 -110.5t115.5 -145t75 -173.5t26.5 -195.5q0 -155 -58.5 -286.5t-158.5 -228t-233.5 -151t-283.5 -54.5q-151 0 -284.5 54.5t-234 151t-159 228t-58.5 286.5zM836 1558q-83 0 -155.5 48.5t-110.5 143.5q-10 23 -10 50 q0 35 18 54.5t48 19.5t47 -20.5t23 -47.5q5 -24 17 -45.5t30 -37.5t41 -25.5t52 -9.5q28 0 51.5 9.5t41.5 25.5t30 37.5t17 45.5q6 27 23 47.5t47 20.5t48 -19.5t18 -54.5q0 -27 -10 -50q-38 -95 -110.5 -143.5t-155.5 -48.5z" glyph-name="Obreve" horiz-adv-x="1676" unicode="Ŏ"/><glyph d="M260 468q0 -72 26 -133t71.5 -105t107.5 -69t133 -25t133 25t108 69t72.5 105t26.5 133t-26.5 132.5t-72.5 104.5t-108 68.5t-133 24.5t-133 -24.5t-107.5 -68.5t-71.5 -104.5t-26 -132.5zM90 468q0 104 39.5 193t108.5 154t161.5 102t198.5 37t198.5 -37t161.5 -102 t108.5 -154t39.5 -193q0 -105 -39.5 -194.5t-108.5 -154.5t-161.5 -102t-198.5 -37t-198.5 37t-161.5 102t-108.5 154.5t-39.5 194.5zM600 1110q-83 0 -155.5 48.5t-110.5 143.5q-10 23 -10 50q0 35 18 54.5t48 19.5t47 -20.5t23 -47.5q5 -24 17 -45.5t30 -37.5t41 -25.5 t52 -9.5q28 0 51.5 9.5t41.5 25.5t30 37.5t17 45.5q6 27 23 47.5t47 20.5t48 -19.5t18 -54.5q0 -27 -10 -50q-38 -95 -110.5 -143.5t-155.5 -48.5z" glyph-name="obreve" horiz-adv-x="1198" unicode="ŏ"/><glyph d="M286 700q0 -119 43.5 -219.5t118.5 -173t175.5 -113t214.5 -40.5q113 0 213 40.5t175 113t118.5 173t43.5 219.5q0 118 -43.5 218.5t-118.5 173t-175 113.5t-213 41q-114 0 -214.5 -41t-175.5 -113.5t-118.5 -173t-43.5 -218.5zM102 700q0 154 58.5 285.5t159 228 t234 151.5t284.5 55q100 0 193.5 -25t175 -70.5t148.5 -110.5t115.5 -145t75 -173.5t26.5 -195.5q0 -155 -58.5 -286.5t-158.5 -228t-233.5 -151t-283.5 -54.5q-151 0 -284.5 54.5t-234 151t-159 228t-58.5 286.5zM886 1826q0 -15 -5 -27t-17 -23l-250 -234 q-9 -9 -20.5 -14.5t-25.5 -5.5q-27 0 -46.5 18.5t-19.5 45.5q0 18 7 29.5t19 22.5l242 230q12 12 24.5 17t27.5 5q26 0 45 -18.5t19 -45.5zM1250 1826q0 -29 -24 -50l-250 -234q-9 -9 -20 -14.5t-26 -5.5q-26 0 -45 18.5t-19 45.5q0 18 7 29.5t19 22.5l240 230q12 12 25 17 t27 5q27 0 46.5 -18.5t19.5 -45.5z" glyph-name="Ohungarumlaut" horiz-adv-x="1676" unicode="Ő"/><glyph d="M260 468q0 -72 26 -133t71.5 -105t107.5 -69t133 -25t133 25t108 69t72.5 105t26.5 133t-26.5 132.5t-72.5 104.5t-108 68.5t-133 24.5t-133 -24.5t-107.5 -68.5t-71.5 -104.5t-26 -132.5zM90 468q0 104 39.5 193t108.5 154t161.5 102t198.5 37t198.5 -37t161.5 -102 t108.5 -154t39.5 -193q0 -105 -39.5 -194.5t-108.5 -154.5t-161.5 -102t-198.5 -37t-198.5 37t-161.5 102t-108.5 154.5t-39.5 194.5zM650 1378q0 -15 -5 -27t-17 -23l-250 -234q-9 -9 -20.5 -14.5t-25.5 -5.5q-27 0 -46.5 18.5t-19.5 45.5q0 18 7 29.5t19 22.5l242 230 q12 12 24.5 17t27.5 5q26 0 45 -18.5t19 -45.5zM1014 1378q0 -29 -24 -50l-250 -234q-9 -9 -20 -14.5t-26 -5.5q-26 0 -45 18.5t-19 45.5q0 18 7 29.5t19 22.5l240 230q12 12 25 17t27 5q27 0 46.5 -18.5t19.5 -45.5z" glyph-name="ohungarumlaut" horiz-adv-x="1198" unicode="ő"/><glyph d="M834 0q-101 0 -194 23t-174.5 66t-148.5 104.5t-114.5 139.5t-74 170t-26.5 197q0 103 26.5 195.5t74 170t114.5 139.5t148.5 105.5t174.5 66.5t194 23h632q18 0 34 -7t28 -19t19 -28t7 -34q0 -36 -26 -61t-62 -25h-428v-364h380q35 0 59.5 -24.5t24.5 -59.5t-24.5 -59.5 t-59.5 -24.5h-380v-520h448q36 0 61 -26t25 -62t-25 -61t-61 -25h-652zM286 700q0 -127 46 -227t124 -169t181 -105.5t217 -36.5v1074q-114 0 -217 -36.5t-181 -105.5t-124 -168.5t-46 -225.5z" glyph-name="OE" horiz-adv-x="1654" unicode="Œ"/><glyph d="M1018 208q-32 -55 -76.5 -98t-99.5 -73t-118 -45.5t-130 -15.5q-104 0 -195.5 38t-160 104t-108.5 156t-40 194q0 103 40 193t108.5 156.5t160 104.5t195.5 38q67 0 129.5 -18t117.5 -50.5t99.5 -77.5t75.5 -98q30 55 72 100.5t94.5 77t114.5 49t133 17.5 q100 0 189 -38.5t155.5 -103t105 -150.5t38.5 -180q0 -26 -19 -43t-45 -17h-744q6 -70 35.5 -125t75.5 -93t104 -58t121 -20q80 0 150.5 33t121.5 99q22 28 62 28q33 0 56.5 -22.5t23.5 -57.5q0 -17 -6.5 -28.5t-15.5 -23.5q-72 -88 -168.5 -136t-223.5 -48q-71 0 -135 16.5 t-118 47t-98.5 73t-76.5 95.5zM260 468q0 -72 26 -133.5t71.5 -106.5t107.5 -70.5t133 -25.5t133 25.5t108 70.5t72.5 106.5t26.5 133.5q0 71 -26.5 132.5t-72.5 106.5t-108 71t-133 26t-133 -25.5t-107.5 -70.5t-71.5 -106.5t-26 -133.5zM1428 804q-59 0 -111.5 -19 t-93.5 -52.5t-69.5 -79.5t-39.5 -99h632q-12 59 -39.5 105.5t-68.5 78.5t-94 49t-116 17z" glyph-name="oe" horiz-adv-x="2006" unicode="œ"/><glyph d="M398 718q0 17 11.5 29.5t28.5 12.5q84 1 145 20.5t101 52t59 75.5t19 92q0 54 -20.5 97t-59 73t-93.5 46t-123 16h-116v-1160q0 -38 -27 -65t-65 -27q-20 0 -36.5 7.5t-29 20t-19.5 29t-7 35.5v1242q0 36 24.5 61t59.5 25h230q104 0 190 -30t147.5 -84t95 -127.5 t33.5 -160.5q0 -54 -15.5 -110.5t-52 -106.5t-97 -90t-149.5 -61l402 -514q20 -23 20 -52q0 -35 -24.5 -59.5t-59.5 -24.5q-21 0 -39 9.5t-29 26.5l-494 676q-10 13 -10 26zM706 1826q0 -15 -5 -27t-17 -23l-250 -234q-9 -9 -20.5 -14.5t-25.5 -5.5q-27 0 -46.5 18.5 t-19.5 45.5q0 18 7 29.5t19 22.5l242 230q12 12 24.5 17t27.5 5q26 0 45 -18.5t19 -45.5z" glyph-name="Racute" horiz-adv-x="1096" unicode="Ŕ"/><glyph d="M240 -20q-35 0 -59.5 24.5t-24.5 59.5v806q0 35 24.5 59.5t59.5 24.5t59.5 -24.5t24.5 -59.5v-60q48 72 114 108t144 36q27 0 54.5 -3.5t49.5 -13t36 -26.5t14 -43q0 -32 -23 -54t-55 -22q-29 0 -54 8t-54 8q-49 0 -90.5 -20.5t-71.5 -56t-47 -82.5t-17 -99v-486 q0 -35 -24.5 -59.5t-59.5 -24.5zM610 1378q0 -15 -5 -27t-17 -23l-250 -234q-9 -9 -20.5 -14.5t-25.5 -5.5q-27 0 -46.5 18.5t-19.5 45.5q0 18 7 29.5t19 22.5l242 230q12 12 24.5 17t27.5 5q26 0 45 -18.5t19 -45.5z" glyph-name="racute" horiz-adv-x="764" unicode="ŕ"/><glyph d="M398 718q0 17 11.5 29.5t28.5 12.5q84 1 145 20.5t101 52t59 75.5t19 92q0 54 -20.5 97t-59 73t-93.5 46t-123 16h-116v-1160q0 -38 -27 -65t-65 -27q-20 0 -36.5 7.5t-29 20t-19.5 29t-7 35.5v1242q0 36 24.5 61t59.5 25h230q104 0 190 -30t147.5 -84t95 -127.5 t33.5 -160.5q0 -54 -15.5 -110.5t-52 -106.5t-97 -90t-149.5 -61l402 -514q20 -23 20 -52q0 -35 -24.5 -59.5t-59.5 -24.5q-21 0 -39 9.5t-29 26.5l-494 676q-10 13 -10 26zM462 -506q0 5 1 14t3 12l74 266q9 30 28.5 51t51.5 21q33 0 52.5 -22t19.5 -54q0 -11 -3.5 -23 t-8.5 -23l-98 -246q-9 -23 -24 -38.5t-38 -15.5q-24 0 -41 17t-17 41z" glyph-name="uni0156" horiz-adv-x="1096" unicode="Ŗ"/><glyph d="M240 -20q-35 0 -59.5 24.5t-24.5 59.5v806q0 35 24.5 59.5t59.5 24.5t59.5 -24.5t24.5 -59.5v-60q48 72 114 108t144 36q27 0 54.5 -3.5t49.5 -13t36 -26.5t14 -43q0 -32 -23 -54t-55 -22q-29 0 -54 8t-54 8q-49 0 -90.5 -20.5t-71.5 -56t-47 -82.5t-17 -99v-486 q0 -35 -24.5 -59.5t-59.5 -24.5zM80 -506q0 5 1 14t3 12l74 266q9 30 28.5 51t51.5 21q33 0 52.5 -22t19.5 -54q0 -11 -3.5 -23t-8.5 -23l-98 -246q-9 -23 -24 -38.5t-38 -15.5q-24 0 -41 17t-17 41z" glyph-name="uni0157" horiz-adv-x="764" unicode="ŗ"/><glyph d="M400 718q0 17 11.5 29.5t28.5 12.5q84 1 145 20.5t101 52t59 75.5t19 92q0 54 -20.5 97t-59 73t-93.5 46t-123 16h-116v-1160q0 -38 -27 -65t-65 -27q-20 0 -36.5 7.5t-29 20t-19.5 29t-7 35.5v1242q0 36 24.5 61t59.5 25h230q104 0 190 -30t147.5 -84t95 -127.5 t33.5 -160.5q0 -54 -15.5 -110.5t-52 -106.5t-97 -90t-149.5 -61l402 -514q20 -23 20 -52q0 -35 -24.5 -59.5t-59.5 -24.5q-21 0 -39 9.5t-29 26.5l-494 676q-10 13 -10 26zM482 1680l184 178q11 11 24 18.5t30 7.5q29 0 46.5 -17.5t17.5 -44.5q0 -18 -7.5 -30.5 t-18.5 -23.5l-244 -234q-8 -8 -15.5 -13t-16.5 -5q-11 0 -18.5 5t-15.5 13l-244 234q-11 9 -17.5 21.5t-6.5 30.5q0 29 17.5 45.5t44.5 16.5q29 0 50 -18z" glyph-name="Rcaron" horiz-adv-x="1098" unicode="Ř"/><glyph d="M240 -20q-35 0 -59.5 24.5t-24.5 59.5v806q0 35 24.5 59.5t59.5 24.5t59.5 -24.5t24.5 -59.5v-60q48 72 114 108t144 36q27 0 54.5 -3.5t49.5 -13t36 -26.5t14 -43q0 -32 -23 -54t-55 -22q-29 0 -54 8t-54 8q-49 0 -90.5 -20.5t-71.5 -56t-47 -82.5t-17 -99v-486 q0 -35 -24.5 -59.5t-59.5 -24.5zM408 1232l184 178q11 11 24 18.5t30 7.5q29 0 46.5 -17.5t17.5 -44.5q0 -18 -7.5 -30.5t-18.5 -23.5l-244 -234q-8 -8 -15.5 -13t-16.5 -5q-11 0 -18.5 5t-15.5 13l-244 234q-11 9 -17.5 21.5t-6.5 30.5q0 29 17.5 45.5t44.5 16.5 q29 0 50 -18z" glyph-name="rcaron" horiz-adv-x="764" unicode="ř"/><glyph d="M600 846q94 -38 162 -84.5t112 -103.5t65 -124.5t21 -147.5q0 -81 -28 -154.5t-83.5 -129.5t-137.5 -89t-189 -33q-65 0 -126.5 16.5t-116.5 46.5t-101.5 73.5t-81.5 97.5q-6 9 -10 20.5t-4 25.5q0 16 6.5 31t18 26.5t26 18t31.5 6.5q21 0 39.5 -9.5t30.5 -26.5 q53 -75 130 -113.5t160 -38.5q55 0 101 19t79.5 51.5t52.5 75.5t19 90q0 50 -13.5 92t-46.5 79.5t-87.5 72.5t-136.5 70q-78 33 -138 71.5t-100.5 85.5t-61 104.5t-20.5 128.5q0 67 25.5 126.5t72 104t111.5 70t145 25.5q188 0 294 -136q9 -12 17.5 -28.5t8.5 -31.5 q0 -16 -6.5 -30t-18 -24.5t-26.5 -17t-31 -6.5q-18 0 -34 8t-28 22q-33 36 -74.5 53t-89.5 17q-85 0 -133.5 -43.5t-48.5 -114.5q0 -41 12 -73t40.5 -60.5t75.5 -54.5t116 -54zM720 1826q0 -15 -5 -27t-17 -23l-250 -234q-9 -9 -20.5 -14.5t-25.5 -5.5q-27 0 -46.5 18.5 t-19.5 45.5q0 18 7 29.5t19 22.5l242 230q12 12 24.5 17t27.5 5q26 0 45 -18.5t19 -45.5z" glyph-name="Sacute" horiz-adv-x="1062" unicode="Ś"/><glyph d="M386 -20q-88 0 -164.5 44t-129.5 116q-9 12 -15.5 23.5t-6.5 28.5q0 30 21 51t51 21q20 0 35.5 -8t26.5 -22q35 -47 78.5 -75.5t93.5 -28.5q37 0 67 11t50.5 30t31.5 44.5t11 54.5q0 33 -10 58.5t-32 46.5t-57 40.5t-85 40.5q-53 22 -96.5 48t-74 57.5t-47 69t-16.5 81.5 q0 53 20.5 97.5t56.5 76.5t84.5 50t104.5 18q68 0 127 -28t101 -76q8 -9 12 -21.5t4 -24.5q0 -27 -20 -46.5t-50 -19.5q-17 0 -28 5.5t-22 16.5q-21 21 -48.5 34.5t-59.5 13.5q-51 0 -81.5 -25.5t-30.5 -66.5q0 -26 9.5 -46t30.5 -37.5t53 -33.5t77 -35q132 -54 189 -126.5 t57 -163.5q0 -61 -20.5 -114.5t-60.5 -93.5t-99.5 -63t-137.5 -23zM590 1378q0 -15 -5 -27t-17 -23l-250 -234q-9 -9 -20.5 -14.5t-25.5 -5.5q-27 0 -46.5 18.5t-19.5 45.5q0 18 7 29.5t19 22.5l242 230q12 12 24.5 17t27.5 5q26 0 45 -18.5t19 -45.5z" glyph-name="sacute" unicode="ś"/><glyph d="M600 846q94 -38 162 -84.5t112 -103.5t65 -124.5t21 -147.5q0 -81 -28 -154.5t-83.5 -129.5t-137.5 -89t-189 -33q-65 0 -126.5 16.5t-116.5 46.5t-101.5 73.5t-81.5 97.5q-6 9 -10 20.5t-4 25.5q0 16 6.5 31t18 26.5t26 18t31.5 6.5q21 0 39.5 -9.5t30.5 -26.5 q53 -75 130 -113.5t160 -38.5q55 0 101 19t79.5 51.5t52.5 75.5t19 90q0 50 -13.5 92t-46.5 79.5t-87.5 72.5t-136.5 70q-78 33 -138 71.5t-100.5 85.5t-61 104.5t-20.5 128.5q0 67 25.5 126.5t72 104t111.5 70t145 25.5q188 0 294 -136q9 -12 17.5 -28.5t8.5 -31.5 q0 -16 -6.5 -30t-18 -24.5t-26.5 -17t-31 -6.5q-18 0 -34 8t-28 22q-33 36 -74.5 53t-89.5 17q-85 0 -133.5 -43.5t-48.5 -114.5q0 -41 12 -73t40.5 -60.5t75.5 -54.5t116 -54zM300 1542q-21 -18 -50 -18q-27 0 -44.5 17.5t-17.5 44.5q0 18 7.5 31.5t18.5 22.5l244 234 q6 6 13.5 12t18.5 6t18.5 -6t13.5 -12l244 -234q11 -11 18.5 -23.5t7.5 -30.5q0 -27 -17.5 -44.5t-44.5 -17.5q-29 0 -50 18l-190 184z" glyph-name="Scircumflex" horiz-adv-x="1062" unicode="Ŝ"/><glyph d="M386 -20q-88 0 -164.5 44t-129.5 116q-9 12 -15.5 23.5t-6.5 28.5q0 30 21 51t51 21q20 0 35.5 -8t26.5 -22q35 -47 78.5 -75.5t93.5 -28.5q37 0 67 11t50.5 30t31.5 44.5t11 54.5q0 33 -10 58.5t-32 46.5t-57 40.5t-85 40.5q-53 22 -96.5 48t-74 57.5t-47 69t-16.5 81.5 q0 53 20.5 97.5t56.5 76.5t84.5 50t104.5 18q68 0 127 -28t101 -76q8 -9 12 -21.5t4 -24.5q0 -27 -20 -46.5t-50 -19.5q-17 0 -28 5.5t-22 16.5q-21 21 -48.5 34.5t-59.5 13.5q-51 0 -81.5 -25.5t-30.5 -66.5q0 -26 9.5 -46t30.5 -37.5t53 -33.5t77 -35q132 -54 189 -126.5 t57 -163.5q0 -61 -20.5 -114.5t-60.5 -93.5t-99.5 -63t-137.5 -23zM180 1094q-21 -18 -50 -18q-27 0 -44.5 17.5t-17.5 44.5q0 18 7.5 31.5t18.5 22.5l244 234q6 6 13.5 12t18.5 6t18.5 -6t13.5 -12l244 -234q11 -11 18.5 -23.5t7.5 -30.5q0 -27 -17.5 -44.5t-44.5 -17.5 q-29 0 -50 18l-190 184z" glyph-name="scircumflex" unicode="ŝ"/><glyph d="M310 -386q0 23 15.5 38.5t36.5 15.5q9 0 18.5 -3.5t15.5 -6.5q20 -14 41 -20t41 -6q50 0 79 24.5t29 65.5q0 50 -36 76.5t-98 37.5q-32 6 -32 26q0 3 1 9t3 9l48 100q-118 11 -215.5 70.5t-160.5 157.5q-6 11 -10 22.5t-4 23.5q0 16 6.5 31t18 27t27 19t32.5 7 q23 0 43 -16t35 -36q54 -68 128 -102t152 -34q55 0 101 19.5t79.5 52.5t52.5 76t19 90q0 49 -13.5 91.5t-46 80.5t-87.5 73.5t-137 70.5q-78 33 -138 71.5t-100.5 86.5t-61 106t-20.5 130q0 67 25.5 126t72 103.5t111.5 70.5t145 26q95 0 167.5 -36.5t126.5 -101.5 q9 -12 17.5 -27.5t8.5 -32.5q0 -16 -6.5 -30t-18 -24.5t-26.5 -17t-31 -6.5q-18 0 -34 9t-28 21q-66 72 -164 72q-85 0 -133.5 -44.5t-48.5 -115.5q0 -41 12.5 -73.5t41 -61t75.5 -55t115 -54.5q187 -78 273.5 -190.5t86.5 -271.5q0 -74 -23.5 -142.5t-69.5 -122.5 t-114 -90.5t-157 -46.5l-18 -34l-18 -34q81 -21 124.5 -72.5t43.5 -117.5q0 -35 -14 -71t-43.5 -64.5t-75 -46.5t-109.5 -18q-22 0 -52 5t-57.5 16t-47 28t-19.5 41z" glyph-name="Scedilla" horiz-adv-x="1062" unicode="Ş"/><glyph d="M172 -386q0 21 16 37.5t36 16.5q9 0 19 -4t19 -10q17 -12 37.5 -17t40.5 -5q56 0 84 29.5t28 68.5q0 25 -11.5 45t-32.5 35t-49 23t-61 9q-20 0 -20 18q0 5 1 8t3 6l52 106q-74 12 -134.5 52.5t-107.5 103.5q-9 12 -15.5 24t-6.5 26q0 30 21.5 52t50.5 22q20 0 35.5 -9 t26.5 -23q35 -45 78.5 -73.5t93.5 -28.5q75 0 117.5 40t42.5 100q0 33 -10 59t-32 48t-57 42t-85 41q-53 22 -96.5 49t-74 59.5t-47 70t-16.5 81.5q0 53 20.5 98t56.5 77.5t84.5 50.5t104.5 18q68 0 129 -29t99 -77q16 -19 16 -44q0 -26 -20 -47t-50 -21q-17 0 -28 5.5 t-22 16.5q-20 21 -48 34.5t-60 13.5q-48 0 -80 -24t-32 -68q0 -26 9.5 -46.5t30.5 -38.5t53 -35t77 -36q132 -54 189 -129.5t57 -166.5q0 -54 -15.5 -102t-46.5 -85.5t-77 -63t-107 -33.5q-9 -18 -18 -35t-18 -35q81 -21 123.5 -72.5t42.5 -117.5q0 -34 -14 -69.5t-43 -64.5 t-74.5 -47.5t-108.5 -18.5q-26 0 -56.5 5.5t-57 17t-44.5 28t-18 39.5z" glyph-name="scedilla" unicode="ş"/><glyph d="M600 846q94 -38 162 -84.5t112 -103.5t65 -124.5t21 -147.5q0 -81 -28 -154.5t-83.5 -129.5t-137.5 -89t-189 -33q-65 0 -126.5 16.5t-116.5 46.5t-101.5 73.5t-81.5 97.5q-6 9 -10 20.5t-4 25.5q0 16 6.5 31t18 26.5t26 18t31.5 6.5q21 0 39.5 -9.5t30.5 -26.5 q53 -75 130 -113.5t160 -38.5q55 0 101 19t79.5 51.5t52.5 75.5t19 90q0 50 -13.5 92t-46.5 79.5t-87.5 72.5t-136.5 70q-78 33 -138 71.5t-100.5 85.5t-61 104.5t-20.5 128.5q0 67 25.5 126.5t72 104t111.5 70t145 25.5q188 0 294 -136q9 -12 17.5 -28.5t8.5 -31.5 q0 -16 -6.5 -30t-18 -24.5t-26.5 -17t-31 -6.5q-18 0 -34 8t-28 22q-33 36 -74.5 53t-89.5 17q-85 0 -133.5 -43.5t-48.5 -114.5q0 -41 12 -73t40.5 -60.5t75.5 -54.5t116 -54zM490 1680l184 178q11 11 24 18.5t30 7.5q29 0 46.5 -17.5t17.5 -44.5q0 -18 -7.5 -30.5 t-18.5 -23.5l-244 -234q-8 -8 -15.5 -13t-16.5 -5q-11 0 -18.5 5t-15.5 13l-244 234q-11 9 -17.5 21.5t-6.5 30.5q0 29 17.5 45.5t44.5 16.5q29 0 50 -18z" glyph-name="Scaron" horiz-adv-x="1062" unicode="Š"/><glyph d="M386 -20q-88 0 -164.5 44t-129.5 116q-9 12 -15.5 23.5t-6.5 28.5q0 30 21 51t51 21q20 0 35.5 -8t26.5 -22q35 -47 78.5 -75.5t93.5 -28.5q37 0 67 11t50.5 30t31.5 44.5t11 54.5q0 33 -10 58.5t-32 46.5t-57 40.5t-85 40.5q-53 22 -96.5 48t-74 57.5t-47 69t-16.5 81.5 q0 53 20.5 97.5t56.5 76.5t84.5 50t104.5 18q68 0 127 -28t101 -76q8 -9 12 -21.5t4 -24.5q0 -27 -20 -46.5t-50 -19.5q-17 0 -28 5.5t-22 16.5q-21 21 -48.5 34.5t-59.5 13.5q-51 0 -81.5 -25.5t-30.5 -66.5q0 -26 9.5 -46t30.5 -37.5t53 -33.5t77 -35q132 -54 189 -126.5 t57 -163.5q0 -61 -20.5 -114.5t-60.5 -93.5t-99.5 -63t-137.5 -23zM370 1232l184 178q11 11 24 18.5t30 7.5q29 0 46.5 -17.5t17.5 -44.5q0 -18 -7.5 -30.5t-18.5 -23.5l-244 -234q-8 -8 -15.5 -13t-16.5 -5q-11 0 -18.5 5t-15.5 13l-244 234q-11 9 -17.5 21.5t-6.5 30.5 q0 29 17.5 45.5t44.5 16.5q29 0 50 -18z" glyph-name="scaron" unicode="š"/><glyph d="M570 1226v-1152q0 -23 -9 -41.5t-23 -32.5l-46 -86q81 -21 124.5 -72.5t43.5 -117.5q0 -35 -14 -71t-43.5 -64.5t-75 -46.5t-109.5 -18q-25 0 -55.5 5.5t-57.5 16.5t-45 28t-18 40q0 21 16 37.5t36 16.5q9 0 18.5 -3.5t15.5 -8.5q20 -12 41 -18t41 -6q22 0 43 7t36.5 20 t25 31t9.5 40q0 25 -11.5 45t-32.5 34.5t-49.5 22.5t-62.5 10q-8 0 -13 4.5t-5 13.5q0 5 1 8t3 6l62 128q-14 17 -22 39.5t-8 48.5v1136h-256q-36 0 -61 25t-25 61t25 62t61 26h694q18 0 34 -7t28 -19t19 -28t7 -34q0 -36 -26 -61t-62 -25h-254z" glyph-name="uni0162" horiz-adv-x="956" unicode="Ţ"/><glyph d="M564 936q14 0 28 -6.5t25 -17t18 -24.5t7 -30q0 -33 -23 -55.5t-55 -22.5h-182v-716q0 -17 -6.5 -32t-17.5 -26l-46 -92q81 -21 123.5 -72.5t42.5 -117.5q0 -35 -14 -71t-43 -64.5t-74.5 -46.5t-108.5 -18q-25 0 -56 5.5t-58 16.5t-45.5 28t-18.5 40q0 21 16.5 37.5 t37.5 16.5q9 0 17.5 -3.5t16.5 -8.5q18 -12 39 -18t41 -6q57 0 85.5 29.5t28.5 68.5q0 25 -12 45t-33 34.5t-49 22.5t-60 10q-20 0 -20 18q0 5 1 8t3 6l66 130q-11 11 -18.5 27t-7.5 33v716h-100q-15 0 -29 6.5t-25 17t-17.5 24.5t-6.5 30q0 32 23 55t55 23h100v198 q0 14 6.5 29t18.5 27t27.5 20t33.5 8q35 0 59.5 -24.5t24.5 -59.5v-198h182z" glyph-name="uni0163" horiz-adv-x="666" unicode="ţ"/><glyph d="M130 1226q-36 0 -61 25t-25 61t25 62t61 26h694q18 0 34 -7t28 -19t19 -28t7 -34q0 -36 -26 -61t-62 -25h-254v-1154q0 -38 -27 -65t-65 -27q-20 0 -36.5 7.5t-29 20t-19.5 29t-7 35.5v1154h-256zM474 1680l184 178q11 11 24 18.5t30 7.5q29 0 46.5 -17.5t17.5 -44.5 q0 -18 -7.5 -30.5t-18.5 -23.5l-244 -234q-8 -8 -15.5 -13t-16.5 -5q-11 0 -18.5 5t-15.5 13l-244 234q-11 9 -17.5 21.5t-6.5 30.5q0 29 17.5 45.5t44.5 16.5q29 0 50 -18z" glyph-name="Tcaron" horiz-adv-x="956" unicode="Ť"/><glyph d="M564 936q32 0 55 -23t23 -55q0 -33 -23 -55.5t-55 -22.5h-182v-716q0 -35 -24.5 -59.5t-59.5 -24.5q-36 0 -61 24.5t-25 59.5v716h-100q-32 0 -55 22.5t-23 55.5q0 32 23 55t55 23h100v198q0 35 25 59.5t61 24.5q35 0 59.5 -24.5t24.5 -59.5v-198h182zM642 1040 q0 9 2 17.5t4 16.5l100 364q11 38 34 60t58 22q41 0 65.5 -27t24.5 -65q0 -22 -10 -48l-142 -354q-9 -24 -25 -39t-43 -15q-29 0 -48.5 19t-19.5 49z" glyph-name="tcaron" horiz-adv-x="978" unicode="ť"/><glyph d="M386 628h-194q-29 0 -46.5 18.5t-17.5 45.5q0 29 17.5 47.5t46.5 18.5h194v468h-256q-36 0 -61 25t-25 61t25 62t61 26h694q18 0 34 -7t28 -19t19 -28t7 -34q0 -36 -26 -61t-62 -25h-254v-468h192q27 0 46.5 -18.5t19.5 -47.5q0 -27 -19.5 -45.5t-46.5 -18.5h-192v-520 q0 -26 -4.5 -49t-15 -40.5t-28.5 -28t-44 -10.5q-38 0 -65 26t-27 64v558z" glyph-name="Tbar" horiz-adv-x="956" unicode="Ŧ"/><glyph d="M212 422h-82q-27 0 -46.5 18.5t-19.5 45.5q0 29 18.5 47.5t47.5 18.5h82v228h-78q-17 0 -34.5 4.5t-31.5 14t-23 24.5t-9 35q0 32 23 55t55 23h98v198q0 35 25 59.5t61 24.5q35 0 59.5 -24.5t24.5 -59.5v-198h182q11 0 24.5 -6.5t25.5 -17t20 -24.5t8 -30 q0 -33 -23 -55.5t-55 -22.5h-182v-228h152q26 0 46 -18.5t20 -47.5q0 -27 -18.5 -45.5t-47.5 -18.5h-152v-358q0 -35 -24.5 -59.5t-59.5 -24.5q-36 0 -61 24.5t-25 59.5v358z" glyph-name="tbar" horiz-adv-x="666" unicode="ŧ"/><glyph d="M648 154q66 0 121 22t94 65t61 106.5t22 146.5v834q0 38 27 65t65 27t65 -27t27 -65v-836q0 -122 -39.5 -217.5t-105.5 -161t-153.5 -99.5t-183.5 -34q-97 0 -184.5 34t-153.5 99.5t-105 161t-39 217.5v836q0 19 7 35.5t19.5 29t29 20t36.5 7.5q38 0 65 -27t27 -65v-834 q0 -83 22 -146.5t61 -106.5t94 -65t121 -22zM520 1828q47 0 83.5 -17.5t68.5 -44.5q26 -23 47 -38.5t53 -15.5q31 0 44 15.5t22.5 34.5t22 34.5t41.5 15.5q11 0 23 -4t21.5 -11.5t15.5 -19t6 -25.5q0 -37 -17.5 -68t-44.5 -53.5t-59.5 -35.5t-62.5 -13q-45 0 -81 15.5 t-69 44.5q-29 24 -51 40t-51 16q-31 0 -44.5 -15.5t-23 -34.5t-22 -34.5t-40.5 -15.5q-11 0 -23 4.5t-21.5 12.5t-15.5 20t-6 27q0 37 18 67.5t45 52.5t59.5 34t61.5 12z" glyph-name="Utilde" horiz-adv-x="1296" unicode="Ũ"/><glyph d="M768 114q-50 -68 -120 -101t-158 -33q-68 0 -130 24.5t-109 71t-75 113t-28 149.5v532q0 35 24.5 59.5t59.5 24.5t59.5 -24.5t24.5 -59.5v-494q0 -53 16.5 -98t46.5 -78.5t71.5 -52.5t91.5 -19q49 0 90.5 18t71.5 50t47 76t17 96v502q0 35 24.5 59.5t59.5 24.5 t59.5 -24.5t24.5 -59.5v-806q0 -35 -24.5 -59.5t-59.5 -24.5t-59.5 24.5t-24.5 59.5v50zM414 1380q47 0 83.5 -17.5t68.5 -44.5q26 -23 47 -38.5t53 -15.5q31 0 44 15.5t22.5 34.5t22 34.5t41.5 15.5q11 0 23 -4t21.5 -11.5t15.5 -19t6 -25.5q0 -37 -17.5 -68t-44.5 -53.5 t-59.5 -35.5t-62.5 -13q-45 0 -81 15.5t-69 44.5q-29 24 -51 40t-51 16q-31 0 -44.5 -15.5t-23 -34.5t-22 -34.5t-40.5 -15.5q-11 0 -23 4.5t-21.5 12.5t-15.5 20t-6 27q0 37 18 67.5t45 52.5t59.5 34t61.5 12z" glyph-name="utilde" horiz-adv-x="1092" unicode="ũ"/><glyph d="M648 154q66 0 121 22t94 65t61 106.5t22 146.5v834q0 38 27 65t65 27t65 -27t27 -65v-836q0 -122 -39.5 -217.5t-105.5 -161t-153.5 -99.5t-183.5 -34q-97 0 -184.5 34t-153.5 99.5t-105 161t-39 217.5v836q0 19 7 35.5t19.5 29t29 20t36.5 7.5q38 0 65 -27t27 -65v-834 q0 -83 22 -146.5t61 -106.5t94 -65t121 -22zM896 1770q27 0 45.5 -18.5t18.5 -47.5q0 -27 -18.5 -45.5t-45.5 -18.5h-484q-27 0 -45.5 18.5t-18.5 45.5q0 29 18.5 47.5t45.5 18.5h484z" glyph-name="Umacron" horiz-adv-x="1296" unicode="Ū"/><glyph d="M768 114q-50 -68 -120 -101t-158 -33q-68 0 -130 24.5t-109 71t-75 113t-28 149.5v532q0 35 24.5 59.5t59.5 24.5t59.5 -24.5t24.5 -59.5v-494q0 -53 16.5 -98t46.5 -78.5t71.5 -52.5t91.5 -19q49 0 90.5 18t71.5 50t47 76t17 96v502q0 35 24.5 59.5t59.5 24.5 t59.5 -24.5t24.5 -59.5v-806q0 -35 -24.5 -59.5t-59.5 -24.5t-59.5 24.5t-24.5 59.5v50zM788 1322q27 0 45.5 -18.5t18.5 -47.5q0 -27 -18.5 -45.5t-45.5 -18.5h-484q-27 0 -45.5 18.5t-18.5 45.5q0 29 18.5 47.5t45.5 18.5h484z" glyph-name="umacron" horiz-adv-x="1092" unicode="ū"/><glyph d="M648 154q66 0 121 22t94 65t61 106.5t22 146.5v834q0 38 27 65t65 27t65 -27t27 -65v-836q0 -122 -39.5 -217.5t-105.5 -161t-153.5 -99.5t-183.5 -34q-97 0 -184.5 34t-153.5 99.5t-105 161t-39 217.5v836q0 19 7 35.5t19.5 29t29 20t36.5 7.5q38 0 65 -27t27 -65v-834 q0 -83 22 -146.5t61 -106.5t94 -65t121 -22zM654 1560q-83 0 -155.5 48.5t-110.5 143.5q-10 23 -10 50q0 35 18 54.5t48 19.5t47 -20.5t23 -47.5q5 -24 17 -45.5t30 -37.5t41 -25.5t52 -9.5q28 0 51.5 9.5t41.5 25.5t30 37.5t17 45.5q6 27 23 47.5t47 20.5t48 -19.5 t18 -54.5q0 -27 -10 -50q-38 -95 -110.5 -143.5t-155.5 -48.5z" glyph-name="Ubreve" horiz-adv-x="1296" unicode="Ŭ"/><glyph d="M768 114q-50 -68 -120 -101t-158 -33q-68 0 -130 24.5t-109 71t-75 113t-28 149.5v532q0 35 24.5 59.5t59.5 24.5t59.5 -24.5t24.5 -59.5v-494q0 -53 16.5 -98t46.5 -78.5t71.5 -52.5t91.5 -19q49 0 90.5 18t71.5 50t47 76t17 96v502q0 35 24.5 59.5t59.5 24.5 t59.5 -24.5t24.5 -59.5v-806q0 -35 -24.5 -59.5t-59.5 -24.5t-59.5 24.5t-24.5 59.5v50zM546 1110q-83 0 -155.5 48.5t-110.5 143.5q-10 23 -10 50q0 35 18 54.5t48 19.5t47 -20.5t23 -47.5q5 -24 17 -45.5t30 -37.5t41 -25.5t52 -9.5q28 0 51.5 9.5t41.5 25.5t30 37.5 t17 45.5q6 27 23 47.5t47 20.5t48 -19.5t18 -54.5q0 -27 -10 -50q-38 -95 -110.5 -143.5t-155.5 -48.5z" glyph-name="ubreve" horiz-adv-x="1092" unicode="ŭ"/><glyph d="M648 154q66 0 121 22t94 65t61 106.5t22 146.5v834q0 38 27 65t65 27t65 -27t27 -65v-836q0 -122 -39.5 -217.5t-105.5 -161t-153.5 -99.5t-183.5 -34q-97 0 -184.5 34t-153.5 99.5t-105 161t-39 217.5v836q0 19 7 35.5t19.5 29t29 20t36.5 7.5q38 0 65 -27t27 -65v-834 q0 -83 22 -146.5t61 -106.5t94 -65t121 -22zM450 1706q0 43 16 79t44 62.5t65 41.5t79 15t79 -15t65 -41.5t44 -62.5t16 -79q0 -44 -16 -80.5t-44 -63t-65 -41.5t-79 -15t-79 15t-65 41.5t-44 63t-16 80.5zM554 1706q0 -42 28 -71t72 -29q21 0 39 7.5t31.5 21t21.5 32 t8 39.5q0 20 -8 38.5t-21.5 32t-31.5 21.5t-39 8q-44 0 -72 -29.5t-28 -70.5z" glyph-name="Uring" horiz-adv-x="1296" unicode="Ů"/><glyph d="M768 114q-50 -68 -120 -101t-158 -33q-68 0 -130 24.5t-109 71t-75 113t-28 149.5v532q0 35 24.5 59.5t59.5 24.5t59.5 -24.5t24.5 -59.5v-494q0 -53 16.5 -98t46.5 -78.5t71.5 -52.5t91.5 -19q49 0 90.5 18t71.5 50t47 76t17 96v502q0 35 24.5 59.5t59.5 24.5 t59.5 -24.5t24.5 -59.5v-806q0 -35 -24.5 -59.5t-59.5 -24.5t-59.5 24.5t-24.5 59.5v50zM342 1256q0 43 16 79t44 62.5t65 41.5t79 15t79 -15t65 -41.5t44 -62.5t16 -79q0 -44 -16 -80.5t-44 -63t-65 -41.5t-79 -15t-79 15t-65 41.5t-44 63t-16 80.5zM446 1256q0 -42 28 -71 t72 -29q21 0 39 7.5t31.5 21t21.5 32t8 39.5q0 20 -8 38.5t-21.5 32t-31.5 21.5t-39 8q-44 0 -72 -29.5t-28 -70.5z" glyph-name="uring" horiz-adv-x="1092" unicode="ů"/><glyph d="M648 154q66 0 121 22t94 65t61 106.5t22 146.5v834q0 38 27 65t65 27t65 -27t27 -65v-836q0 -122 -39.5 -217.5t-105.5 -161t-153.5 -99.5t-183.5 -34q-97 0 -184.5 34t-153.5 99.5t-105 161t-39 217.5v836q0 19 7 35.5t19.5 29t29 20t36.5 7.5q38 0 65 -27t27 -65v-834 q0 -83 22 -146.5t61 -106.5t94 -65t121 -22zM716 1826q0 -15 -5 -27t-17 -23l-250 -234q-9 -9 -20.5 -14.5t-25.5 -5.5q-27 0 -46.5 18.5t-19.5 45.5q0 18 7 29.5t19 22.5l242 230q12 12 24.5 17t27.5 5q26 0 45 -18.5t19 -45.5zM1080 1826q0 -29 -24 -50l-250 -234 q-9 -9 -20 -14.5t-26 -5.5q-26 0 -45 18.5t-19 45.5q0 18 7 29.5t19 22.5l240 230q12 12 25 17t27 5q27 0 46.5 -18.5t19.5 -45.5z" glyph-name="Uhungarumlaut" horiz-adv-x="1296" unicode="Ű"/><glyph d="M768 114q-50 -68 -120 -101t-158 -33q-68 0 -130 24.5t-109 71t-75 113t-28 149.5v532q0 35 24.5 59.5t59.5 24.5t59.5 -24.5t24.5 -59.5v-494q0 -53 16.5 -98t46.5 -78.5t71.5 -52.5t91.5 -19q49 0 90.5 18t71.5 50t47 76t17 96v502q0 35 24.5 59.5t59.5 24.5 t59.5 -24.5t24.5 -59.5v-806q0 -35 -24.5 -59.5t-59.5 -24.5t-59.5 24.5t-24.5 59.5v50zM584 1378q0 -15 -5 -27t-17 -23l-250 -234q-9 -9 -20.5 -14.5t-25.5 -5.5q-27 0 -46.5 18.5t-19.5 45.5q0 18 7 29.5t19 22.5l242 230q12 12 24.5 17t27.5 5q26 0 45 -18.5t19 -45.5z M948 1378q0 -29 -24 -50l-250 -234q-9 -9 -20 -14.5t-26 -5.5q-26 0 -45 18.5t-19 45.5q0 18 7 29.5t19 22.5l240 230q12 12 25 17t27 5q27 0 46.5 -18.5t19.5 -45.5z" glyph-name="uhungarumlaut" horiz-adv-x="1092" unicode="ű"/><glyph d="M848 -416q-26 -12 -52.5 -17t-59.5 -5q-50 0 -89.5 16.5t-67 43.5t-42.5 63t-15 75q0 57 28 112.5t84 105.5q-95 4 -180 38.5t-149 98.5t-101.5 157.5t-37.5 215.5v838q0 19 7 35.5t19.5 29t29 20t36.5 7.5q38 0 65 -27t27 -65v-838q0 -83 22 -146.5t61.5 -106t94.5 -64 t120 -21.5q66 0 121 21.5t94 64t61 106t22 146.5v838q0 38 27 65t65 27t65 -27t27 -65v-838q0 -102 -27.5 -185t-75.5 -145.5t-113 -103.5t-140 -60q-56 -51 -87 -105.5t-31 -104.5q0 -54 33.5 -80t78.5 -26q17 0 30 6t28 6q23 0 39.5 -16t16.5 -40q0 -15 -10 -29.5 t-24 -20.5z" glyph-name="Uogonek" horiz-adv-x="1296" unicode="Ų"/><glyph d="M768 114q-50 -68 -120 -101t-158 -33q-68 0 -130 24.5t-109 71t-75 113t-28 149.5v532q0 35 24.5 59.5t59.5 24.5t59.5 -24.5t24.5 -59.5v-494q0 -53 17 -98t47 -78.5t71.5 -52.5t90.5 -19t90.5 18t71.5 50t47 76t17 96v502q0 35 24.5 59.5t59.5 24.5t59.5 -24.5 t24.5 -59.5v-806q0 -24 -12.5 -43.5t-33.5 -30.5q-54 -50 -85 -103t-31 -103q0 -27 9.5 -47t25.5 -33t36.5 -19.5t42.5 -6.5q18 0 29 6t25 6q24 0 40 -16t16 -40q0 -21 -14 -35t-35 -22t-46.5 -11.5t-48.5 -3.5q-50 0 -89.5 16.5t-68 43.5t-43.5 63t-15 75q0 66 38.5 129.5 t113.5 116.5q-11 11 -16.5 26t-5.5 32v50z" glyph-name="uogonek" horiz-adv-x="1092" unicode="ų"/><glyph d="M988 1050l-360 -1046q-5 -12 -17 -21t-29 -9q-15 0 -27 8t-17 22l-476 1298q-6 15 -6 32q0 18 7 34t19 28t28 19t34 7q30 0 52.5 -19.5t33.5 -46.5l348 -1018l364 1048q6 17 17 26.5t29 9.5t28 -9.5t16 -26.5l364 -1048l350 1018q9 27 31.5 46.5t54.5 19.5q36 0 61 -26 t25 -62q0 -9 -0.5 -16.5t-3.5 -15.5l-476 -1298q-5 -14 -17.5 -22t-26.5 -8q-18 0 -29.5 9t-16.5 21zM798 1542q-21 -18 -50 -18q-27 0 -44.5 17.5t-17.5 44.5q0 18 7.5 31.5t18.5 22.5l244 234q6 6 13.5 12t18.5 6t18.5 -6t13.5 -12l244 -234q11 -11 18.5 -23.5t7.5 -30.5 q0 -27 -17.5 -44.5t-44.5 -17.5q-29 0 -50 18l-190 184z" glyph-name="Wcircumflex" horiz-adv-x="1976" unicode="Ŵ"/><glyph d="M502 8q-6 -15 -17.5 -24.5t-26.5 -9.5q-17 0 -27.5 9t-16.5 21l-364 846q-6 12 -6 32q0 33 22.5 55.5t55.5 22.5q24 0 45 -12.5t29 -33.5l262 -650l266 662q6 15 17.5 24.5t26.5 9.5q17 0 28.5 -9.5t17.5 -24.5l266 -662l260 650q9 21 29.5 33.5t44.5 12.5 q33 0 55.5 -22.5t22.5 -55.5q0 -20 -6 -32l-362 -846q-6 -12 -17.5 -21t-26.5 -9q-17 0 -28.5 9.5t-17.5 24.5l-266 670zM578 1094q-21 -18 -50 -18q-27 0 -44.5 17.5t-17.5 44.5q0 18 7.5 31.5t18.5 22.5l244 234q6 6 13.5 12t18.5 6t18.5 -6t13.5 -12l244 -234 q11 -11 18.5 -23.5t7.5 -30.5q0 -27 -17.5 -44.5t-44.5 -17.5q-29 0 -50 18l-190 184z" glyph-name="wcircumflex" horiz-adv-x="1538" unicode="ŵ"/><glyph d="M606 -20q-20 0 -36.5 7.5t-29 20t-19.5 29t-7 35.5v492l-452 716q-6 9 -9 21.5t-3 24.5q0 19 7.5 36.5t20 30t29.5 20t37 7.5q29 0 50 -18t36 -42l376 -620l376 620q15 24 35.5 42t50.5 18q19 0 36 -7.5t30 -20t20.5 -30t7.5 -36.5q0 -12 -3 -24.5t-9 -21.5l-452 -716 v-492q0 -38 -27 -65t-65 -27zM416 1542q-21 -18 -50 -18q-27 0 -44.5 17.5t-17.5 44.5q0 18 7.5 31.5t18.5 22.5l244 234q6 6 13.5 12t18.5 6t18.5 -6t13.5 -12l244 -234q11 -11 18.5 -23.5t7.5 -30.5q0 -27 -17.5 -44.5t-44.5 -17.5q-29 0 -50 18l-190 184z" glyph-name="Ycircumflex" horiz-adv-x="1214" unicode="Ŷ"/><glyph d="M70 876q0 36 22.5 60t57.5 24q58 0 82 -58l258 -690l272 686q11 26 30 44t48 18q36 0 61 -24t25 -60q0 -13 -6 -28l-550 -1380q-9 -24 -31 -40t-51 -16q-36 0 -59 23.5t-23 58.5q0 11 1.5 20.5t6.5 17.5l192 482l-328 824q-3 9 -5.5 19t-2.5 19zM300 1094 q-21 -18 -50 -18q-27 0 -44.5 17.5t-17.5 44.5q0 18 7.5 31.5t18.5 22.5l244 234q6 6 13.5 12t18.5 6t18.5 -6t13.5 -12l244 -234q11 -11 18.5 -23.5t7.5 -30.5q0 -27 -17.5 -44.5t-44.5 -17.5q-29 0 -50 18l-190 184z" glyph-name="ycircumflex" horiz-adv-x="996" unicode="ŷ"/><glyph d="M606 -20q-20 0 -36.5 7.5t-29 20t-19.5 29t-7 35.5v492l-452 716q-6 9 -9 21.5t-3 24.5q0 19 7.5 36.5t20 30t29.5 20t37 7.5q29 0 50 -18t36 -42l376 -620l376 620q15 24 35.5 42t50.5 18q19 0 36 -7.5t30 -20t20.5 -30t7.5 -36.5q0 -12 -3 -24.5t-9 -21.5l-452 -716 v-492q0 -38 -27 -65t-65 -27zM416 1606q-21 0 -39.5 7.5t-32.5 21t-22 32t-8 39.5q0 20 8 38t22 31.5t32.5 21t39.5 7.5q20 0 38.5 -7.5t32 -21t21.5 -31.5t8 -38q0 -21 -8 -39.5t-21.5 -32t-32 -21t-38.5 -7.5zM796 1606q-21 0 -39.5 7.5t-32 21t-21 32t-7.5 39.5 q0 20 7.5 38t21 31.5t32 21t39.5 7.5t39.5 -7.5t32.5 -21t22 -31.5t8 -38q0 -21 -8 -39.5t-22 -32t-32.5 -21t-39.5 -7.5z" glyph-name="Ydieresis" horiz-adv-x="1214" unicode="Ÿ"/><glyph d="M314 174h588q36 0 61 -26t25 -62t-25 -61t-61 -25h-832q-15 0 -25.5 10.5t-10.5 25.5q0 6 2 11.5t4 10.5l624 1168h-482q-36 0 -62 25t-26 61q0 18 7 34t19 28t28 19t34 7h722q15 0 25.5 -11.5t10.5 -26.5q0 -11 -6 -20zM734 1826q0 -15 -5 -27t-17 -23l-250 -234 q-9 -9 -20.5 -14.5t-25.5 -5.5q-27 0 -46.5 18.5t-19.5 45.5q0 18 7 29.5t19 22.5l242 230q12 12 24.5 17t27.5 5q26 0 45 -18.5t19 -45.5z" glyph-name="Zacute" horiz-adv-x="1022" unicode="Ź"/><glyph d="M54 30q0 10 6 22l418 728h-302q-32 0 -55 22.5t-23 55.5q0 32 23 55t55 23h530q14 0 24 -10t10 -24q0 -6 -1.5 -9.5t-4.5 -8.5l-428 -728h406q33 0 55.5 -23t22.5 -55q0 -33 -22.5 -55.5t-55.5 -22.5h-626q-15 0 -23.5 8t-8.5 22zM616 1378q0 -15 -5 -27t-17 -23 l-250 -234q-9 -9 -20.5 -14.5t-25.5 -5.5q-27 0 -46.5 18.5t-19.5 45.5q0 18 7 29.5t19 22.5l242 230q12 12 24.5 17t27.5 5q26 0 45 -18.5t19 -45.5z" glyph-name="zacute" horiz-adv-x="830" unicode="ź"/><glyph d="M314 174h588q36 0 61 -26t25 -62t-25 -61t-61 -25h-832q-15 0 -25.5 10.5t-10.5 25.5q0 6 2 11.5t4 10.5l624 1168h-482q-36 0 -62 25t-26 61q0 18 7 34t19 28t28 19t34 7h722q15 0 25.5 -11.5t10.5 -26.5q0 -11 -6 -20zM504 1606q-21 0 -39.5 7.5t-32.5 21t-22 32 t-8 39.5q0 20 8 38t22 31.5t32.5 21t39.5 7.5t39 -7.5t31.5 -21t21.5 -31.5t8 -38q0 -21 -8 -39.5t-21.5 -32t-31.5 -21t-39 -7.5z" glyph-name="Zdotaccent" horiz-adv-x="1022" unicode="Ż"/><glyph d="M54 30q0 10 6 22l418 728h-302q-32 0 -55 22.5t-23 55.5q0 32 23 55t55 23h530q14 0 24 -10t10 -24q0 -6 -1.5 -9.5t-4.5 -8.5l-428 -728h406q33 0 55.5 -23t22.5 -55q0 -33 -22.5 -55.5t-55.5 -22.5h-626q-15 0 -23.5 8t-8.5 22zM414 1158q-21 0 -39.5 7.5t-32.5 21 t-22 32t-8 39.5q0 20 8 38t22 31.5t32.5 21t39.5 7.5t39 -7.5t31.5 -21t21.5 -31.5t8 -38q0 -21 -8 -39.5t-21.5 -32t-31.5 -21t-39 -7.5z" glyph-name="zdotaccent" horiz-adv-x="830" unicode="ż"/><glyph d="M314 174h588q36 0 61 -26t25 -62t-25 -61t-61 -25h-832q-15 0 -25.5 10.5t-10.5 25.5q0 6 2 11.5t4 10.5l624 1168h-482q-36 0 -62 25t-26 61q0 18 7 34t19 28t28 19t34 7h722q15 0 25.5 -11.5t10.5 -26.5q0 -11 -6 -20zM506 1680l184 178q11 11 24 18.5t30 7.5 q29 0 46.5 -17.5t17.5 -44.5q0 -18 -7.5 -30.5t-18.5 -23.5l-244 -234q-8 -8 -15.5 -13t-16.5 -5q-11 0 -18.5 5t-15.5 13l-244 234q-11 9 -17.5 21.5t-6.5 30.5q0 29 17.5 45.5t44.5 16.5q29 0 50 -18z" glyph-name="Zcaron" horiz-adv-x="1022" unicode="Ž"/><glyph d="M54 30q0 10 6 22l418 728h-302q-32 0 -55 22.5t-23 55.5q0 32 23 55t55 23h530q14 0 24 -10t10 -24q0 -6 -1.5 -9.5t-4.5 -8.5l-428 -728h406q33 0 55.5 -23t22.5 -55q0 -33 -22.5 -55.5t-55.5 -22.5h-626q-15 0 -23.5 8t-8.5 22zM418 1232l184 178q11 11 24 18.5t30 7.5 q29 0 46.5 -17.5t17.5 -44.5q0 -18 -7.5 -30.5t-18.5 -23.5l-244 -234q-8 -8 -15.5 -13t-16.5 -5q-11 0 -18.5 5t-15.5 13l-244 234q-11 9 -17.5 21.5t-6.5 30.5q0 29 17.5 45.5t44.5 16.5q29 0 50 -18z" glyph-name="zcaron" horiz-adv-x="830" unicode="ž"/><glyph d="M674 1316q-27 20 -67 37t-79 17t-66.5 -17.5t-45.5 -49t-26 -75.5t-8 -96v-1068q0 -35 -24.5 -59.5t-59.5 -24.5q-36 0 -61 24.5t-25 59.5v716h-100q-32 0 -55 22.5t-23 55.5q0 32 23 55t55 23h100v204q0 184 84 283t242 99q36 0 80 -11.5t82 -31t64 -47t26 -58.5 q0 -30 -22 -52t-52 -22q-12 0 -21.5 4t-20.5 12z" glyph-name="longs" horiz-adv-x="690" unicode="ſ"/><glyph d="M370 -164q0 -92 -19.5 -166t-59.5 -125.5t-100 -79t-141 -27.5q-42 0 -87.5 11.5t-83 31t-61.5 46t-24 57.5q0 30 22 52t52 22q15 0 29.5 -6t26.5 -20q18 -20 48.5 -34t65.5 -14q86 0 125 62.5t39 175.5v958h-102q-32 0 -54 22.5t-22 55.5q0 32 22 55t54 23h102v204 q0 184 82.5 283t239.5 99q68 0 125.5 -23t104.5 -71q11 -11 17.5 -25t6.5 -29q0 -30 -22 -52t-52 -22q-15 0 -29.5 6t-26.5 20q-20 20 -49 34t-65 14q-86 0 -125 -62.5t-39 -177.5v-198h224q32 0 55 -23t23 -55q0 -33 -23 -55.5t-55 -22.5h-224v-944z" glyph-name="florin" horiz-adv-x="680" unicode="ƒ"/><glyph d="M1348 1570q0 30 21 50t53 20q26 0 44 -16.5t30 -45.5q12 -30 21 -70.5t9 -73.5q0 -72 -32 -137t-106 -115q86 -97 135 -218.5t49 -263.5q0 -155 -58.5 -286.5t-158.5 -228t-233.5 -151t-283.5 -54.5q-151 0 -284.5 54.5t-234 151t-159 228t-58.5 286.5q0 102 26.5 195.5 t75 173t116 144t149 110.5t175 70.5t194.5 24.5q137 0 258.5 -43.5t219.5 -126.5q42 33 60 70.5t18 81.5q0 32 -8.5 63t-23.5 61q-6 11 -10 21.5t-4 24.5zM286 700q0 -119 43.5 -219.5t118.5 -173t175.5 -113t214.5 -40.5q113 0 213 40.5t175 113t118.5 173t43.5 219.5 q0 118 -43.5 218t-118.5 172.5t-175 113t-213 40.5q-114 0 -214.5 -40.5t-175.5 -113t-118.5 -172.5t-43.5 -218z" glyph-name="Ohorn" horiz-adv-x="1676" unicode="Ơ"/><glyph d="M1158 1032q0 -75 -36.5 -144t-119.5 -120q51 -60 79.5 -137t28.5 -163q0 -104 -40 -193.5t-109 -155t-162 -102.5t-199 -37t-199 37t-162 102.5t-109 155t-40 193.5t40 193t109 154t162 102t199 37q98 0 184 -29.5t152 -86.5q51 33 70.5 73t19.5 87q0 65 -34 124 q-12 21 -12 46q0 30 21 50t53 20q30 0 50 -21t32 -52t17 -67t5 -66zM260 468q0 -72 26.5 -133t72.5 -105t108 -69t133 -25t133 25t108 69t72.5 105t26.5 133q0 71 -26.5 131.5t-72.5 104.5t-108 69t-133 25t-133 -25t-108 -69t-72.5 -104.5t-26.5 -131.5z" glyph-name="ohorn" horiz-adv-x="1200" unicode="ơ"/><glyph d="M652 154q66 0 121.5 22t96 65t63.5 106.5t23 146.5v832q0 38 27 65t65 27q21 0 40.5 -9.5t33.5 -26.5q38 27 59 61.5t21 84.5q0 33 -9.5 63.5t-26.5 60.5q-12 21 -12 46q0 29 21 49.5t53 20.5q30 0 50 -21t32 -52.5t17 -67.5t5 -65q0 -87 -48 -160.5t-144 -115.5v-794 q0 -122 -40 -217.5t-107.5 -161t-155.5 -99.5t-185 -34q-96 0 -184 34t-155 99.5t-107 161t-40 217.5v834q0 19 7 35.5t19.5 29t29 20t36.5 7.5q38 0 65 -27t27 -65v-832q0 -80 22 -143.5t62 -107t95.5 -66.5t122.5 -23z" glyph-name="Uhorn" horiz-adv-x="1290" unicode="Ư"/><glyph d="M1146 1112q0 -43 -12.5 -84.5t-38 -79t-65 -68.5t-94.5 -52v-764q0 -35 -24.5 -59.5t-59.5 -24.5t-59.5 24.5t-24.5 59.5v50q-50 -69 -120 -100.5t-158 -31.5q-69 0 -131 24.5t-109 71t-74.5 112t-27.5 148.5v532q0 35 24.5 59.5t59.5 24.5t59.5 -24.5t24.5 -59.5v-494 q0 -51 16.5 -96t46.5 -79t71.5 -53.5t91.5 -19.5q49 0 90.5 18t71.5 50t47 76t17 96v500q0 35 24.5 60.5t59.5 25.5q42 0 68 -32q45 29 70.5 65t25.5 89q0 35 -9.5 65.5t-26.5 60.5q-6 11 -9 21t-3 25q0 29 21 49.5t53 20.5q29 0 49 -21t32 -52.5t17.5 -67.5t5.5 -65z" glyph-name="uhorn" horiz-adv-x="1126" unicode="ư"/><glyph d="M600 846q94 -38 162 -84.5t112 -103.5t65 -124.5t21 -147.5q0 -81 -28 -154.5t-83.5 -129.5t-137.5 -89t-189 -33q-65 0 -126.5 16.5t-116.5 46.5t-101.5 73.5t-81.5 97.5q-6 9 -10 20.5t-4 25.5q0 16 6.5 31t18 26.5t26 18t31.5 6.5q21 0 39.5 -9.5t30.5 -26.5 q53 -75 130 -113.5t160 -38.5q55 0 101 19t79.5 51.5t52.5 75.5t19 90q0 50 -13.5 92t-46.5 79.5t-87.5 72.5t-136.5 70q-78 33 -138 71.5t-100.5 85.5t-61 104.5t-20.5 128.5q0 67 25.5 126.5t72 104t111.5 70t145 25.5q188 0 294 -136q9 -12 17.5 -28.5t8.5 -31.5 q0 -16 -6.5 -30t-18 -24.5t-26.5 -17t-31 -6.5q-18 0 -34 8t-28 22q-33 36 -74.5 53t-89.5 17q-85 0 -133.5 -43.5t-48.5 -114.5q0 -41 12 -73t40.5 -60.5t75.5 -54.5t116 -54zM392 -506q0 5 1 14t3 12l74 266q9 30 28.5 51t51.5 21q33 0 52.5 -22t19.5 -54q0 -11 -3.5 -23 t-8.5 -23l-98 -246q-9 -23 -24 -38.5t-38 -15.5q-24 0 -41 17t-17 41z" glyph-name="uni0218" horiz-adv-x="1062" unicode="Ș"/><glyph d="M386 -20q-88 0 -164.5 44t-129.5 116q-9 12 -15.5 23.5t-6.5 28.5q0 30 21 51t51 21q20 0 35.5 -8t26.5 -22q35 -47 78.5 -75.5t93.5 -28.5q37 0 67 11t50.5 30t31.5 44.5t11 54.5q0 33 -10 58.5t-32 46.5t-57 40.5t-85 40.5q-53 22 -96.5 48t-74 57.5t-47 69t-16.5 81.5 q0 53 20.5 97.5t56.5 76.5t84.5 50t104.5 18q68 0 127 -28t101 -76q8 -9 12 -21.5t4 -24.5q0 -27 -20 -46.5t-50 -19.5q-17 0 -28 5.5t-22 16.5q-21 21 -48.5 34.5t-59.5 13.5q-51 0 -81.5 -25.5t-30.5 -66.5q0 -26 9.5 -46t30.5 -37.5t53 -33.5t77 -35q132 -54 189 -126.5 t57 -163.5q0 -61 -20.5 -114.5t-60.5 -93.5t-99.5 -63t-137.5 -23zM258 -506q0 5 1 14t3 12l74 266q9 30 28.5 51t51.5 21q33 0 52.5 -22t19.5 -54q0 -11 -3.5 -23t-8.5 -23l-98 -246q-9 -23 -24 -38.5t-38 -15.5q-24 0 -41 17t-17 41z" glyph-name="uni0219" unicode="ș"/><glyph d="M130 1226q-36 0 -61 25t-25 61t25 62t61 26h694q18 0 34 -7t28 -19t19 -28t7 -34q0 -36 -26 -61t-62 -25h-254v-1154q0 -38 -27 -65t-65 -27q-20 0 -36.5 7.5t-29 20t-19.5 29t-7 35.5v1154h-256zM314 -506q0 5 1 14t3 12l74 266q9 30 28.5 51t51.5 21q33 0 52.5 -22 t19.5 -54q0 -11 -3.5 -23t-8.5 -23l-98 -246q-9 -23 -24 -38.5t-38 -15.5q-24 0 -41 17t-17 41z" glyph-name="uni021A" horiz-adv-x="956" unicode="Ț"/><glyph d="M564 936q32 0 55 -23t23 -55q0 -33 -23 -55.5t-55 -22.5h-182v-716q0 -35 -24.5 -59.5t-59.5 -24.5q-36 0 -61 24.5t-25 59.5v716h-100q-32 0 -55 22.5t-23 55.5q0 32 23 55t55 23h100v198q0 35 25 59.5t61 24.5q35 0 59.5 -24.5t24.5 -59.5v-198h182zM142 -506q0 5 1 14 t3 12l74 266q9 30 28.5 51t51.5 21q33 0 52.5 -22t19.5 -54q0 -11 -3.5 -23t-8.5 -23l-98 -246q-9 -23 -24 -38.5t-38 -15.5q-24 0 -41 17t-17 41z" glyph-name="uni021B" horiz-adv-x="666" unicode="ț"/><glyph d="M-246 -412q0 33 22.5 54.5t51.5 21.5q37 0 58 -24q26 -27 60 -41.5t70 -14.5q90 0 128 65t38 179v1042q0 35 24.5 59.5t59.5 24.5t59.5 -24.5t24.5 -59.5v-1046q0 -187 -83.5 -287.5t-244.5 -100.5q-69 0 -134 26.5t-112 73.5q-11 11 -16.5 24.5t-5.5 27.5z" glyph-name="uni0237" horiz-adv-x="510" unicode="ȷ"/><glyph d="M275 1106q0 5 1 14t3 12l74 266q9 30 28.5 51t51.5 21q33 0 52.5 -22t19.5 -54q0 -11 -3.5 -23t-8.5 -23l-98 -246q-9 -23 -24 -38.5t-38 -15.5q-24 0 -41 17t-17 41z" glyph-name="uni02BC" horiz-adv-x="808" unicode="ʼ"/><glyph d="M214 1134q-21 -18 -50 -18q-27 0 -44.5 17.5t-17.5 44.5q0 18 7.5 31.5t18.5 22.5l244 234q6 6 13.5 12t18.5 6t18.5 -6t13.5 -12l244 -234q11 -11 18.5 -23.5t7.5 -30.5q0 -27 -17.5 -44.5t-44.5 -17.5q-29 0 -50 18l-190 184z" glyph-name="circumflex" horiz-adv-x="808" unicode="ˆ"/><glyph d="M404 1272l184 178q11 11 24 18.5t30 7.5q29 0 46.5 -17.5t17.5 -44.5q0 -18 -7.5 -30.5t-18.5 -23.5l-244 -234q-8 -8 -15.5 -13t-16.5 -5q-11 0 -18.5 5t-15.5 13l-244 234q-11 9 -17.5 21.5t-6.5 30.5q0 29 17.5 45.5t44.5 16.5q29 0 50 -18z" glyph-name="caron" horiz-adv-x="808" unicode="ˇ"/><glyph d="M646 1362q27 0 45.5 -18.5t18.5 -47.5q0 -27 -18.5 -45.5t-45.5 -18.5h-484q-27 0 -45.5 18.5t-18.5 45.5q0 29 18.5 47.5t45.5 18.5h484z" glyph-name="uni02C9" horiz-adv-x="808" unicode="ˉ"/><glyph d="M404 1130q-83 0 -155.5 48.5t-110.5 143.5q-10 23 -10 50q0 35 18 54.5t48 19.5t47 -20.5t23 -47.5q5 -24 17 -45.5t30 -37.5t41 -25.5t52 -9.5q28 0 51.5 9.5t41.5 25.5t30 37.5t17 45.5q6 27 23 47.5t47 20.5t48 -19.5t18 -54.5q0 -27 -10 -50q-38 -95 -110.5 -143.5 t-155.5 -48.5z" glyph-name="breve" horiz-adv-x="808" unicode="˘"/><glyph d="M404 1198q-21 0 -39.5 7.5t-32.5 21t-22 32t-8 39.5q0 20 8 38t22 31.5t32.5 21t39.5 7.5t39 -7.5t31.5 -21t21.5 -31.5t8 -38q0 -21 -8 -39.5t-21.5 -32t-31.5 -21t-39 -7.5z" glyph-name="dotaccent" horiz-adv-x="808" unicode="˙"/><glyph d="M200 1298q0 43 16 79t44 62.5t65 41.5t79 15t79 -15t65 -41.5t44 -62.5t16 -79q0 -44 -16 -80.5t-44 -63t-65 -41.5t-79 -15t-79 15t-65 41.5t-44 63t-16 80.5zM304 1298q0 -42 28 -71t72 -29q21 0 39 7.5t31.5 21t21.5 32t8 39.5q0 20 -8 38.5t-21.5 32t-31.5 21.5 t-39 8q-44 0 -72 -29.5t-28 -70.5z" glyph-name="ring" horiz-adv-x="808" unicode="˚"/><glyph d="M570 -416q-27 -14 -53 -18t-59 -4q-50 0 -89.5 16.5t-67 43.5t-42.5 63t-15 75q0 68 40.5 134t123.5 122q29 0 58 -1t58 -1q-68 -53 -107 -113.5t-39 -116.5q0 -27 9.5 -47t25.5 -33t36.5 -19.5t42.5 -6.5q17 0 30 5t28 5q23 0 38.5 -15.5t15.5 -38.5q0 -18 -10 -30 t-24 -20z" glyph-name="ogonek" horiz-adv-x="808" unicode="˛"/><glyph d="M272 1422q47 0 83.5 -17.5t68.5 -44.5q26 -23 47 -38.5t53 -15.5q31 0 44 15.5t22.5 34.5t22 34.5t41.5 15.5q11 0 23 -4t21.5 -11.5t15.5 -19t6 -25.5q0 -37 -17.5 -68t-44.5 -53.5t-59.5 -35.5t-62.5 -13q-45 0 -81 15.5t-69 44.5q-29 24 -51 40t-51 16 q-31 0 -44.5 -15.5t-23 -34.5t-22 -34.5t-40.5 -15.5q-11 0 -23 4.5t-21.5 12.5t-15.5 20t-6 27q0 37 18 67.5t45 52.5t59.5 34t61.5 12z" glyph-name="tilde" horiz-adv-x="808" unicode="˜"/><glyph d="M414 1418q0 -15 -5 -27t-17 -23l-250 -234q-9 -9 -20.5 -14.5t-25.5 -5.5q-27 0 -46.5 18.5t-19.5 45.5q0 18 7 29.5t19 22.5l242 230q12 12 24.5 17t27.5 5q26 0 45 -18.5t19 -45.5zM778 1418q0 -29 -24 -50l-250 -234q-9 -9 -20 -14.5t-26 -5.5q-26 0 -45 18.5 t-19 45.5q0 18 7 29.5t19 22.5l240 230q12 12 25 17t27 5q27 0 46.5 -18.5t19.5 -45.5z" glyph-name="hungarumlaut" horiz-adv-x="808" unicode="˝"/><glyph d="M-750 1418q0 27 18.5 46.5t45.5 19.5q25 0 48 -20l244 -234q12 -11 19 -23t7 -29q0 -27 -18.5 -45.5t-45.5 -18.5q-14 0 -25.5 5t-20.5 13l-252 238q-11 9 -15.5 21.5t-4.5 26.5z" glyph-name="gravecomb" horiz-adv-x="0" unicode="̀"/><glyph d="M-258 1418q0 -15 -5 -27t-17 -23l-250 -234q-9 -9 -20.5 -14.5t-25.5 -5.5q-27 0 -46.5 18.5t-19.5 45.5q0 18 7 29.5t19 22.5l242 230q12 12 24.5 17t27.5 5q26 0 45 -18.5t19 -45.5z" glyph-name="acutecomb" horiz-adv-x="0" unicode="́"/><glyph d="M-696 1134q-21 -18 -50 -18q-27 0 -44.5 17.5t-17.5 44.5q0 18 7.5 31.5t18.5 22.5l244 234q6 6 13.5 12t18.5 6t18.5 -6t13.5 -12l244 -234q11 -11 18.5 -23.5t7.5 -30.5q0 -27 -17.5 -44.5t-44.5 -17.5q-29 0 -50 18l-190 184z" glyph-name="uni0302" horiz-adv-x="0" unicode="̂"/><glyph d="M-638 1422q47 0 83.5 -17.5t68.5 -44.5q26 -23 47 -38.5t53 -15.5q31 0 44 15.5t22.5 34.5t22 34.5t41.5 15.5q11 0 23 -4t21.5 -11.5t15.5 -19t6 -25.5q0 -37 -17.5 -68t-44.5 -53.5t-59.5 -35.5t-62.5 -13q-45 0 -81 15.5t-69 44.5q-29 24 -51 40t-51 16 q-31 0 -44.5 -15.5t-23 -34.5t-22 -34.5t-40.5 -15.5q-11 0 -23 4.5t-21.5 12.5t-15.5 20t-6 27q0 37 18 67.5t45 52.5t59.5 34t61.5 12z" glyph-name="tildecomb" horiz-adv-x="0" unicode="̃"/><glyph d="M-258 1362q27 0 45.5 -18.5t18.5 -47.5q0 -27 -18.5 -45.5t-45.5 -18.5h-484q-27 0 -45.5 18.5t-18.5 45.5q0 29 18.5 47.5t45.5 18.5h484z" glyph-name="uni0304" horiz-adv-x="0" unicode="̄"/><glyph d="M-506 1130q-83 0 -155.5 48.5t-110.5 143.5q-10 23 -10 50q0 35 18 54.5t48 19.5t47 -20.5t23 -47.5q5 -24 17 -45.5t30 -37.5t41 -25.5t52 -9.5q28 0 51.5 9.5t41.5 25.5t30 37.5t17 45.5q6 27 23 47.5t47 20.5t48 -19.5t18 -54.5q0 -27 -10 -50q-38 -95 -110.5 -143.5 t-155.5 -48.5z" glyph-name="uni0306" horiz-adv-x="0" unicode="̆"/><glyph d="M-506 1198q-21 0 -39.5 7.5t-32.5 21t-22 32t-8 39.5q0 20 8 38t22 31.5t32.5 21t39.5 7.5t39 -7.5t31.5 -21t21.5 -31.5t8 -38q0 -21 -8 -39.5t-21.5 -32t-31.5 -21t-39 -7.5z" glyph-name="uni0307" horiz-adv-x="0" unicode="̇"/><glyph d="M-696 1198q-21 0 -39.5 7.5t-32.5 21t-22 32t-8 39.5q0 20 8 38t22 31.5t32.5 21t39.5 7.5q20 0 38.5 -7.5t32 -21t21.5 -31.5t8 -38q0 -21 -8 -39.5t-21.5 -32t-32 -21t-38.5 -7.5zM-316 1198q-21 0 -39.5 7.5t-32 21t-21 32t-7.5 39.5q0 20 7.5 38t21 31.5t32 21 t39.5 7.5t39.5 -7.5t32.5 -21t22 -31.5t8 -38q0 -21 -8 -39.5t-22 -32t-32.5 -21t-39.5 -7.5z" glyph-name="uni0308" horiz-adv-x="0" unicode="̈"/><glyph d="M-576 1214q0 17 9 26.5t21 15.5q35 14 51.5 30t16.5 40q0 29 -15.5 45.5t-42.5 16.5q-14 0 -28 -5t-22 -11q-26 -20 -42 -20q-20 0 -35 12.5t-15 33.5q0 19 15 37t38.5 31.5t52.5 21.5t58 8q35 0 64 -12t50 -32.5t32.5 -48.5t11.5 -59q0 -51 -28.5 -86.5t-75.5 -53.5v-36 q0 -24 -17 -42t-41 -18t-41 17t-17 43v46z" glyph-name="hookabovecomb" horiz-adv-x="0" unicode="̉"/><glyph d="M-710 1298q0 43 16 79t44 62.5t65 41.5t79 15t79 -15t65 -41.5t44 -62.5t16 -79q0 -44 -16 -80.5t-44 -63t-65 -41.5t-79 -15t-79 15t-65 41.5t-44 63t-16 80.5zM-606 1298q0 -42 28 -71t72 -29q21 0 39 7.5t31.5 21t21.5 32t8 39.5q0 20 -8 38.5t-21.5 32t-31.5 21.5 t-39 8q-44 0 -72 -29.5t-28 -70.5z" glyph-name="uni030A" horiz-adv-x="0" unicode="̊"/><glyph d="M-506 1272l184 178q11 11 24 18.5t30 7.5q29 0 46.5 -17.5t17.5 -44.5q0 -18 -7.5 -30.5t-18.5 -23.5l-244 -234q-8 -8 -15.5 -13t-16.5 -5q-11 0 -18.5 5t-15.5 13l-244 234q-11 9 -17.5 21.5t-6.5 30.5q0 29 17.5 45.5t44.5 16.5q29 0 50 -18z" glyph-name="uni030C" horiz-adv-x="0" unicode="̌"/><glyph d="M-506 -383q-21 0 -39.5 7.5t-32.5 21t-22 32t-8 39.5q0 20 8 38t22 31.5t32.5 21t39.5 7.5t39 -7.5t31.5 -21t21.5 -31.5t8 -38q0 -21 -8 -39.5t-21.5 -32t-31.5 -21t-39 -7.5z" glyph-name="dotbelowcomb" horiz-adv-x="0" unicode="̣"/><glyph d="M822 1252q-110 0 -206.5 -40.5t-168 -111t-112.5 -166.5t-41 -208q0 -89 24.5 -166.5t67 -144t100.5 -122t126 -99.5q18 -12 30 -30.5t12 -41.5v-36q0 -17 -6.5 -32.5t-18 -27.5t-26.5 -19t-31 -7h-400q-36 0 -61 24.5t-25 59.5q0 36 25 61t61 25h262 q-72 50 -131.5 109.5t-102.5 130t-66.5 153t-23.5 179.5q0 95 24.5 182.5t69.5 163t109 138t143 106.5t171.5 68t194.5 24q103 0 195.5 -24t172 -68t143.5 -106.5t109 -138t69.5 -163t24.5 -182.5q0 -97 -24 -179.5t-67 -153t-103 -130t-132 -109.5h264q36 0 61 -25t25 -61 q0 -35 -25 -59.5t-61 -24.5h-400q-35 0 -59.5 25.5t-24.5 60.5v36q0 30 20 49t46 37q64 45 118.5 100t94 120t61.5 139.5t22 158.5q0 112 -41 208t-113 166.5t-168.5 111t-207.5 40.5z" glyph-name="uni03A9" horiz-adv-x="1644" unicode="Ω"/><glyph d="M162 70q0 9 1.5 18.5t6.5 17.5q42 79 68 159t41 163t20 170t5 182h-200q-33 0 -55.5 22.5t-22.5 55.5q0 30 22.5 54t55.5 24h1026q33 0 55.5 -23t22.5 -55q0 -33 -22.5 -55.5t-55.5 -22.5h-222v-442q0 -44 6.5 -81t20.5 -64t37 -42t56 -15q23 0 41 7t35 19 q12 9 24.5 14.5t27.5 5.5q30 0 52 -22t22 -52q0 -15 -6.5 -29t-15.5 -23q-38 -36 -84 -56t-102 -20q-77 0 -130.5 29.5t-87 79t-49 114t-15.5 135.5v442h-264q0 -110 -8 -207t-26 -187t-47 -176.5t-71 -175.5q-11 -23 -31.5 -35.5t-46.5 -12.5q-35 0 -59.5 24.5t-24.5 59.5z" glyph-name="pi" horiz-adv-x="1254" unicode="π"/><glyph d="M166 1312q0 18 7 34t19 28t28 19t34 7h524q18 0 34 -7t28 -19t19 -28t7 -34q0 -36 -26 -61t-62 -25h-428v-364h380q35 0 59.5 -24.5t24.5 -59.5t-24.5 -59.5t-59.5 -24.5h-380v-520h448q17 0 32.5 -7t27.5 -19t19 -28t7 -34t-7 -33.5t-19 -27.5t-27.5 -18.5t-32.5 -6.5 h-544q-36 0 -62 25t-26 61v1226zM304 1826q0 27 18.5 46.5t45.5 19.5q25 0 48 -20l244 -234q12 -11 19 -23t7 -29q0 -27 -18.5 -45.5t-45.5 -18.5q-14 0 -25.5 5t-20.5 13l-252 238q-11 9 -15.5 21.5t-4.5 26.5z" glyph-name="uni0400" horiz-adv-x="972" unicode="Ѐ"/><glyph d="M166 1312q0 18 7 34t19 28t28 19t34 7h524q18 0 34 -7t28 -19t19 -28t7 -34q0 -36 -26 -61t-62 -25h-428v-364h380q35 0 59.5 -24.5t24.5 -59.5t-24.5 -59.5t-59.5 -24.5h-380v-520h448q17 0 32.5 -7t27.5 -19t19 -28t7 -34t-7 -33.5t-19 -27.5t-27.5 -18.5t-32.5 -6.5 h-544q-36 0 -62 25t-26 61v1226zM312 1606q-21 0 -39.5 7.5t-32.5 21t-22 32t-8 39.5q0 20 8 38t22 31.5t32.5 21t39.5 7.5q20 0 38.5 -7.5t32 -21t21.5 -31.5t8 -38q0 -21 -8 -39.5t-21.5 -32t-32 -21t-38.5 -7.5zM692 1606q-21 0 -39.5 7.5t-32 21t-21 32t-7.5 39.5 q0 20 7.5 38t21 31.5t32 21t39.5 7.5t39.5 -7.5t32.5 -21t22 -31.5t8 -38q0 -21 -8 -39.5t-22 -32t-32.5 -21t-39.5 -7.5z" glyph-name="uni0401" horiz-adv-x="972" unicode="Ё"/><glyph d="M718 64q0 33 18.5 55t53.5 27q57 8 100.5 33t73.5 62t45 83t15 96q0 64 -21 115.5t-58 87t-87.5 54.5t-109.5 19q-63 0 -120.5 -19t-99.5 -57v-548q0 -19 -7 -35.5t-19.5 -29t-29.5 -20t-36 -7.5q-38 0 -65 27t-27 65v1154h-240q-17 0 -32.5 6.5t-27.5 18.5t-19 27.5 t-7 33.5t7 34t19 28t27.5 19t32.5 7h704q36 0 61 -26t25 -62t-25 -61t-61 -25h-280v-446q48 38 115.5 59t138.5 21q88 0 166 -31t135.5 -88.5t91 -139.5t33.5 -183q0 -86 -30 -161t-81 -132t-119 -93t-144 -46q-8 -2 -16.5 -3t-17.5 -1q-38 0 -60 24.5t-22 57.5z" glyph-name="uni0402" horiz-adv-x="1278" unicode="Ђ"/><glyph d="M710 1826q0 -15 -5 -27t-17 -23l-250 -234q-9 -9 -20.5 -14.5t-25.5 -5.5q-27 0 -46.5 18.5t-19.5 45.5q0 18 7 29.5t19 22.5l242 230q12 12 24.5 17t27.5 5q26 0 45 -18.5t19 -45.5zM350 1226v-1154q0 -38 -27 -65t-65 -27q-20 0 -36.5 7.5t-29 20t-19.5 29t-7 35.5 v1236q0 19 7 35.5t19.5 29t29 20t36.5 7.5h490q18 0 34 -7t28 -19t19 -28t7 -34q0 -36 -26 -61t-62 -25h-398z" glyph-name="uni0403" horiz-adv-x="866" unicode="Ѓ"/><glyph d="M102 700q0 102 26.5 195.5t75 173t116 144t149 110.5t175 70.5t194.5 24.5q140 0 264 -46t222 -132q14 -12 21 -30t7 -36t-7 -34.5t-19 -28.5t-28 -19.5t-34 -7.5q-33 0 -58 22q-75 68 -168.5 103t-199.5 35q-104 0 -196.5 -33.5t-165 -94.5t-120.5 -145.5t-62 -186.5 h722q35 0 59.5 -24.5t24.5 -59.5t-24.5 -59.5t-59.5 -24.5h-722q14 -103 62 -188t120.5 -146t165 -94.5t196.5 -33.5q106 0 200 36t168 102q25 22 58 22q18 0 34 -7.5t28 -19.5t19 -28.5t7 -34.5t-7.5 -36t-22.5 -30q-100 -85 -222 -131.5t-262 -46.5q-151 0 -284.5 54.5 t-234 151t-159 228t-58.5 286.5z" glyph-name="uni0404" horiz-adv-x="1426" unicode="Є"/><glyph d="M600 846q94 -38 162 -84.5t112 -103.5t65 -124.5t21 -147.5q0 -81 -28 -154.5t-83.5 -129.5t-137.5 -89t-189 -33q-65 0 -126.5 16.5t-116.5 46.5t-101.5 73.5t-81.5 97.5q-6 9 -10 20.5t-4 25.5q0 16 6.5 31t18 26.5t26 18t31.5 6.5q21 0 39.5 -9.5t30.5 -26.5 q53 -75 130 -113.5t160 -38.5q55 0 101 19t79.5 51.5t52.5 75.5t19 90q0 50 -13.5 92t-46.5 79.5t-87.5 72.5t-136.5 70q-78 33 -138 71.5t-100.5 85.5t-61 104.5t-20.5 128.5q0 67 25.5 126.5t72 104t111.5 70t145 25.5q188 0 294 -136q9 -12 17.5 -28.5t8.5 -31.5 q0 -16 -6.5 -30t-18 -24.5t-26.5 -17t-31 -6.5q-18 0 -34 8t-28 22q-33 36 -74.5 53t-89.5 17q-85 0 -133.5 -43.5t-48.5 -114.5q0 -41 12 -73t40.5 -60.5t75.5 -54.5t116 -54z" glyph-name="uni0405" horiz-adv-x="1062" unicode="Ѕ"/><glyph d="M370 72q0 -19 -7 -35.5t-19.5 -29t-29.5 -20t-36 -7.5q-38 0 -65 27t-27 65v1256q0 38 27 65t65 27q19 0 36 -7.5t29.5 -20t19.5 -29t7 -35.5v-1256z" glyph-name="uni0406" horiz-adv-x="558" unicode="І"/><glyph d="M364 72q0 -19 -7 -35.5t-19.5 -29t-29.5 -20t-36 -7.5q-38 0 -65 27t-27 65v1256q0 38 27 65t65 27q19 0 36 -7.5t29.5 -20t19.5 -29t7 -35.5v-1256zM82 1606q-21 0 -39.5 7.5t-32.5 21t-22 32t-8 39.5q0 20 8 38t22 31.5t32.5 21t39.5 7.5q20 0 38.5 -7.5t32 -21 t21.5 -31.5t8 -38q0 -21 -8 -39.5t-21.5 -32t-32 -21t-38.5 -7.5zM462 1606q-21 0 -39.5 7.5t-32 21t-21 32t-7.5 39.5q0 20 7.5 38t21 31.5t32 21t39.5 7.5t39.5 -7.5t32.5 -21t22 -31.5t8 -38q0 -21 -8 -39.5t-22 -32t-32.5 -21t-39.5 -7.5z" glyph-name="uni0407" horiz-adv-x="546" unicode="Ї"/><glyph d="M6 172q0 36 25 62t61 26q18 0 34.5 -6t27.5 -20q29 -35 70.5 -57.5t89.5 -22.5q100 0 149 71t49 205v898q0 38 27 65t65 27t65 -27t27 -65v-906q0 -114 -28 -197.5t-78 -137.5t-119.5 -80.5t-152.5 -26.5q-80 0 -151.5 33.5t-124.5 84.5q-17 17 -26.5 34t-9.5 40z" glyph-name="uni0408" horiz-adv-x="864" unicode="Ј"/><glyph d="M34 72q0 15 5.5 30.5t20.5 29.5q9 8 17.5 15.5t16.5 16.5q55 65 92 145.5t61 171.5t38 192t22.5 206t13.5 213.5t13 215.5q3 39 28 65.5t64 26.5h642q19 0 36 -7.5t29.5 -20t19.5 -29t7 -35.5v-456h142q112 0 201 -33.5t150.5 -91.5t94 -135.5t32.5 -165.5 q0 -89 -33 -166.5t-94.5 -135t-150 -91t-200.5 -33.5h-240q-36 0 -61 24.5t-25 59.5v1142h-466l-32 -426q-8 -109 -23.5 -205t-36.5 -185q-30 -120 -84 -213t-132 -177q-15 -17 -34.5 -28.5t-45.5 -11.5q-36 0 -62 26.5t-26 65.5zM1160 168h138q66 0 121 18t94 51t61 81 t22 108t-22 108t-61 81t-94 51t-121 18h-138v-516z" glyph-name="uni0409" horiz-adv-x="1838" unicode="Љ"/><glyph d="M918 684h-568v-612q0 -38 -27 -65t-65 -27q-20 0 -36.5 7.5t-29 20t-19.5 29t-7 35.5v1254q0 19 7 35.5t19.5 29t29 20t36.5 7.5q38 0 65 -27t27 -65v-476h568v476q0 38 27 65t65 27q19 0 36 -7.5t29.5 -20t19.5 -29t7 -35.5v-474h142q112 0 201 -33.5t150.5 -91.5 t94 -135.5t32.5 -165.5q0 -89 -33 -166.5t-94.5 -135t-150 -91t-200.5 -33.5h-240q-36 0 -61 24.5t-25 59.5v600zM1102 168h138q66 0 121 18t94 51t61 81t22 108t-22 108t-61 81t-94 51t-121 18h-138v-516z" glyph-name="uni040A" horiz-adv-x="1780" unicode="Њ"/><glyph d="M990 434q0 127 -64 194.5t-180 67.5q-65 0 -120.5 -19.5t-97.5 -52.5v-552q0 -19 -7 -35.5t-19.5 -29t-29.5 -20t-36 -7.5q-38 0 -65 27t-27 65v1154h-240q-17 0 -32.5 6.5t-27.5 18.5t-19 27.5t-7 33.5t7 34t19 28t27.5 19t32.5 7h704q36 0 61 -26t25 -62t-25 -61 t-61 -25h-280v-442q51 36 119.5 56t146.5 20q83 0 153 -27.5t120.5 -80.5t78.5 -131t28 -179v-370q0 -38 -27 -65t-65 -27t-65 27t-27 65v362z" glyph-name="uni040B" horiz-adv-x="1280" unicode="Ћ"/><glyph d="M344 714l554 672q12 15 30.5 24.5t39.5 9.5q38 0 65 -27t27 -65q0 -18 -7.5 -33t-18.5 -29l-464 -552l542 -576q26 -29 26 -66q0 -19 -7.5 -35.5t-21 -29t-31 -20t-36.5 -7.5q-41 0 -70 32l-628 702v-642q0 -19 -7 -35.5t-19.5 -29t-29.5 -20t-36 -7.5q-38 0 -65 27 t-27 65v1256q0 38 27 65t65 27q19 0 36 -7.5t29.5 -20t19.5 -29t7 -35.5v-614zM792 1826q0 -15 -5 -27t-17 -23l-250 -234q-9 -9 -20.5 -14.5t-25.5 -5.5q-27 0 -46.5 18.5t-19.5 45.5q0 18 7 29.5t19 22.5l242 230q12 12 24.5 17t27.5 5q26 0 45 -18.5t19 -45.5z" glyph-name="uni040C" horiz-adv-x="1164" unicode="Ќ"/><glyph d="M540 1826q0 27 18.5 46.5t45.5 19.5q25 0 48 -20l244 -234q12 -11 19 -23t7 -29q0 -27 -18.5 -45.5t-45.5 -18.5q-14 0 -25.5 5t-20.5 13l-252 238q-11 9 -15.5 21.5t-4.5 26.5zM1218 1404q6 8 16 13t22 5q20 0 34 -13t14 -33v-1304q0 -38 -27 -65t-65 -27t-65 27t-27 65 v966q-219 -263 -434 -522t-434 -520q-8 -9 -17 -14.5t-23 -5.5q-20 0 -33 14t-13 32v1304q0 19 7 35.5t19.5 29t29 20t36.5 7.5q38 0 65 -27t27 -65v-966z" glyph-name="uni040D" horiz-adv-x="1470" unicode="Ѝ"/><glyph d="M596 1558q-83 0 -155.5 48.5t-110.5 143.5q-10 23 -10 50q0 35 18 54.5t48 19.5t47 -20.5t23 -47.5q5 -24 17 -45.5t30 -37.5t41 -25.5t52 -9.5q28 0 51.5 9.5t41.5 25.5t30 37.5t17 45.5q6 27 23 47.5t47 20.5t48 -19.5t18 -54.5q0 -27 -10 -50q-38 -95 -110.5 -143.5 t-155.5 -48.5zM52 1330q0 38 25 63t63 25q27 0 46.5 -12t31.5 -32l398 -684l374 684q11 20 31.5 32t46.5 12q38 0 63 -25t25 -63q0 -25 -10 -42l-698 -1262q-11 -20 -31 -33t-49 -13q-36 0 -62 25t-26 63q0 28 16 54l222 388l-454 772q-12 21 -12 48z" glyph-name="uni040E" horiz-adv-x="1192" unicode="Ў"/><glyph d="M558 -2h-300q-20 0 -36.5 7.5t-29 20t-19.5 29t-7 35.5v1236q0 19 7 35.5t19.5 29t29 20t36.5 7.5q38 0 65 -27t27 -65v-1154h600v1154q0 19 7 35.5t19.5 29t29 20t36.5 7.5q38 0 65 -27t27 -65v-1236q0 -38 -27 -65t-65 -27h-300v-182q0 -20 -7.5 -36.5t-20 -29 t-29 -19.5t-35.5 -7t-35.5 7t-29 19.5t-20 29t-7.5 36.5v182z" glyph-name="uni040F" horiz-adv-x="1300" unicode="Џ"/><glyph d="M640 1420q18 0 31 -11.5t19 -26.5l528 -1274q5 -11 7.5 -20t2.5 -20q0 -19 -7 -35t-18.5 -28t-27 -18.5t-31.5 -6.5q-29 0 -50 16t-32 42l-122 304h-602l-120 -304q-11 -26 -32 -42t-50 -16q-17 0 -32.5 6.5t-27.5 18.5t-19 27.5t-7 33.5q0 12 3.5 21.5t8.5 20.5 l528 1274q6 17 19 27.5t31 10.5zM400 494h478q-12 29 -30.5 76.5t-41.5 104t-47 117.5t-47 117.5t-42 104t-30 76.5z" glyph-name="uni0410" horiz-adv-x="1280" unicode="А"/><glyph d="M798 1400q17 0 32.5 -7t27.5 -19t19 -28t7 -34t-7 -33.5t-19 -27.5t-27.5 -18.5t-32.5 -6.5h-448v-374h142q112 0 200.5 -33.5t150 -91.5t93.5 -135.5t32 -165.5q0 -89 -33 -166.5t-94.5 -135t-149.5 -91t-199 -33.5h-242q-35 0 -59.5 24.5t-24.5 59.5v1224q0 19 7 35.5 t19.5 29t29 20t36.5 7.5h540zM350 168h136q66 0 121 18t94 51t61 81t22 108t-22 108t-61 81t-94 51t-121 18h-136v-516z" glyph-name="uni0411" horiz-adv-x="1038" unicode="Б"/><glyph d="M166 1320q0 32 22.5 56t55.5 24h234q108 0 190 -27.5t137 -74t83 -108t28 -128.5q0 -116 -56 -196t-162 -116q79 -18 136.5 -54t95 -84t55 -106t17.5 -120q0 -82 -31 -152.5t-90 -122.5t-145 -81.5t-196 -29.5h-294q-35 0 -57.5 22.5t-22.5 57.5v1240zM350 158h168 q72 0 128 19t94 52.5t58 80t20 102.5q0 55 -20.5 101t-59.5 79.5t-96 52.5t-130 19h-162v-506zM350 824h134q61 0 108 16t78.5 44t47.5 66t16 82q0 43 -15 81t-46.5 66.5t-79.5 44.5t-113 16h-130v-416z" glyph-name="uni0412" horiz-adv-x="1082" unicode="В"/><glyph d="M350 1226v-1154q0 -38 -27 -65t-65 -27q-20 0 -36.5 7.5t-29 20t-19.5 29t-7 35.5v1236q0 19 7 35.5t19.5 29t29 20t36.5 7.5h490q18 0 34 -7t28 -19t19 -28t7 -34q0 -36 -26 -61t-62 -25h-398z" glyph-name="uni0413" horiz-adv-x="866" unicode="Г"/><glyph d="M878 174v1052h-388q-1 -151 -10.5 -290.5t-30 -270t-53 -253t-78.5 -238.5h560zM318 1308q0 38 27 65t65 27h560q19 0 36 -7.5t29.5 -20t19.5 -29t7 -35.5v-1134h40q38 0 65 -27t27 -65v-262q0 -38 -27 -65t-65 -27q-20 0 -36.5 7.5t-29 20t-19.5 29t-7 35.5v180h-806 v-180q0 -38 -27 -65t-65 -27q-20 0 -36.5 7.5t-29 20t-19.5 29t-7 35.5v262q0 18 6.5 34.5t17.5 29.5t26.5 20.5t33.5 7.5h26q50 110 86 240t58.5 272.5t33 295.5t10.5 310v16z" glyph-name="uni0414" horiz-adv-x="1258" unicode="Д"/><glyph d="M166 1312q0 18 7 34t19 28t28 19t34 7h524q18 0 34 -7t28 -19t19 -28t7 -34q0 -36 -26 -61t-62 -25h-428v-364h380q35 0 59.5 -24.5t24.5 -59.5t-24.5 -59.5t-59.5 -24.5h-380v-520h448q17 0 32.5 -7t27.5 -19t19 -28t7 -34t-7 -33.5t-19 -27.5t-27.5 -18.5t-32.5 -6.5 h-544q-36 0 -62 25t-26 61v1226z" glyph-name="uni0415" horiz-adv-x="972" unicode="Е"/></font>
</defs>
</svg>
